/* XPM */
static char *_e7a44d8595b45bfd9ea7654407e7fe9[] = {
/* columns rows colors chars-per-pixel */
"32 32 139 2 ",
"   c None",
".  c #EF4B06",
"X  c #EF4D07",
"o  c #EF4F09",
"O  c #ED4F0A",
"+  c #F14602",
"@  c #F24602",
"#  c #F04803",
"$  c #F04905",
"%  c #F24904",
"&  c #F04A05",
"*  c #F04B05",
"=  c #F24A05",
"-  c #F24B05",
";  c #F04B06",
":  c #F24B06",
">  c #F44A04",
",  c #F04C06",
"<  c #F14C06",
"1  c #F04C07",
"2  c #F14C07",
"3  c #F04D07",
"4  c #F14D07",
"5  c #F24D07",
"6  c #F04D08",
"7  c #F14D08",
"8  c #F04E08",
"9  c #F14E08",
"0  c #F04F09",
"q  c #F24E08",
"w  c #EE500A",
"e  c #EE550E",
"r  c #E95C14",
"t  c #ED5D14",
"y  c #ED5F16",
"u  c #EB641A",
"i  c #DD7F34",
"p  c #E76A20",
"a  c #E96D23",
"s  c #EE6E22",
"d  c #EA7327",
"f  c #EE7226",
"g  c #EE7427",
"h  c #E07329",
"j  c #E57228",
"k  c #E67529",
"l  c #E4752A",
"z  c #EB7528",
"x  c #ED7528",
"c  c #EE772A",
"v  c #E6782C",
"b  c #E67A2D",
"n  c #E8782B",
"m  c #EE792A",
"M  c #DC8035",
"N  c #DC883B",
"B  c #E38537",
"V  c #EC8232",
"C  c #E3883A",
"Z  c #E3893A",
"A  c #E3893B",
"S  c #E4883A",
"D  c #E78B3B",
"F  c #E38B3C",
"G  c #E38F3F",
"H  c #E48E3E",
"J  c #E88B3A",
"K  c #ED8B3A",
"L  c #EB8C3A",
"P  c #ED8D3B",
"I  c #E98F3D",
"U  c #EA8E3D",
"Y  c #EE8E3C",
"T  c #EE913D",
"R  c #EE913E",
"E  c #EA9642",
"W  c #EE9440",
"Q  c #EE9441",
"!  c #EF9641",
"~  c #EE9642",
"^  c #EF9642",
"/  c #F09641",
"(  c #E7A04C",
")  c #EBA24C",
"_  c #EAA44E",
"`  c #E2A350",
"'  c #E3A450",
"]  c #E3A551",
"[  c #E3A651",
"{  c #E1A753",
"}  c #E2A653",
"|  c #E2A753",
" . c #E4A751",
".. c #E4A652",
"X. c #E4A752",
"o. c #EAA751",
"O. c #E6A852",
"+. c #E3A954",
"@. c #E3AA55",
"#. c #E4AB55",
"$. c #E4AC56",
"%. c #E6AC56",
"&. c #E6AD57",
"*. c #E9A852",
"=. c #ECA953",
"-. c #ECAA53",
";. c #ECAB53",
":. c #E9AB54",
">. c #ECAB54",
",. c #ECAC54",
"<. c #ECAD55",
"1. c #EDAD55",
"2. c #EDAE55",
"3. c #ECAD56",
"4. c #ECAE56",
"5. c #E8AF58",
"6. c #E4B15A",
"7. c #E5B25B",
"8. c #E9B058",
"9. c #ECB259",
"0. c #EDB259",
"q. c #EDB359",
"w. c #ECB25A",
"e. c #EDB35A",
"r. c #EAB45B",
"t. c #ECB45B",
"y. c #EDB45B",
"u. c #EDB55B",
"i. c #EEB45A",
"p. c #EDB55C",
"a. c #EEB55C",
"s. c #EDB65D",
"d. c #EEB65C",
"f. c #EEB75D",
"g. c #ECB85D",
"h. c #ECB85E",
"j. c #EDB85E",
"k. c #EDB85F",
"l. c #EDBA5F",
/* pixels */
"                        0 0 0 0 0 0 0 0                         ",
"                  0 0 0 0 0 0 0 0 0 0 0 0 0 0                   ",
"              0 0 0 0 0 0 0 0 0 0 0 0 0 0 0 0 0 0               ",
"            0 0 0 0 0 0 0 0 0 0 0 0 0 0 0 0 0 0 0 0             ",
"          0 0 0 0 0 0 0 0 0 0 0 0 0 0 0 0 0 0 0 0 0 0           ",
"        0 0 0 0 0 0 0 0 0 0 0 0 0 0 0 0 0 0 8 w 0 0 0 0         ",
"      0 0 0 0 0 1 1 1 1 0 0 0 0 0 0 0 0 1 1 1 w 0 0 0 0 0       ",
"    0 0 0 0 0 ; / ~ / ~ ~ X 0 0 0 0 0 1 R ~ R T 1 0 0 0 0 0     ",
"    0 0 0 0 0 ; e.y.y.y.t.V w 0 0 0 1 . :.a.a.#.; 0 0 0 0 0     ",
"  0 0 0 0 0 0 # e.y.y.y.a.t.e 0 0 0 0 % 3.t.i.#.> 0 0 0 0 0 0   ",
"  0 0 0 0 0 0 # e.y.y.y.y.y.E 0 0 0 0 ; 3.i.a.@.; 0 0 0 0 0 0   ",
"  0 0 0 0 0 0 ; e.y.y.y.y.a.a.u 0 0 0 ; 3.i.i.@.> 0 0 0 0 0 0   ",
"0 0 0 0 0 0 0 + e.e.a.i.a.t.i.*.X 0 0 ; 3.i.i.@.% 0 1 0 0 0 0 0 ",
"0 0 0 0 1 R R Y e.e.i.O.3.e.r.a.n 0 w % :.i.a.&.K P J ; 0 0 0 0 ",
"0 0 0 0 ; l.i.a.y.y.y...s a.a.a.r.w 1 1 =.a.y.a.i.a.7.; 0 0 0 0 ",
"0 0 0 0 1 b b k e.e.y...+ ) i.t.i.D 1 % =.y.y.&.j k h 0 0 0 0 0 ",
"0 0 0 0 o m x g e.y.e...; t l.i.r.l.r . >.i.a.$.f x f X 1 0 0 0 ",
"0 0 0 0 ; l.a.i.e.y.e.} > 0 J e.i.i.( + *.t.e.a.a.a.7.; 0 0 0 0 ",
"0 0 0 0 ; H H H e.e.y...; 0 0 e.i.r.a.p =.a.a.&.A F N 1 0 0 0 0 ",
"0 0 0 0 0 1 1 + :.y.y.] > 0 w g a.a.i.:.o.i.a.{ ; 1 q 0 0 0 0 0 ",
"  0 0 0 0 0 0 ; 4.a.a.` > 0 0 1 _ a.a.t.i.t.t.{ 1 0 0 0 0 0 0   ",
"  0 0 0 0 0 0 ; 4.a.e.} ; 0 0 0 u h.e.t.t.a.i.} 1 0 0 0 0 0 0   ",
"  0 0 0 0 0 0 ; :.a.e.( > 0 0 0 ; U e.a.e.e.a.} > 8 0 0 0 0 0   ",
"    0 0 0 0 0 ; 3.i.r.} q 0 0 0 0 o a.e.a.t.t.} 1 0 0 0 0 0     ",
"    0 0 0 0 0 1 B F F i q 1 0 0 0 0 a F B F F M q 1 0 0 0 0     ",
"      0 0 0 0 0 q 0 1 q 0 8 0 0 0 0 1 q 1 q q 0 0 8 0 0 0       ",
"        0 0 0 0 0 0 0 0 0 0 0 0 0 0 0 0 0 0 0 0 0 0 0 0         ",
"          0 0 0 0 0 0 0 0 0 0 0 0 0 0 0 0 0 0 0 0 0 0           ",
"            0 0 0 0 0 0 0 0 0 0 0 0 0 0 0 0 0 0 0 0             ",
"              0 0 0 0 0 0 0 0 0 0 0 0 0 0 0 0 0 0               ",
"                  0 0 0 0 0 0 0 0 0 0 0 0 0 0                   ",
"                        0 0 0 0 0 0 0 0                         "
};
