/* XPM */
static char *_084bff89b584426bcf0311cce86f531[] = {
/* columns rows colors chars-per-pixel */
"16 16 76 1 ",
"  c None",
". c #F14702",
"X c #F14803",
"o c #F04904",
"O c #F14904",
"+ c #F04A05",
"@ c #F14A05",
"# c #F04B06",
"$ c #F04C06",
"% c #F04D08",
"& c #F04E08",
"* c #F14E08",
"= c #F04F09",
"- c #EE530D",
"; c #EB5B13",
": c #EE5B13",
"> c #EE5C13",
", c #ED5D14",
"< c #EC5C15",
"1 c #EF5E14",
"2 c #F05E15",
"3 c #EB621A",
"4 c #EA661D",
"5 c #E8671E",
"6 c #EA671E",
"7 c #EF671C",
"8 c #E8681E",
"9 c #EA691F",
"0 c #EF691D",
"q c #EE6E22",
"w c #EF6F22",
"e c #EE6F24",
"r c #E97025",
"t c #EC7024",
"y c #EF7326",
"u c #ED7427",
"i c #F07023",
"p c #EC7F30",
"a c #EE8131",
"s c #EB9340",
"d c #EF9743",
"f c #E99744",
"g c #EF9843",
"h c #E99845",
"j c #EC9F4B",
"k c #EAA14C",
"l c #ECAE56",
"z c #ECAE57",
"x c #E8AF58",
"c c #E7B159",
"v c #E9B058",
"b c #E8B059",
"n c #EBB159",
"m c #E8B25A",
"M c #E9B25A",
"N c #E9B25B",
"B c #E8B35B",
"V c #EBB35B",
"C c #EDB058",
"Z c #ECB259",
"A c #EDB25A",
"S c #EDB35A",
"D c #ECB35B",
"F c #ECB45B",
"G c #EDB45B",
"H c #EDB55B",
"J c #E8B55D",
"K c #EDB55C",
"L c #EDB65C",
"P c #ECB65D",
"I c #EDB65D",
"U c #EDB75D",
"Y c #EEB75D",
"T c #EDB85E",
"R c #EDB95F",
"E c #EDBA60",
/* pixels */
"     ======     ",
"   ==========   ",
"  ============  ",
" ===it1==$iq=== ",
" ==oRIl$=oIJX== ",
"===oIGFa=oIno===",
"==20InGI-oAN7>==",
"==uhGvaGs.AGfr==",
"==tgIxoAR<nngr==",
"==>6AnotIknn6;==",
"===oIxoojGGco===",
" ==oPno=:RIBo== ",
" ===96===309=== ",
"  ============  ",
"   ==========   ",
"     ======     "
};
