/* XPM */
static char *_2239a717e7b48f28e0b6f0b816b80a9[] = {
/* columns rows colors chars-per-pixel */
"64 64 58 1 ",
"  c None",
". c #DE4F0D",
"X c #DA510F",
"o c #DB5210",
"O c #E04706",
"+ c #E34906",
"@ c #EF4C07",
"# c #E64D0A",
"$ c #ED4E09",
"% c #F14B06",
"& c #F04F09",
"* c #E4520E",
"= c #ED520C",
"- c #F0520B",
"; c #F0580F",
": c #E65510",
"> c #E45912",
", c #EC5B13",
"< c #F05810",
"1 c #EF6016",
"2 c #E4661E",
"3 c #EC641A",
"4 c #ED6A1F",
"5 c #F06016",
"6 c #F0661A",
"7 c #F16A1D",
"8 c #DC6821",
"9 c #DE7D31",
"0 c #E46B22",
"q c #EE6E22",
"w c #EF7426",
"e c #EB7729",
"r c #E77D2E",
"t c #E87B2D",
"y c #DC8639",
"u c #DE893B",
"i c #E78637",
"p c #E18A3B",
"a c #EB8D3C",
"s c #EB913F",
"d c #DD9544",
"f c #E49544",
"g c #EC9541",
"h c #E69946",
"j c #ED9B46",
"k c #E29C49",
"l c #ED9F49",
"z c #E5A14D",
"x c #EDA24B",
"c c #E3A753",
"v c #E8A751",
"b c #E6AD56",
"n c #EBAD56",
"m c #E8AF58",
"M c #EDB057",
"N c #EDB45B",
"B c #EBB85F",
"V c #EDBC61",
/* pixels */
"                           &&&&&&&&&&                           ",
"                      &&&&&&&&&&&&&&&&&&&&                      ",
"                   &-&&&&&&&&&&&&&&&&&&&&&&&-                   ",
"                 %-&&&&&&&&&&&&&&&&&&&&&&&&&&&&                 ",
"                &&&&&&&&&&&&&&&&&&&&&&&&%=%&=%-%                ",
"              &&&&&&&&&&&&&&&&&&&&&&&&&&-%-&%-%=&&              ",
"             &&&&&&&&&&&&&&&&&&&-&&&&&&&%-%=-%-%&&&             ",
"           &&&&&&&&&&&&&&&&&-&&&&&&&&&&&=%-%--%=&&&&            ",
"          &&&&&&&&&&&&&&&&&&&&&&&&&&&&&&&&&&%-%%&&&&&&          ",
"         &&&&&&&&&&&&&&&&&&&&&&&&&&&&&&&&&&&=%--&&&&&&&         ",
"        &&&&&&&&&&&&&&-&&&&&&&&&&&&&&&&&&&&&%-%-&&&&&&&&        ",
"       &&&&&&&-&&&&&&&&&&&&&&&&&&&&&&&&&&&&&-%-%&&&&&&&-        ",
"       &&&&&&&&&-&&&&&%-&=&&&&&&&&&&&&&&&&=%-&--&&&&&&&&&       ",
"      &&&&&&&&&&%&%&%-%$&%&&&&&&&&&&&&&&%&%-&%%&&&&&&&&&&&      ",
"     &&&&&&&&&&-6777777771%-&&&&&&&&&&&-17663635-&&&&&&&&&&     ",
"     &&&&&&&&&&;vVVVVVVVVN3%&&&&&&&&&&&-jVVVVVVz=&&&&&&&&&&     ",
"    &&&&&&&&&&&<xMNNNNNNNNg=&&&&&&&&&&&-gNNNNNNh*&$&&&&&&&&&    ",
"   &&&&&&&&&&&&<xNNNNNNNNNN2&&&&&&&&&&&-gNNNNNNj=$&&&&&&&&&&    ",
"   &&&&&&&&&&&&<xNMNNNNNNNNl&&&&&&&&&&&-gVNNNNNh=&&&&&&&&&&&&   ",
"  &&&&&&&&&&&&&<xNNNNNNNNNNVr%&&&&&&&&&-gNNNNNNh*&&&&&&&&&&&&   ",
"  &&&&&&&&&&&&&;jNNNNNNNNNNNN>&&&&&&&&&-gNNNNNNh=$&&&&&&&&&&&&  ",
"  &&&&&&&&&&&&&;jNNNNNNNNNNNNg%$&&&&&&&-gNNNNNNh=&&&&&&&&&&&&&  ",
" &&&&&&&&&&&&&&;xNNNNNNNNNNNNnq@&&&&&&&-gBNNNNNh#&&&&&&&&&&&&&  ",
" &&&&&&-&&&&&&&;xNNNNNNNNNNNNNh-&&&&&&&-gNNNNNNh*&&&&&&&&&&&&&& ",
" &&&&&&&&&&&-&&;jNNNNNNNNNNNNNN0&&&&&&&-gNMNNNNh=&&-&&&&&&&&&&& ",
" &&&&&&&&&%&&%%;xNNNNNNNNNNNNNNm&&&&&&&-gNNNNNNj#&%%&&&&&&&&&&& ",
" &&&&&&&%-qwwqqwxNNNNNNcNNNNNNNNa%&&&&&-gNNNNNNz047q44$&&&&&&&& ",
"&&&&&&&&%;nnMMMMNNNNNNNpgNNNNNNNn2%&&&&-sNNNNNNMnnnnnv+&&-&&&&&&",
"&&&&&&&&-;NNNNNNNNNNNNNp;NNNNNNNNf=&&&&-sBNNNNNNNNNNNn+&&&&&&&&&",
"&&&&&&&&%-NNNNBBNNNNNNVp$eNNNNNNNmq&&&&-sNNNNNNNNNNBNmO&&&&&&&&&",
"&&&&&&&&&-kkkkkdMNNNNNNp$=jVNNNNNNz$&&&-sNNNNNNbddfddd+&&&&&&&&&",
"&&&&-&&&$&==;==,jNNNNNNa=$qmNNNNNNN9%&&-sNNNNNNh>======&&&&&&&&&",
"&&&&&&&&&&-=---<jNNNNNMf=&$gNNNNNNNN>@$-aNNNNNNh#=--&-&&&&&&&&&&",
"&&&&&&&&&$jjjjjjnNNNNNN9=&&,MNNNNNNNf$&-gNNNNNNngggggg+&&&&&&&&&",
"&&&&&&&&&-NNNNVNNNNNNNNd$&&%tVNNNNNNN0%-aNNNNNNNNNVNNmO&&&&&&&&&",
"&&&&&&&&&-NNNNNNNNNNNNMd-&&&&lNNNNNNNf=-gNNNNNNNNNNNNnO&&&&&&&&&",
"&&&&&&&&&=mmmmmmNNNNNNN9=&&&&qmNNNNNNN8;aNNNNNNNmmbbbcO&&&&&&&&&",
" -&&&&&&&&000000xNNNNNNf=&&&&-gmNNNNNNb:aVNNNNNh800000#&&&&&&&& ",
" &&&&&&&&&&%&&&-jNNNNNV9$&&&&&,mNNNNNNNfiNNNNNNf#&%&@@$&&&&&&&& ",
" &&&&&&&&&&&&&-=jNNNmNNd-&&&&&&iNNNNNNNNzNNNNNNf#@$&@@&&&&&&&&& ",
" -&&&&&&&&&&&-&-jNNNNNNd$&&&&&&$vNNNNNNNNNNNNNNf$&&&&&&&&&&&&&& ",
" &&&&&&&&&&&&&-=jNNNNNN9=&&&&&&&2NNNNNNNNNNNNNNh#&&&&&&&&&&&&&  ",
"  &&&&&&&&&&&&&-jNNNNNNd-&&&&&&&=aNNNNNNNNNNNNnf#&&&&&-&&&&&&&  ",
"  &&&&-&&&&&&&&=jNNNNNN9=&&&&&&&%3nNNNNNNNNNNNNf#&&&&&&&&&&&-&  ",
"  &&&&&&&&&&&&&-jNNNNNNd$&&&&&&&=%aNNNNNNNNNNNNf#&&&&&&&&&&&&   ",
"   &&&&&&&&&&&&-jNNNNNN9=&&&&&&&=%=nNNNNNNNNNNNf#&&&&&&&&&&&&   ",
"   &&&&&&&&&&&&-jNNNNNNy$&&&&&&&%&%0NNNNNNmNNNNf#&&&&&&&&&&&    ",
"    &&&&&&&&&&&-jNNNNNV9=&&&&&&&-&-%gNNNNNNNNNNf#&&&&&&&&&&&    ",
"     &&&&&&&&&&<lVVVVVVy$&&&&&&&&&&&,bVVVNVVVVVh#&&&&&&&&&&     ",
"     &&&&&&&&&&$:oXXXXo.&&&&&&&&&&&&=+XXXXXXXXX.$&&&&&&&&&&     ",
"      &&&&&&&&&&&&&&@$&&&&&&&&&&&&&&-&&&@&&&@@&&&&&&&&&&&&      ",
"       &&&&&&&&&&&&&@$&&&&&&&&&&&&&&&&&&&$&&&$&&&&&&&&&&&       ",
"        &&&&&&&&&&&&&&&&&&&&&&&&&&&&&&&&&&&&&&&&&&&&&&&&        ",
"        &&&&&&&&-&&&&&&&&&&&&&&&&&&&&&&&&&&&&&&&&&&&&&&&        ",
"         &&&&&&&&&&&&&&&&&&&&&&&&&&&&&&&&&&&&&&&&&&&&&&         ",
"          &&&&&&&&&&&&&&&&&&&&&&&&&&&&&&&&&&&&&&&&&&&&          ",
"            &&&&&&&&&&&&&&&&&&&&&&&&&&&&&&&&&&&&&&&&            ",
"             &&&&&&&&&&&&&&&&&&&&&&&&&&&&&&&&&&&&&&             ",
"              &&&&&&&&&&&&&&&&&&&&&&&&&&&&&&&&&&&&              ",
"                &&&&&&&&&&&&&&&&&&&&&&&&&&&&&&&&                ",
"                  -&&&&&&&&&&&&&&&&&&&&&&&&&&&                  ",
"                    &&&&&&&&&&&&&&&&&&&&&&-&                    ",
"                       &&&&&&&&&&&&&--&&&                       ",
"                           &&&&&&&&&&                           "
};
