<?xml version="1.0" encoding="utf-8"?>
<!-- Generator: Adobe Illustrator 24.0.1, SVG Export Plug-In . SVG Version: 6.00 Build 0)  -->
<svg version="1.1" id="Layer_1" xmlns="http://www.w3.org/2000/svg" xmlns:xlink="http://www.w3.org/1999/xlink" x="0px" y="0px"
	 width="24px" height="24px" viewBox="0 0 24 24" style="enable-background:new 0 0 24 24;" xml:space="preserve">
<style type="text/css">
	.st0{opacity:0.7;}
	.st1{fill:#FFFFFF;}
	.st2{fill:none;}
</style>
<g id="ic-transaction-staked" class="st0">
	<g>
		<g>
			<path class="st1" d="M20.6,5.9h-1.5c0.2-0.3,0.3-0.6,0.4-1C19.6,3.7,19,2.7,18,2.3s-2-0.2-2.8,0.4l-1.8,1.7
				C13,4,12.5,3.7,11.9,3.7s-1.1,0.2-1.4,0.6L8.6,2.7C7.8,2,6.8,1.8,5.8,2.2c-1,0.5-1.6,1.5-1.5,2.6c0,0.4,0.2,0.7,0.4,1H3.2
				C2.5,5.9,1.9,6.5,1.9,7.2v2c0,0.4,0.3,0.7,0.7,0.7h18.7c0.4,0,0.7-0.3,0.7-0.7v-2C21.9,6.5,21.3,5.9,20.6,5.9z M9.9,5.7v0.2h-3
				c-0.8,0-1.5-0.8-1.2-1.6c0.1-0.4,0.4-0.7,0.7-0.9c0.5-0.2,1-0.1,1.4,0.2L9.9,5.7L9.9,5.7z M18.3,4.7c0,0.7-0.7,1.2-1.3,1.2h-3
				V5.7l0,0c0.5-0.5,1.6-1.4,2.2-2c0.3-0.3,0.8-0.4,1.2-0.3C17.9,3.5,18.3,4.1,18.3,4.7z"/>
		</g>
	</g>
	<g>
		<g>
			<path class="st1" d="M3.2,10.6v10.1c0,0.7,0.6,1.4,1.4,1.4h6.6V10.6H3.2z"/>
		</g>
	</g>
	<g>
		<g>
			<path class="st1" d="M12.7,10.6V22h6.6c0.8,0,1.4-0.6,1.4-1.4v-10H12.7L12.7,10.6z"/>
		</g>
	</g>
	<path id="Rectangle" class="st2" d="M0,0h24v24H0V0z"/>
</g>
</svg>
