<?xml version="1.0" encoding="utf-8"?>
<!-- Generator: Adobe Illustrator 24.0.1, SVG Export Plug-In . SVG Version: 6.00 Build 0)  -->
<svg version="1.1" id="bg_welcome" xmlns="http://www.w3.org/2000/svg" xmlns:xlink="http://www.w3.org/1999/xlink" x="0px" y="0px"
	 width="1200px" height="800px" viewBox="0 0 1200 800" style="enable-background:new 0 0 1200 800;" xml:space="preserve">
<style type="text/css">
	.st0{fill:#0C1A2A;}
	.st1{opacity:0.75;clip-path:url(#SVGID_2_);}
	.st2{filter:url(#Adobe_OpacityMaskFilter);}
	.st3{fill:none;stroke:#FFFFFF;stroke-width:0.3;stroke-miterlimit:10;}
	.st4{mask:url(#SVGID_3_);fill:url(#SVGID_4_);}
	.st5{fill:none;stroke:url(#SVGID_5_);stroke-width:0.5;stroke-miterlimit:10;}
	.st6{fill:none;stroke:url(#SVGID_6_);stroke-width:0.5;stroke-miterlimit:10;}
	.st7{fill:#0C1A2A;stroke:url(#SVGID_7_);stroke-miterlimit:10;}
</style>
<g>
	<rect x="0" class="st0" width="1200" height="800"/>
	<g>
		<defs>
			<rect id="SVGID_1_" x="0" width="1200" height="800"/>
		</defs>
		<clipPath id="SVGID_2_">
			<use xlink:href="#SVGID_1_"  style="overflow:visible;"/>
		</clipPath>
		<g class="st1">
			<defs>
				<filter id="Adobe_OpacityMaskFilter" filterUnits="userSpaceOnUse" x="-1.6" y="0" width="1200" height="800">
					<feColorMatrix  type="matrix" values="1 0 0 0 0  0 1 0 0 0  0 0 1 0 0  0 0 0 1 0"/>
				</filter>
			</defs>
			<mask maskUnits="userSpaceOnUse" x="-1.6" y="0" width="1200" height="800" id="SVGID_3_">
				<g class="st2">
					<g>
						<line class="st3" x1="1080.9" y1="872.4" x2="1114.4" y2="872.4"/>
						<line class="st3" x1="980.2" y1="872.4" x2="1013.8" y2="872.4"/>
						<line class="st3" x1="879.5" y1="872.4" x2="913.1" y2="872.4"/>
						<line class="st3" x1="778.8" y1="872.4" x2="812.4" y2="872.4"/>
						<line class="st3" x1="678.1" y1="872.4" x2="711.7" y2="872.4"/>
						<line class="st3" x1="577.4" y1="872.4" x2="611" y2="872.4"/>
						<line class="st3" x1="476.7" y1="872.4" x2="510.3" y2="872.4"/>
						<line class="st3" x1="376.1" y1="872.4" x2="409.6" y2="872.4"/>
						<g>
							<polygon class="st3" points="1148,29.1 1114.4,29.1 1097.6,58.2 1114.4,87.2 1148,87.2 1164.8,58.2 							"/>
							<polygon class="st3" points="1131.2,0 1097.6,0 1080.8,29.1 1097.6,58.2 1131.2,58.2 1148,29.1 							"/>
							<polygon class="st3" points="1114.4,29.1 1080.8,29.1 1064.1,58.2 1080.8,87.2 1114.4,87.2 1131.2,58.2 							"/>
							<polygon class="st3" points="1248.7,29.1 1215.2,29.1 1198.4,58.2 1215.2,87.2 1248.7,87.2 1265.5,58.2 							"/>
							<polygon class="st3" points="1231.9,0 1198.3,0 1181.5,29.1 1198.3,58.2 1231.9,58.2 1248.7,29.1 							"/>
							<polygon class="st3" points="1215.2,29.1 1181.6,29.1 1164.8,58.2 1181.6,87.2 1215.2,87.2 1232,58.2 							"/>
							<line class="st3" x1="1131.2" y1="0" x2="1198.3" y2="0"/>
							<line class="st3" x1="1148" y1="87.2" x2="1181.6" y2="87.2"/>
							<line class="st3" x1="1148" y1="29.1" x2="1181.6" y2="29.1"/>
							<polygon class="st3" points="1047.3,29.1 1013.7,29.1 996.9,58.2 1013.7,87.2 1047.3,87.2 1064.1,58.2 							"/>
							<polygon class="st3" points="1030.5,0 996.9,0 980.1,29.1 996.9,58.2 1030.5,58.2 1047.3,29.1 							"/>
							<polygon class="st3" points="1013.7,29.1 980.2,29.1 963.4,58.2 980.2,87.2 1013.7,87.2 1030.5,58.2 							"/>
							<line class="st3" x1="1030.5" y1="0" x2="1097.6" y2="0"/>
							<line class="st3" x1="1047.3" y1="87.2" x2="1080.9" y2="87.2"/>
							<line class="st3" x1="1047.3" y1="29.1" x2="1080.9" y2="29.1"/>
							<polygon class="st3" points="946.6,29.1 913,29.1 896.3,58.2 913,87.2 946.6,87.2 963.4,58.2 							"/>
							<polygon class="st3" points="929.8,0 896.2,0 879.4,29.1 896.2,58.2 929.8,58.2 946.6,29.1 							"/>
							<polygon class="st3" points="913,29.1 879.5,29.1 862.7,58.2 879.5,87.2 913,87.2 929.8,58.2 							"/>
							<line class="st3" x1="929.8" y1="0" x2="996.9" y2="0"/>
							<line class="st3" x1="946.6" y1="87.2" x2="980.2" y2="87.2"/>
							<line class="st3" x1="946.6" y1="29.1" x2="980.2" y2="29.1"/>
							<polygon class="st3" points="845.9,29.1 812.4,29.1 795.6,58.2 812.4,87.2 845.9,87.2 862.7,58.2 							"/>
							<polygon class="st3" points="829.1,0 795.5,0 778.7,29.1 795.5,58.2 829.1,58.2 845.9,29.1 							"/>
							<polygon class="st3" points="812.4,29.1 778.8,29.1 762,58.2 778.8,87.2 812.4,87.2 829.1,58.2 							"/>
							<line class="st3" x1="829.1" y1="0" x2="896.3" y2="0"/>
							<line class="st3" x1="845.9" y1="87.2" x2="879.5" y2="87.2"/>
							<line class="st3" x1="845.9" y1="29.1" x2="879.5" y2="29.1"/>
							<polygon class="st3" points="745.2,29.1 711.7,29.1 694.9,58.2 711.7,87.2 745.2,87.2 762,58.2 							"/>
							<polygon class="st3" points="728.4,0 694.8,0 678,29.1 694.8,58.2 728.4,58.2 745.2,29.1 							"/>
							<polygon class="st3" points="711.7,29.1 678.1,29.1 661.3,58.2 678.1,87.2 711.7,87.2 728.5,58.2 							"/>
							<line class="st3" x1="728.4" y1="0" x2="795.6" y2="0"/>
							<line class="st3" x1="745.2" y1="87.2" x2="778.8" y2="87.2"/>
							<line class="st3" x1="745.2" y1="29.1" x2="778.8" y2="29.1"/>
							<polygon class="st3" points="644.6,29.1 611,29.1 594.2,58.2 611,87.2 644.6,87.2 661.4,58.2 							"/>
							<polygon class="st3" points="627.7,0 594.1,0 577.3,29.1 594.1,58.2 627.7,58.2 644.5,29.1 							"/>
							<polygon class="st3" points="611,29.1 577.4,29.1 560.6,58.2 577.4,87.2 611,87.2 627.8,58.2 							"/>
							<line class="st3" x1="627.7" y1="0" x2="694.9" y2="0"/>
							<line class="st3" x1="644.6" y1="87.2" x2="678.1" y2="87.2"/>
							<line class="st3" x1="644.5" y1="29.1" x2="678.1" y2="29.1"/>
							<polygon class="st3" points="543.9,29.1 510.3,29.1 493.5,58.2 510.3,87.2 543.9,87.2 560.7,58.2 							"/>
							<polygon class="st3" points="527,0 493.4,0 476.7,29.1 493.4,58.2 527,58.2 543.8,29.1 							"/>
							<polygon class="st3" points="510.3,29.1 476.7,29.1 459.9,58.2 476.7,87.2 510.3,87.2 527.1,58.2 							"/>
							<line class="st3" x1="527" y1="0" x2="594.2" y2="0"/>
							<line class="st3" x1="543.9" y1="87.2" x2="577.5" y2="87.2"/>
							<line class="st3" x1="543.8" y1="29.1" x2="577.5" y2="29.1"/>
							<polygon class="st3" points="443.2,29.1 409.6,29.1 392.8,58.2 409.6,87.2 443.2,87.2 460,58.2 							"/>
							<polygon class="st3" points="426.3,0 392.8,0 376,29.1 392.8,58.2 426.3,58.2 443.1,29.1 							"/>
							<polygon class="st3" points="409.6,29.1 376,29.1 359.2,58.2 376,87.2 409.6,87.2 426.4,58.2 							"/>
							<line class="st3" x1="426.3" y1="0" x2="493.5" y2="0"/>
							<line class="st3" x1="443.2" y1="87.2" x2="476.8" y2="87.2"/>
							<line class="st3" x1="443.1" y1="29.1" x2="476.8" y2="29.1"/>
							<polygon class="st3" points="1148,116.3 1114.4,116.3 1097.6,145.4 1114.4,174.5 1148,174.5 1164.8,145.4 							"/>
							<polygon class="st3" points="1131.2,87.2 1097.6,87.2 1080.8,116.3 1097.6,145.4 1131.2,145.4 1148,116.3 							"/>
							<polygon class="st3" points="1114.4,116.3 1080.8,116.3 1064.1,145.4 1080.8,174.5 1114.4,174.5 1131.2,145.4 							"/>
							<polygon class="st3" points="1248.7,116.3 1215.2,116.3 1198.4,145.4 1215.2,174.5 1248.7,174.5 1265.5,145.4 							"/>
							<polygon class="st3" points="1231.9,87.2 1198.3,87.2 1181.5,116.3 1198.3,145.4 1231.9,145.4 1248.7,116.3 							"/>
							<polygon class="st3" points="1215.2,116.3 1181.6,116.3 1164.8,145.4 1181.6,174.5 1215.2,174.5 1232,145.4 							"/>
							<line class="st3" x1="1131.2" y1="87.2" x2="1198.3" y2="87.2"/>
							<line class="st3" x1="1148" y1="174.5" x2="1181.6" y2="174.5"/>
							<line class="st3" x1="1148" y1="116.3" x2="1181.6" y2="116.3"/>
							<polygon class="st3" points="1047.3,116.3 1013.7,116.3 996.9,145.4 1013.7,174.5 1047.3,174.5 1064.1,145.4 							"/>
							<polygon class="st3" points="1030.5,87.2 996.9,87.2 980.1,116.3 996.9,145.4 1030.5,145.4 1047.3,116.3 							"/>
							<polygon class="st3" points="1013.7,116.3 980.2,116.3 963.4,145.4 980.2,174.5 1013.7,174.5 1030.5,145.4 							"/>
							<line class="st3" x1="1030.5" y1="87.2" x2="1097.6" y2="87.2"/>
							<line class="st3" x1="1047.3" y1="174.5" x2="1080.9" y2="174.5"/>
							<line class="st3" x1="1047.3" y1="116.3" x2="1080.9" y2="116.3"/>
							<polygon class="st3" points="946.6,116.3 913,116.3 896.3,145.4 913,174.5 946.6,174.5 963.4,145.4 							"/>
							<polygon class="st3" points="929.8,87.2 896.2,87.2 879.4,116.3 896.2,145.4 929.8,145.4 946.6,116.3 							"/>
							<polygon class="st3" points="913,116.3 879.5,116.3 862.7,145.4 879.5,174.5 913,174.5 929.8,145.4 							"/>
							<line class="st3" x1="929.8" y1="87.2" x2="996.9" y2="87.2"/>
							<line class="st3" x1="946.6" y1="174.5" x2="980.2" y2="174.5"/>
							<line class="st3" x1="946.6" y1="116.3" x2="980.2" y2="116.3"/>
							<polygon class="st3" points="845.9,116.3 812.4,116.3 795.6,145.4 812.4,174.5 845.9,174.5 862.7,145.4 							"/>
							<polygon class="st3" points="829.1,87.2 795.5,87.2 778.7,116.3 795.5,145.4 829.1,145.4 845.9,116.3 							"/>
							<polygon class="st3" points="812.4,116.3 778.8,116.3 762,145.4 778.8,174.5 812.4,174.5 829.1,145.4 							"/>
							<line class="st3" x1="829.1" y1="87.2" x2="896.3" y2="87.2"/>
							<line class="st3" x1="845.9" y1="174.5" x2="879.5" y2="174.5"/>
							<line class="st3" x1="845.9" y1="116.3" x2="879.5" y2="116.3"/>
							<polygon class="st3" points="745.2,116.3 711.7,116.3 694.9,145.4 711.7,174.5 745.2,174.5 762,145.4 							"/>
							<polygon class="st3" points="728.4,87.2 694.8,87.2 678,116.3 694.8,145.4 728.4,145.4 745.2,116.3 							"/>
							<polygon class="st3" points="711.7,116.3 678.1,116.3 661.3,145.4 678.1,174.5 711.7,174.5 728.5,145.4 							"/>
							<line class="st3" x1="728.4" y1="87.2" x2="795.6" y2="87.2"/>
							<line class="st3" x1="745.2" y1="174.5" x2="778.8" y2="174.5"/>
							<line class="st3" x1="745.2" y1="116.3" x2="778.8" y2="116.3"/>
							<polygon class="st3" points="644.6,116.3 611,116.3 594.2,145.4 611,174.5 644.6,174.5 661.4,145.4 							"/>
							<polygon class="st3" points="627.7,87.2 594.1,87.2 577.3,116.3 594.1,145.4 627.7,145.4 644.5,116.3 							"/>
							<polygon class="st3" points="611,116.3 577.4,116.3 560.6,145.4 577.4,174.5 611,174.5 627.8,145.4 							"/>
							<line class="st3" x1="627.7" y1="87.2" x2="694.9" y2="87.2"/>
							<line class="st3" x1="644.6" y1="174.5" x2="678.1" y2="174.5"/>
							<line class="st3" x1="644.5" y1="116.3" x2="678.1" y2="116.3"/>
							<polygon class="st3" points="543.9,116.3 510.3,116.3 493.5,145.4 510.3,174.5 543.9,174.5 560.7,145.4 							"/>
							<polygon class="st3" points="527,87.2 493.4,87.2 476.7,116.3 493.4,145.4 527,145.4 543.8,116.3 							"/>
							<polygon class="st3" points="510.3,116.3 476.7,116.3 459.9,145.4 476.7,174.5 510.3,174.5 527.1,145.4 							"/>
							<line class="st3" x1="527" y1="87.2" x2="594.2" y2="87.2"/>
							<line class="st3" x1="543.9" y1="174.5" x2="577.5" y2="174.5"/>
							<line class="st3" x1="543.8" y1="116.3" x2="577.5" y2="116.3"/>
							<polygon class="st3" points="443.2,116.3 409.6,116.3 392.8,145.4 409.6,174.5 443.2,174.5 460,145.4 							"/>
							<polygon class="st3" points="426.3,87.2 392.8,87.2 376,116.3 392.8,145.4 426.3,145.4 443.1,116.3 							"/>
							<polygon class="st3" points="409.6,116.3 376,116.3 359.2,145.4 376,174.5 409.6,174.5 426.4,145.4 							"/>
							<line class="st3" x1="426.3" y1="87.2" x2="493.5" y2="87.2"/>
							<line class="st3" x1="443.2" y1="174.5" x2="476.8" y2="174.5"/>
							<line class="st3" x1="443.1" y1="116.3" x2="476.8" y2="116.3"/>
							<polygon class="st3" points="1148,203.6 1114.4,203.6 1097.6,232.7 1114.4,261.7 1148,261.7 1164.8,232.7 							"/>
							<polygon class="st3" points="1131.2,174.5 1097.6,174.5 1080.8,203.6 1097.6,232.7 1131.2,232.7 1148,203.6 							"/>
							<polygon class="st3" points="1114.4,203.6 1080.8,203.6 1064.1,232.7 1080.8,261.7 1114.4,261.7 1131.2,232.7 							"/>
							<polygon class="st3" points="1248.7,203.6 1215.2,203.6 1198.4,232.7 1215.2,261.7 1248.7,261.7 1265.5,232.7 							"/>
							<polygon class="st3" points="1231.9,174.5 1198.3,174.5 1181.5,203.6 1198.3,232.7 1231.9,232.7 1248.7,203.6 							"/>
							<polygon class="st3" points="1215.2,203.6 1181.6,203.6 1164.8,232.7 1181.6,261.7 1215.2,261.7 1232,232.7 							"/>
							<line class="st3" x1="1131.2" y1="174.5" x2="1198.3" y2="174.5"/>
							<line class="st3" x1="1148" y1="261.7" x2="1181.6" y2="261.7"/>
							<line class="st3" x1="1148" y1="203.6" x2="1181.6" y2="203.6"/>
							<polygon class="st3" points="1047.3,203.6 1013.7,203.6 996.9,232.7 1013.7,261.7 1047.3,261.7 1064.1,232.7 							"/>
							<polygon class="st3" points="1030.5,174.5 996.9,174.5 980.1,203.6 996.9,232.7 1030.5,232.7 1047.3,203.6 							"/>
							<polygon class="st3" points="1013.7,203.6 980.2,203.6 963.4,232.7 980.2,261.7 1013.7,261.7 1030.5,232.7 							"/>
							<line class="st3" x1="1030.5" y1="174.5" x2="1097.6" y2="174.5"/>
							<line class="st3" x1="1047.3" y1="261.7" x2="1080.9" y2="261.7"/>
							<line class="st3" x1="1047.3" y1="203.6" x2="1080.9" y2="203.6"/>
							<polygon class="st3" points="946.6,203.6 913,203.6 896.3,232.7 913,261.7 946.6,261.7 963.4,232.7 							"/>
							<polygon class="st3" points="929.8,174.5 896.2,174.5 879.4,203.6 896.2,232.7 929.8,232.7 946.6,203.6 							"/>
							<polygon class="st3" points="913,203.6 879.5,203.6 862.7,232.7 879.5,261.7 913,261.7 929.8,232.7 							"/>
							<line class="st3" x1="929.8" y1="174.5" x2="996.9" y2="174.5"/>
							<line class="st3" x1="946.6" y1="261.7" x2="980.2" y2="261.7"/>
							<line class="st3" x1="946.6" y1="203.6" x2="980.2" y2="203.6"/>
							<polygon class="st3" points="845.9,203.6 812.4,203.6 795.6,232.7 812.4,261.7 845.9,261.7 862.7,232.7 							"/>
							<polygon class="st3" points="829.1,174.5 795.5,174.5 778.7,203.6 795.5,232.7 829.1,232.7 845.9,203.6 							"/>
							<polygon class="st3" points="812.4,203.6 778.8,203.6 762,232.7 778.8,261.7 812.4,261.7 829.1,232.7 							"/>
							<line class="st3" x1="829.1" y1="174.5" x2="896.3" y2="174.5"/>
							<line class="st3" x1="845.9" y1="261.7" x2="879.5" y2="261.7"/>
							<line class="st3" x1="845.9" y1="203.6" x2="879.5" y2="203.6"/>
							<polygon class="st3" points="745.2,203.6 711.7,203.6 694.9,232.7 711.7,261.7 745.2,261.7 762,232.7 							"/>
							<polygon class="st3" points="728.4,174.5 694.8,174.5 678,203.6 694.8,232.7 728.4,232.7 745.2,203.6 							"/>
							<polygon class="st3" points="711.7,203.6 678.1,203.6 661.3,232.7 678.1,261.7 711.7,261.7 728.5,232.7 							"/>
							<line class="st3" x1="728.4" y1="174.5" x2="795.6" y2="174.5"/>
							<line class="st3" x1="745.2" y1="261.7" x2="778.8" y2="261.7"/>
							<line class="st3" x1="745.2" y1="203.6" x2="778.8" y2="203.6"/>
							<polygon class="st3" points="644.6,203.6 611,203.6 594.2,232.7 611,261.7 644.6,261.7 661.4,232.7 							"/>
							<polygon class="st3" points="627.7,174.5 594.1,174.5 577.3,203.6 594.1,232.7 627.7,232.7 644.5,203.6 							"/>
							<polygon class="st3" points="611,203.6 577.4,203.6 560.6,232.7 577.4,261.7 611,261.7 627.8,232.7 							"/>
							<line class="st3" x1="627.7" y1="174.5" x2="694.9" y2="174.5"/>
							<line class="st3" x1="644.6" y1="261.7" x2="678.1" y2="261.7"/>
							<line class="st3" x1="644.5" y1="203.6" x2="678.1" y2="203.6"/>
							<polygon class="st3" points="543.9,203.6 510.3,203.6 493.5,232.7 510.3,261.7 543.9,261.7 560.7,232.7 							"/>
							<polygon class="st3" points="527,174.5 493.4,174.5 476.7,203.6 493.4,232.7 527,232.7 543.8,203.6 							"/>
							<polygon class="st3" points="510.3,203.6 476.7,203.6 459.9,232.7 476.7,261.7 510.3,261.7 527.1,232.7 							"/>
							<line class="st3" x1="527" y1="174.5" x2="594.2" y2="174.5"/>
							<line class="st3" x1="543.9" y1="261.7" x2="577.5" y2="261.7"/>
							<line class="st3" x1="543.8" y1="203.6" x2="577.5" y2="203.6"/>
							<polygon class="st3" points="443.2,203.6 409.6,203.6 392.8,232.7 409.6,261.7 443.2,261.7 460,232.7 							"/>
							<polygon class="st3" points="426.3,174.5 392.8,174.5 376,203.6 392.8,232.7 426.3,232.7 443.1,203.6 							"/>
							<polygon class="st3" points="409.6,203.6 376,203.6 359.2,232.7 376,261.7 409.6,261.7 426.4,232.7 							"/>
							<line class="st3" x1="426.3" y1="174.5" x2="493.5" y2="174.5"/>
							<line class="st3" x1="443.2" y1="261.7" x2="476.8" y2="261.7"/>
							<line class="st3" x1="443.1" y1="203.6" x2="476.8" y2="203.6"/>
							<polygon class="st3" points="1148,290.8 1114.4,290.8 1097.6,319.9 1114.4,349 1148,349 1164.8,319.9 							"/>
							<polygon class="st3" points="1131.2,261.7 1097.6,261.7 1080.8,290.8 1097.6,319.9 1131.2,319.9 1148,290.8 							"/>
							<polygon class="st3" points="1114.4,290.8 1080.8,290.8 1064.1,319.9 1080.8,349 1114.4,349 1131.2,319.9 							"/>
							<polygon class="st3" points="1248.7,290.8 1215.2,290.8 1198.4,319.9 1215.2,349 1248.7,349 1265.5,319.9 							"/>
							<polygon class="st3" points="1231.9,261.7 1198.3,261.7 1181.5,290.8 1198.3,319.9 1231.9,319.9 1248.7,290.8 							"/>
							<polygon class="st3" points="1215.2,290.8 1181.6,290.8 1164.8,319.9 1181.6,349 1215.2,349 1232,319.9 							"/>
							<line class="st3" x1="1131.2" y1="261.7" x2="1198.3" y2="261.7"/>
							<line class="st3" x1="1148" y1="349" x2="1181.6" y2="349"/>
							<line class="st3" x1="1148" y1="290.8" x2="1181.6" y2="290.8"/>
							<polygon class="st3" points="1047.3,290.8 1013.7,290.8 996.9,319.9 1013.7,349 1047.3,349 1064.1,319.9 							"/>
							<polygon class="st3" points="1030.5,261.7 996.9,261.7 980.1,290.8 996.9,319.9 1030.5,319.9 1047.3,290.8 							"/>
							<polygon class="st3" points="1013.7,290.8 980.2,290.8 963.4,319.9 980.2,349 1013.7,349 1030.5,319.9 							"/>
							<line class="st3" x1="1030.5" y1="261.7" x2="1097.6" y2="261.7"/>
							<line class="st3" x1="1047.3" y1="349" x2="1080.9" y2="349"/>
							<line class="st3" x1="1047.3" y1="290.8" x2="1080.9" y2="290.8"/>
							<polygon class="st3" points="946.6,290.8 913,290.8 896.3,319.9 913,349 946.6,349 963.4,319.9 							"/>
							<polygon class="st3" points="929.8,261.7 896.2,261.7 879.4,290.8 896.2,319.9 929.8,319.9 946.6,290.8 							"/>
							<polygon class="st3" points="913,290.8 879.5,290.8 862.7,319.9 879.5,349 913,349 929.8,319.9 							"/>
							<line class="st3" x1="929.8" y1="261.7" x2="996.9" y2="261.7"/>
							<line class="st3" x1="946.6" y1="349" x2="980.2" y2="349"/>
							<line class="st3" x1="946.6" y1="290.8" x2="980.2" y2="290.8"/>
							<polygon class="st3" points="845.9,290.8 812.4,290.8 795.6,319.9 812.4,349 845.9,349 862.7,319.9 							"/>
							<polygon class="st3" points="829.1,261.7 795.5,261.7 778.7,290.8 795.5,319.9 829.1,319.9 845.9,290.8 							"/>
							<polygon class="st3" points="812.4,290.8 778.8,290.8 762,319.9 778.8,349 812.4,349 829.1,319.9 							"/>
							<line class="st3" x1="829.1" y1="261.7" x2="896.3" y2="261.7"/>
							<line class="st3" x1="845.9" y1="349" x2="879.5" y2="349"/>
							<line class="st3" x1="845.9" y1="290.8" x2="879.5" y2="290.8"/>
							<polygon class="st3" points="745.2,290.8 711.7,290.8 694.9,319.9 711.7,349 745.2,349 762,319.9 							"/>
							<polygon class="st3" points="728.4,261.7 694.8,261.7 678,290.8 694.8,319.9 728.4,319.9 745.2,290.8 							"/>
							<polygon class="st3" points="711.7,290.8 678.1,290.8 661.3,319.9 678.1,349 711.7,349 728.5,319.9 							"/>
							<line class="st3" x1="728.4" y1="261.7" x2="795.6" y2="261.7"/>
							<line class="st3" x1="745.2" y1="349" x2="778.8" y2="349"/>
							<line class="st3" x1="745.2" y1="290.8" x2="778.8" y2="290.8"/>
							<polygon class="st3" points="644.6,290.8 611,290.8 594.2,319.9 611,349 644.6,349 661.4,319.9 							"/>
							<polygon class="st3" points="627.7,261.7 594.1,261.7 577.3,290.8 594.1,319.9 627.7,319.9 644.5,290.8 							"/>
							<polygon class="st3" points="611,290.8 577.4,290.8 560.6,319.9 577.4,349 611,349 627.8,319.9 							"/>
							<line class="st3" x1="627.7" y1="261.7" x2="694.9" y2="261.7"/>
							<line class="st3" x1="644.6" y1="349" x2="678.1" y2="349"/>
							<line class="st3" x1="644.5" y1="290.8" x2="678.1" y2="290.8"/>
							<polygon class="st3" points="543.9,290.8 510.3,290.8 493.5,319.9 510.3,349 543.9,349 560.7,319.9 							"/>
							<polygon class="st3" points="527,261.7 493.4,261.7 476.7,290.8 493.4,319.9 527,319.9 543.8,290.8 							"/>
							<polygon class="st3" points="510.3,290.8 476.7,290.8 459.9,319.9 476.7,349 510.3,349 527.1,319.9 							"/>
							<line class="st3" x1="527" y1="261.7" x2="594.2" y2="261.7"/>
							<line class="st3" x1="543.9" y1="349" x2="577.5" y2="349"/>
							<line class="st3" x1="543.8" y1="290.8" x2="577.5" y2="290.8"/>
							<polygon class="st3" points="443.2,290.8 409.6,290.8 392.8,319.9 409.6,349 443.2,349 460,319.9 							"/>
							<polygon class="st3" points="426.3,261.7 392.8,261.7 376,290.8 392.8,319.9 426.3,319.9 443.1,290.8 							"/>
							<polygon class="st3" points="409.6,290.8 376,290.8 359.2,319.9 376,349 409.6,349 426.4,319.9 							"/>
							<line class="st3" x1="426.3" y1="261.7" x2="493.5" y2="261.7"/>
							<line class="st3" x1="443.2" y1="349" x2="476.8" y2="349"/>
							<line class="st3" x1="443.1" y1="290.8" x2="476.8" y2="290.8"/>
							<polygon class="st3" points="1148,378.1 1114.4,378.1 1097.6,407.1 1114.4,436.2 1148,436.2 1164.8,407.1 							"/>
							<polygon class="st3" points="1131.2,349 1097.6,349 1080.8,378.1 1097.6,407.1 1131.2,407.1 1148,378.1 							"/>
							<polygon class="st3" points="1114.4,378.1 1080.8,378.1 1064.1,407.1 1080.8,436.2 1114.4,436.2 1131.2,407.1 							"/>
							<polygon class="st3" points="1248.7,378.1 1215.2,378.1 1198.4,407.1 1215.2,436.2 1248.7,436.2 1265.5,407.1 							"/>
							<polygon class="st3" points="1231.9,349 1198.3,349 1181.5,378.1 1198.3,407.1 1231.9,407.1 1248.7,378.1 							"/>
							<polygon class="st3" points="1215.2,378.1 1181.6,378.1 1164.8,407.1 1181.6,436.2 1215.2,436.2 1232,407.1 							"/>
							<line class="st3" x1="1131.2" y1="349" x2="1198.3" y2="349"/>
							<line class="st3" x1="1148" y1="436.2" x2="1181.6" y2="436.2"/>
							<line class="st3" x1="1148" y1="378.1" x2="1181.6" y2="378.1"/>
							<polygon class="st3" points="1047.3,378.1 1013.7,378.1 996.9,407.1 1013.7,436.2 1047.3,436.2 1064.1,407.1 							"/>
							<polygon class="st3" points="1030.5,349 996.9,349 980.1,378.1 996.9,407.1 1030.5,407.1 1047.3,378.1 							"/>
							<polygon class="st3" points="1013.7,378.1 980.2,378.1 963.4,407.1 980.2,436.2 1013.7,436.2 1030.5,407.1 							"/>
							<line class="st3" x1="1030.5" y1="349" x2="1097.6" y2="349"/>
							<line class="st3" x1="1047.3" y1="436.2" x2="1080.9" y2="436.2"/>
							<line class="st3" x1="1047.3" y1="378.1" x2="1080.9" y2="378.1"/>
							<polygon class="st3" points="946.6,378.1 913,378.1 896.3,407.1 913,436.2 946.6,436.2 963.4,407.1 							"/>
							<polygon class="st3" points="929.8,349 896.2,349 879.4,378.1 896.2,407.1 929.8,407.1 946.6,378.1 							"/>
							<polygon class="st3" points="913,378.1 879.5,378.1 862.7,407.1 879.5,436.2 913,436.2 929.8,407.1 							"/>
							<line class="st3" x1="929.8" y1="349" x2="996.9" y2="349"/>
							<line class="st3" x1="946.6" y1="436.2" x2="980.2" y2="436.2"/>
							<line class="st3" x1="946.6" y1="378.1" x2="980.2" y2="378.1"/>
							<polygon class="st3" points="845.9,378.1 812.4,378.1 795.6,407.1 812.4,436.2 845.9,436.2 862.7,407.1 							"/>
							<polygon class="st3" points="829.1,349 795.5,349 778.7,378.1 795.5,407.1 829.1,407.1 845.9,378.1 							"/>
							<polygon class="st3" points="812.4,378.1 778.8,378.1 762,407.1 778.8,436.2 812.4,436.2 829.1,407.1 							"/>
							<line class="st3" x1="829.1" y1="349" x2="896.3" y2="349"/>
							<line class="st3" x1="845.9" y1="436.2" x2="879.5" y2="436.2"/>
							<line class="st3" x1="845.9" y1="378.1" x2="879.5" y2="378.1"/>
							<polygon class="st3" points="745.2,378.1 711.7,378.1 694.9,407.1 711.7,436.2 745.2,436.2 762,407.1 							"/>
							<polygon class="st3" points="728.4,349 694.8,349 678,378.1 694.8,407.1 728.4,407.1 745.2,378.1 							"/>
							<polygon class="st3" points="711.7,378.1 678.1,378.1 661.3,407.1 678.1,436.2 711.7,436.2 728.5,407.1 							"/>
							<line class="st3" x1="728.4" y1="349" x2="795.6" y2="349"/>
							<line class="st3" x1="745.2" y1="436.2" x2="778.8" y2="436.2"/>
							<line class="st3" x1="745.2" y1="378.1" x2="778.8" y2="378.1"/>
							<polygon class="st3" points="644.6,378.1 611,378.1 594.2,407.1 611,436.2 644.6,436.2 661.4,407.1 							"/>
							<polygon class="st3" points="627.7,349 594.1,349 577.3,378.1 594.1,407.1 627.7,407.1 644.5,378.1 							"/>
							<polygon class="st3" points="611,378.1 577.4,378.1 560.6,407.1 577.4,436.2 611,436.2 627.8,407.1 							"/>
							<line class="st3" x1="627.7" y1="349" x2="694.9" y2="349"/>
							<line class="st3" x1="644.6" y1="436.2" x2="678.1" y2="436.2"/>
							<line class="st3" x1="644.5" y1="378.1" x2="678.1" y2="378.1"/>
							<polygon class="st3" points="543.9,378.1 510.3,378.1 493.5,407.1 510.3,436.2 543.9,436.2 560.7,407.1 							"/>
							<polygon class="st3" points="527,349 493.4,349 476.7,378.1 493.4,407.1 527,407.1 543.8,378.1 							"/>
							<polygon class="st3" points="510.3,378.1 476.7,378.1 459.9,407.1 476.7,436.2 510.3,436.2 527.1,407.1 							"/>
							<line class="st3" x1="527" y1="349" x2="594.2" y2="349"/>
							<line class="st3" x1="543.9" y1="436.2" x2="577.5" y2="436.2"/>
							<line class="st3" x1="543.8" y1="378.1" x2="577.5" y2="378.1"/>
							<polygon class="st3" points="443.2,378.1 409.6,378.1 392.8,407.1 409.6,436.2 443.2,436.2 460,407.1 							"/>
							<polygon class="st3" points="426.3,349 392.8,349 376,378.1 392.8,407.1 426.3,407.1 443.1,378.1 							"/>
							<polygon class="st3" points="409.6,378.1 376,378.1 359.2,407.1 376,436.2 409.6,436.2 426.4,407.1 							"/>
							<line class="st3" x1="426.3" y1="349" x2="493.5" y2="349"/>
							<line class="st3" x1="443.2" y1="436.2" x2="476.8" y2="436.2"/>
							<line class="st3" x1="443.1" y1="378.1" x2="476.8" y2="378.1"/>
							<polygon class="st3" points="1148,465.3 1114.4,465.3 1097.6,494.4 1114.4,523.5 1148,523.5 1164.8,494.4 							"/>
							<polygon class="st3" points="1131.2,436.2 1097.6,436.2 1080.8,465.3 1097.6,494.4 1131.2,494.4 1148,465.3 							"/>
							<polygon class="st3" points="1114.4,465.3 1080.8,465.3 1064.1,494.4 1080.8,523.5 1114.4,523.5 1131.2,494.4 							"/>
							<polygon class="st3" points="1248.7,465.3 1215.2,465.3 1198.4,494.4 1215.2,523.5 1248.7,523.5 1265.5,494.4 							"/>
							<polygon class="st3" points="1231.9,436.2 1198.3,436.2 1181.5,465.3 1198.3,494.4 1231.9,494.4 1248.7,465.3 							"/>
							<polygon class="st3" points="1215.2,465.3 1181.6,465.3 1164.8,494.4 1181.6,523.5 1215.2,523.5 1232,494.4 							"/>
							<line class="st3" x1="1131.2" y1="436.2" x2="1198.3" y2="436.2"/>
							<line class="st3" x1="1148" y1="523.5" x2="1181.6" y2="523.5"/>
							<line class="st3" x1="1148" y1="465.3" x2="1181.6" y2="465.3"/>
							<polygon class="st3" points="1047.3,465.3 1013.7,465.3 996.9,494.4 1013.7,523.5 1047.3,523.5 1064.1,494.4 							"/>
							<polygon class="st3" points="1030.5,436.2 996.9,436.2 980.1,465.3 996.9,494.4 1030.5,494.4 1047.3,465.3 							"/>
							<polygon class="st3" points="1013.7,465.3 980.2,465.3 963.4,494.4 980.2,523.5 1013.7,523.5 1030.5,494.4 							"/>
							<line class="st3" x1="1030.5" y1="436.2" x2="1097.6" y2="436.2"/>
							<line class="st3" x1="1047.3" y1="523.5" x2="1080.9" y2="523.5"/>
							<line class="st3" x1="1047.3" y1="465.3" x2="1080.9" y2="465.3"/>
							<polygon class="st3" points="946.6,465.3 913,465.3 896.3,494.4 913,523.5 946.6,523.5 963.4,494.4 							"/>
							<polygon class="st3" points="929.8,436.2 896.2,436.2 879.4,465.3 896.2,494.4 929.8,494.4 946.6,465.3 							"/>
							<polygon class="st3" points="913,465.3 879.5,465.3 862.7,494.4 879.5,523.5 913,523.5 929.8,494.4 							"/>
							<line class="st3" x1="929.8" y1="436.2" x2="996.9" y2="436.2"/>
							<line class="st3" x1="946.6" y1="523.5" x2="980.2" y2="523.5"/>
							<line class="st3" x1="946.6" y1="465.3" x2="980.2" y2="465.3"/>
							<polygon class="st3" points="845.9,465.3 812.4,465.3 795.6,494.4 812.4,523.5 845.9,523.5 862.7,494.4 							"/>
							<polygon class="st3" points="829.1,436.2 795.5,436.2 778.7,465.3 795.5,494.4 829.1,494.4 845.9,465.3 							"/>
							<polygon class="st3" points="812.4,465.3 778.8,465.3 762,494.4 778.8,523.5 812.4,523.5 829.1,494.4 							"/>
							<line class="st3" x1="829.1" y1="436.2" x2="896.3" y2="436.2"/>
							<line class="st3" x1="845.9" y1="523.5" x2="879.5" y2="523.5"/>
							<line class="st3" x1="845.9" y1="465.3" x2="879.5" y2="465.3"/>
							<polygon class="st3" points="745.2,465.3 711.7,465.3 694.9,494.4 711.7,523.5 745.2,523.5 762,494.4 							"/>
							<polygon class="st3" points="728.4,436.2 694.8,436.2 678,465.3 694.8,494.4 728.4,494.4 745.2,465.3 							"/>
							<polygon class="st3" points="711.7,465.3 678.1,465.3 661.3,494.4 678.1,523.5 711.7,523.5 728.5,494.4 							"/>
							<line class="st3" x1="728.4" y1="436.2" x2="795.6" y2="436.2"/>
							<line class="st3" x1="745.2" y1="523.5" x2="778.8" y2="523.5"/>
							<line class="st3" x1="745.2" y1="465.3" x2="778.8" y2="465.3"/>
							<polygon class="st3" points="644.6,465.3 611,465.3 594.2,494.4 611,523.5 644.6,523.5 661.4,494.4 							"/>
							<polygon class="st3" points="627.7,436.2 594.1,436.2 577.3,465.3 594.1,494.4 627.7,494.4 644.5,465.3 							"/>
							<polygon class="st3" points="611,465.3 577.4,465.3 560.6,494.4 577.4,523.5 611,523.5 627.8,494.4 							"/>
							<line class="st3" x1="627.7" y1="436.2" x2="694.9" y2="436.2"/>
							<line class="st3" x1="644.6" y1="523.5" x2="678.1" y2="523.5"/>
							<line class="st3" x1="644.5" y1="465.3" x2="678.1" y2="465.3"/>
							<polygon class="st3" points="543.9,465.3 510.3,465.3 493.5,494.4 510.3,523.5 543.9,523.5 560.7,494.4 							"/>
							<polygon class="st3" points="527,436.2 493.4,436.2 476.7,465.3 493.4,494.4 527,494.4 543.8,465.3 							"/>
							<polygon class="st3" points="510.3,465.3 476.7,465.3 459.9,494.4 476.7,523.5 510.3,523.5 527.1,494.4 							"/>
							<line class="st3" x1="527" y1="436.2" x2="594.2" y2="436.2"/>
							<line class="st3" x1="543.9" y1="523.5" x2="577.5" y2="523.5"/>
							<line class="st3" x1="543.8" y1="465.3" x2="577.5" y2="465.3"/>
							<polygon class="st3" points="443.2,465.3 409.6,465.3 392.8,494.4 409.6,523.5 443.2,523.5 460,494.4 							"/>
							<polygon class="st3" points="426.3,436.2 392.8,436.2 376,465.3 392.8,494.4 426.3,494.4 443.1,465.3 							"/>
							<polygon class="st3" points="409.6,465.3 376,465.3 359.2,494.4 376,523.5 409.6,523.5 426.4,494.4 							"/>
							<line class="st3" x1="426.3" y1="436.2" x2="493.5" y2="436.2"/>
							<line class="st3" x1="443.2" y1="523.5" x2="476.8" y2="523.5"/>
							<line class="st3" x1="443.1" y1="465.3" x2="476.8" y2="465.3"/>
							<polygon class="st3" points="1148,552.5 1114.4,552.5 1097.6,581.6 1114.4,610.7 1148,610.7 1164.8,581.6 							"/>
							<polygon class="st3" points="1131.2,523.5 1097.6,523.5 1080.8,552.5 1097.6,581.6 1131.2,581.6 1148,552.5 							"/>
							<polygon class="st3" points="1114.4,552.5 1080.8,552.5 1064.1,581.6 1080.8,610.7 1114.4,610.7 1131.2,581.6 							"/>
							<polygon class="st3" points="1248.7,552.5 1215.2,552.5 1198.4,581.6 1215.2,610.7 1248.7,610.7 1265.5,581.6 							"/>
							<polygon class="st3" points="1231.9,523.5 1198.3,523.5 1181.5,552.5 1198.3,581.6 1231.9,581.6 1248.7,552.5 							"/>
							<polygon class="st3" points="1215.2,552.5 1181.6,552.5 1164.8,581.6 1181.6,610.7 1215.2,610.7 1232,581.6 							"/>
							<line class="st3" x1="1131.2" y1="523.5" x2="1198.3" y2="523.5"/>
							<line class="st3" x1="1148" y1="610.7" x2="1181.6" y2="610.7"/>
							<line class="st3" x1="1148" y1="552.5" x2="1181.6" y2="552.5"/>
							<polygon class="st3" points="1047.3,552.5 1013.7,552.5 996.9,581.6 1013.7,610.7 1047.3,610.7 1064.1,581.6 							"/>
							<polygon class="st3" points="1030.5,523.5 996.9,523.5 980.1,552.5 996.9,581.6 1030.5,581.6 1047.3,552.5 							"/>
							<polygon class="st3" points="1013.7,552.5 980.2,552.5 963.4,581.6 980.2,610.7 1013.7,610.7 1030.5,581.6 							"/>
							<line class="st3" x1="1030.5" y1="523.5" x2="1097.6" y2="523.5"/>
							<line class="st3" x1="1047.3" y1="610.7" x2="1080.9" y2="610.7"/>
							<line class="st3" x1="1047.3" y1="552.5" x2="1080.9" y2="552.5"/>
							<polygon class="st3" points="946.6,552.5 913,552.5 896.3,581.6 913,610.7 946.6,610.7 963.4,581.6 							"/>
							<polygon class="st3" points="929.8,523.5 896.2,523.5 879.4,552.5 896.2,581.6 929.8,581.6 946.6,552.5 							"/>
							<polygon class="st3" points="913,552.5 879.5,552.5 862.7,581.6 879.5,610.7 913,610.7 929.8,581.6 							"/>
							<line class="st3" x1="929.8" y1="523.5" x2="996.9" y2="523.5"/>
							<line class="st3" x1="946.6" y1="610.7" x2="980.2" y2="610.7"/>
							<line class="st3" x1="946.6" y1="552.5" x2="980.2" y2="552.5"/>
							<polygon class="st3" points="845.9,552.5 812.4,552.5 795.6,581.6 812.4,610.7 845.9,610.7 862.7,581.6 							"/>
							<polygon class="st3" points="829.1,523.5 795.5,523.5 778.7,552.5 795.5,581.6 829.1,581.6 845.9,552.5 							"/>
							<polygon class="st3" points="812.4,552.5 778.8,552.5 762,581.6 778.8,610.7 812.4,610.7 829.1,581.6 							"/>
							<line class="st3" x1="829.1" y1="523.5" x2="896.3" y2="523.5"/>
							<line class="st3" x1="845.9" y1="610.7" x2="879.5" y2="610.7"/>
							<line class="st3" x1="845.9" y1="552.5" x2="879.5" y2="552.5"/>
							<polygon class="st3" points="745.2,552.5 711.7,552.5 694.9,581.6 711.7,610.7 745.2,610.7 762,581.6 							"/>
							<polygon class="st3" points="728.4,523.5 694.8,523.5 678,552.5 694.8,581.6 728.4,581.6 745.2,552.5 							"/>
							<polygon class="st3" points="711.7,552.5 678.1,552.5 661.3,581.6 678.1,610.7 711.7,610.7 728.5,581.6 							"/>
							<line class="st3" x1="728.4" y1="523.5" x2="795.6" y2="523.5"/>
							<line class="st3" x1="745.2" y1="610.7" x2="778.8" y2="610.7"/>
							<line class="st3" x1="745.2" y1="552.5" x2="778.8" y2="552.5"/>
							<polygon class="st3" points="644.6,552.5 611,552.5 594.2,581.6 611,610.7 644.6,610.7 661.4,581.6 							"/>
							<polygon class="st3" points="627.7,523.5 594.1,523.5 577.3,552.5 594.1,581.6 627.7,581.6 644.5,552.5 							"/>
							<polygon class="st3" points="611,552.5 577.4,552.5 560.6,581.6 577.4,610.7 611,610.7 627.8,581.6 							"/>
							<line class="st3" x1="627.7" y1="523.5" x2="694.9" y2="523.5"/>
							<line class="st3" x1="644.6" y1="610.7" x2="678.1" y2="610.7"/>
							<line class="st3" x1="644.5" y1="552.5" x2="678.1" y2="552.5"/>
							<polygon class="st3" points="543.9,552.5 510.3,552.5 493.5,581.6 510.3,610.7 543.9,610.7 560.7,581.6 							"/>
							<polygon class="st3" points="527,523.5 493.4,523.5 476.7,552.5 493.4,581.6 527,581.6 543.8,552.5 							"/>
							<polygon class="st3" points="510.3,552.5 476.7,552.5 459.9,581.6 476.7,610.7 510.3,610.7 527.1,581.6 							"/>
							<line class="st3" x1="527" y1="523.5" x2="594.2" y2="523.5"/>
							<line class="st3" x1="543.9" y1="610.7" x2="577.5" y2="610.7"/>
							<line class="st3" x1="543.8" y1="552.5" x2="577.5" y2="552.5"/>
							<polygon class="st3" points="443.2,552.5 409.6,552.5 392.8,581.6 409.6,610.7 443.2,610.7 460,581.6 							"/>
							<polygon class="st3" points="426.3,523.5 392.8,523.5 376,552.5 392.8,581.6 426.3,581.6 443.1,552.5 							"/>
							<polygon class="st3" points="409.6,552.5 376,552.5 359.2,581.6 376,610.7 409.6,610.7 426.4,581.6 							"/>
							<line class="st3" x1="426.3" y1="523.5" x2="493.5" y2="523.5"/>
							<line class="st3" x1="443.2" y1="610.7" x2="476.8" y2="610.7"/>
							<line class="st3" x1="443.1" y1="552.5" x2="476.8" y2="552.5"/>
							<polygon class="st3" points="1148,639.8 1114.4,639.8 1097.6,668.9 1114.4,698 1148,698 1164.8,668.9 							"/>
							<polygon class="st3" points="1131.2,610.7 1097.6,610.7 1080.8,639.8 1097.6,668.9 1131.2,668.9 1148,639.8 							"/>
							<polygon class="st3" points="1114.4,639.8 1080.8,639.8 1064.1,668.9 1080.8,698 1114.4,698 1131.2,668.9 							"/>
							<polygon class="st3" points="1248.7,639.8 1215.2,639.8 1198.4,668.9 1215.2,698 1248.7,698 1265.5,668.9 							"/>
							<polygon class="st3" points="1231.9,610.7 1198.3,610.7 1181.5,639.8 1198.3,668.9 1231.9,668.9 1248.7,639.8 							"/>
							<polygon class="st3" points="1215.2,639.8 1181.6,639.8 1164.8,668.9 1181.6,698 1215.2,698 1232,668.9 							"/>
							<line class="st3" x1="1131.2" y1="610.7" x2="1198.3" y2="610.7"/>
							<line class="st3" x1="1148" y1="698" x2="1181.6" y2="698"/>
							<line class="st3" x1="1148" y1="639.8" x2="1181.6" y2="639.8"/>
							<polygon class="st3" points="1047.3,639.8 1013.7,639.8 996.9,668.9 1013.7,698 1047.3,698 1064.1,668.9 							"/>
							<polygon class="st3" points="1030.5,610.7 996.9,610.7 980.1,639.8 996.9,668.9 1030.5,668.9 1047.3,639.8 							"/>
							<polygon class="st3" points="1013.7,639.8 980.2,639.8 963.4,668.9 980.2,698 1013.7,698 1030.5,668.9 							"/>
							<line class="st3" x1="1030.5" y1="610.7" x2="1097.6" y2="610.7"/>
							<line class="st3" x1="1047.3" y1="698" x2="1080.9" y2="698"/>
							<line class="st3" x1="1047.3" y1="639.8" x2="1080.9" y2="639.8"/>
							<polygon class="st3" points="946.6,639.8 913,639.8 896.3,668.9 913,698 946.6,698 963.4,668.9 							"/>
							<polygon class="st3" points="929.8,610.7 896.2,610.7 879.4,639.8 896.2,668.9 929.8,668.9 946.6,639.8 							"/>
							<polygon class="st3" points="913,639.8 879.5,639.8 862.7,668.9 879.5,698 913,698 929.8,668.9 							"/>
							<line class="st3" x1="929.8" y1="610.7" x2="996.9" y2="610.7"/>
							<line class="st3" x1="946.6" y1="698" x2="980.2" y2="698"/>
							<line class="st3" x1="946.6" y1="639.8" x2="980.2" y2="639.8"/>
							<polygon class="st3" points="845.9,639.8 812.4,639.8 795.6,668.9 812.4,698 845.9,698 862.7,668.9 							"/>
							<polygon class="st3" points="829.1,610.7 795.5,610.7 778.7,639.8 795.5,668.9 829.1,668.9 845.9,639.8 							"/>
							<polygon class="st3" points="812.4,639.8 778.8,639.8 762,668.9 778.8,698 812.4,698 829.1,668.9 							"/>
							<line class="st3" x1="829.1" y1="610.7" x2="896.3" y2="610.7"/>
							<line class="st3" x1="845.9" y1="698" x2="879.5" y2="698"/>
							<line class="st3" x1="845.9" y1="639.8" x2="879.5" y2="639.8"/>
							<polygon class="st3" points="745.2,639.8 711.7,639.8 694.9,668.9 711.7,698 745.2,698 762,668.9 							"/>
							<polygon class="st3" points="728.4,610.7 694.8,610.7 678,639.8 694.8,668.9 728.4,668.9 745.2,639.8 							"/>
							<polygon class="st3" points="711.7,639.8 678.1,639.8 661.3,668.9 678.1,698 711.7,698 728.5,668.9 							"/>
							<line class="st3" x1="728.4" y1="610.7" x2="795.6" y2="610.7"/>
							<line class="st3" x1="745.2" y1="698" x2="778.8" y2="698"/>
							<line class="st3" x1="745.2" y1="639.8" x2="778.8" y2="639.8"/>
							<polygon class="st3" points="644.6,639.8 611,639.8 594.2,668.9 611,698 644.6,698 661.4,668.9 							"/>
							<polygon class="st3" points="627.7,610.7 594.1,610.7 577.3,639.8 594.1,668.9 627.7,668.9 644.5,639.8 							"/>
							<polygon class="st3" points="611,639.8 577.4,639.8 560.6,668.9 577.4,698 611,698 627.8,668.9 							"/>
							<line class="st3" x1="627.7" y1="610.7" x2="694.9" y2="610.7"/>
							<line class="st3" x1="644.6" y1="698" x2="678.1" y2="698"/>
							<line class="st3" x1="644.5" y1="639.8" x2="678.1" y2="639.8"/>
							<polygon class="st3" points="543.9,639.8 510.3,639.8 493.5,668.9 510.3,698 543.9,698 560.7,668.9 							"/>
							<polygon class="st3" points="527,610.7 493.4,610.7 476.7,639.8 493.4,668.9 527,668.9 543.8,639.8 							"/>
							<polygon class="st3" points="510.3,639.8 476.7,639.8 459.9,668.9 476.7,698 510.3,698 527.1,668.9 							"/>
							<line class="st3" x1="527" y1="610.7" x2="594.2" y2="610.7"/>
							<line class="st3" x1="543.9" y1="698" x2="577.5" y2="698"/>
							<line class="st3" x1="543.8" y1="639.8" x2="577.5" y2="639.8"/>
							<polygon class="st3" points="443.2,639.8 409.6,639.8 392.8,668.9 409.6,698 443.2,698 460,668.9 							"/>
							<polygon class="st3" points="426.3,610.7 392.8,610.7 376,639.8 392.8,668.9 426.3,668.9 443.1,639.8 							"/>
							<polygon class="st3" points="409.6,639.8 376,639.8 359.2,668.9 376,698 409.6,698 426.4,668.9 							"/>
							<line class="st3" x1="426.3" y1="610.7" x2="493.5" y2="610.7"/>
							<line class="st3" x1="443.2" y1="698" x2="476.8" y2="698"/>
							<line class="st3" x1="443.1" y1="639.8" x2="476.8" y2="639.8"/>
							<polygon class="st3" points="1148,727 1114.4,727 1097.6,756.1 1114.4,785.2 1148,785.2 1164.8,756.1 							"/>
							<polygon class="st3" points="1131.2,698 1097.6,698 1080.8,727 1097.6,756.1 1131.2,756.1 1148,727 							"/>
							<polygon class="st3" points="1114.4,727 1080.8,727 1064.1,756.1 1080.8,785.2 1114.4,785.2 1131.2,756.1 							"/>
							<polygon class="st3" points="1248.7,727 1215.2,727 1198.4,756.1 1215.2,785.2 1248.7,785.2 1265.5,756.1 							"/>
							<polygon class="st3" points="1231.9,698 1198.3,698 1181.5,727 1198.3,756.1 1231.9,756.1 1248.7,727 							"/>
							<polygon class="st3" points="1215.2,727 1181.6,727 1164.8,756.1 1181.6,785.2 1215.2,785.2 1232,756.1 							"/>
							<line class="st3" x1="1131.2" y1="698" x2="1198.3" y2="698"/>
							<line class="st3" x1="1148" y1="785.2" x2="1181.6" y2="785.2"/>
							<line class="st3" x1="1148" y1="727" x2="1181.6" y2="727"/>
							<polygon class="st3" points="1047.3,727 1013.7,727 996.9,756.1 1013.7,785.2 1047.3,785.2 1064.1,756.1 							"/>
							<polygon class="st3" points="1030.5,698 996.9,698 980.1,727 996.9,756.1 1030.5,756.1 1047.3,727 							"/>
							<polygon class="st3" points="1013.7,727 980.2,727 963.4,756.1 980.2,785.2 1013.7,785.2 1030.5,756.1 							"/>
							<line class="st3" x1="1030.5" y1="698" x2="1097.6" y2="698"/>
							<line class="st3" x1="1047.3" y1="785.2" x2="1080.9" y2="785.2"/>
							<line class="st3" x1="1047.3" y1="727" x2="1080.9" y2="727"/>
							<polygon class="st3" points="946.6,727 913,727 896.3,756.1 913,785.2 946.6,785.2 963.4,756.1 							"/>
							<polygon class="st3" points="929.8,698 896.2,698 879.4,727 896.2,756.1 929.8,756.1 946.6,727 							"/>
							<polygon class="st3" points="913,727 879.5,727 862.7,756.1 879.5,785.2 913,785.2 929.8,756.1 							"/>
							<line class="st3" x1="929.8" y1="698" x2="996.9" y2="698"/>
							<line class="st3" x1="946.6" y1="785.2" x2="980.2" y2="785.2"/>
							<line class="st3" x1="946.6" y1="727" x2="980.2" y2="727"/>
							<polygon class="st3" points="845.9,727 812.4,727 795.6,756.1 812.4,785.2 845.9,785.2 862.7,756.1 							"/>
							<polygon class="st3" points="829.1,698 795.5,698 778.7,727 795.5,756.1 829.1,756.1 845.9,727 							"/>
							<polygon class="st3" points="812.4,727 778.8,727 762,756.1 778.8,785.2 812.4,785.2 829.1,756.1 							"/>
							<line class="st3" x1="829.1" y1="698" x2="896.3" y2="698"/>
							<line class="st3" x1="845.9" y1="785.2" x2="879.5" y2="785.2"/>
							<line class="st3" x1="845.9" y1="727" x2="879.5" y2="727"/>
							<polygon class="st3" points="745.2,727 711.7,727 694.9,756.1 711.7,785.2 745.2,785.2 762,756.1 							"/>
							<polygon class="st3" points="728.4,698 694.8,698 678,727 694.8,756.1 728.4,756.1 745.2,727 							"/>
							<polygon class="st3" points="711.7,727 678.1,727 661.3,756.1 678.1,785.2 711.7,785.2 728.5,756.1 							"/>
							<line class="st3" x1="728.4" y1="698" x2="795.6" y2="698"/>
							<line class="st3" x1="745.2" y1="785.2" x2="778.8" y2="785.2"/>
							<line class="st3" x1="745.2" y1="727" x2="778.8" y2="727"/>
							<polygon class="st3" points="644.6,727 611,727 594.2,756.1 611,785.2 644.6,785.2 661.4,756.1 							"/>
							<polygon class="st3" points="627.7,698 594.1,698 577.3,727 594.1,756.1 627.7,756.1 644.5,727 							"/>
							<polygon class="st3" points="611,727 577.4,727 560.6,756.1 577.4,785.2 611,785.2 627.8,756.1 							"/>
							<line class="st3" x1="627.7" y1="698" x2="694.9" y2="698"/>
							<line class="st3" x1="644.6" y1="785.2" x2="678.1" y2="785.2"/>
							<line class="st3" x1="644.5" y1="727" x2="678.1" y2="727"/>
							<polygon class="st3" points="543.9,727 510.3,727 493.5,756.1 510.3,785.2 543.9,785.2 560.7,756.1 							"/>
							<polygon class="st3" points="527,698 493.4,698 476.7,727 493.4,756.1 527,756.1 543.8,727 							"/>
							<polygon class="st3" points="510.3,727 476.7,727 459.9,756.1 476.7,785.2 510.3,785.2 527.1,756.1 							"/>
							<line class="st3" x1="527" y1="698" x2="594.2" y2="698"/>
							<line class="st3" x1="543.9" y1="785.2" x2="577.5" y2="785.2"/>
							<line class="st3" x1="543.8" y1="727" x2="577.5" y2="727"/>
							<polygon class="st3" points="443.2,727 409.6,727 392.8,756.1 409.6,785.2 443.2,785.2 460,756.1 							"/>
							<polygon class="st3" points="426.3,698 392.8,698 376,727 392.8,756.1 426.3,756.1 443.1,727 							"/>
							<polygon class="st3" points="409.6,727 376,727 359.2,756.1 376,785.2 409.6,785.2 426.4,756.1 							"/>
							<line class="st3" x1="426.3" y1="698" x2="493.5" y2="698"/>
							<line class="st3" x1="443.2" y1="785.2" x2="476.8" y2="785.2"/>
							<line class="st3" x1="443.1" y1="727" x2="476.8" y2="727"/>
							<polygon class="st3" points="1148,814.3 1114.4,814.3 1097.6,843.4 1114.4,872.4 1148,872.4 1164.8,843.4 							"/>
							<polygon class="st3" points="1131.2,785.2 1097.6,785.2 1080.8,814.3 1097.6,843.4 1131.2,843.4 1148,814.3 							"/>
							<polygon class="st3" points="1114.4,814.3 1080.8,814.3 1064.1,843.4 1080.8,872.4 1114.4,872.4 1131.2,843.4 							"/>
							<polygon class="st3" points="1248.7,814.3 1215.2,814.3 1198.4,843.4 1215.2,872.4 1248.7,872.4 1265.5,843.4 							"/>
							<polygon class="st3" points="1231.9,785.2 1198.3,785.2 1181.5,814.3 1198.3,843.4 1231.9,843.4 1248.7,814.3 							"/>
							<polygon class="st3" points="1215.2,814.3 1181.6,814.3 1164.8,843.4 1181.6,872.4 1215.2,872.4 1232,843.4 							"/>
							<line class="st3" x1="1131.2" y1="785.2" x2="1198.3" y2="785.2"/>
							<line class="st3" x1="1148" y1="814.3" x2="1181.6" y2="814.3"/>
							<polygon class="st3" points="1047.3,814.3 1013.7,814.3 996.9,843.4 1013.7,872.4 1047.3,872.4 1064.1,843.4 							"/>
							<polygon class="st3" points="1030.5,785.2 996.9,785.2 980.1,814.3 996.9,843.4 1030.5,843.4 1047.3,814.3 							"/>
							<polygon class="st3" points="1013.7,814.3 980.2,814.3 963.4,843.4 980.2,872.4 1013.7,872.4 1030.5,843.4 							"/>
							<line class="st3" x1="1030.5" y1="785.2" x2="1097.6" y2="785.2"/>
							<line class="st3" x1="1047.3" y1="814.3" x2="1080.9" y2="814.3"/>
							<polygon class="st3" points="946.6,814.3 913,814.3 896.3,843.4 913,872.4 946.6,872.4 963.4,843.4 							"/>
							<polygon class="st3" points="929.8,785.2 896.2,785.2 879.4,814.3 896.2,843.4 929.8,843.4 946.6,814.3 							"/>
							<polygon class="st3" points="913,814.3 879.5,814.3 862.7,843.4 879.5,872.4 913,872.4 929.8,843.4 							"/>
							<line class="st3" x1="929.8" y1="785.2" x2="996.9" y2="785.2"/>
							<line class="st3" x1="946.6" y1="814.3" x2="980.2" y2="814.3"/>
							<polygon class="st3" points="845.9,814.3 812.4,814.3 795.6,843.4 812.4,872.4 845.9,872.4 862.7,843.4 							"/>
							<polygon class="st3" points="829.1,785.2 795.5,785.2 778.7,814.3 795.5,843.4 829.1,843.4 845.9,814.3 							"/>
							<polygon class="st3" points="812.4,814.3 778.8,814.3 762,843.4 778.8,872.4 812.4,872.4 829.1,843.4 							"/>
							<line class="st3" x1="829.1" y1="785.2" x2="896.3" y2="785.2"/>
							<line class="st3" x1="845.9" y1="814.3" x2="879.5" y2="814.3"/>
							<polygon class="st3" points="745.2,814.3 711.7,814.3 694.9,843.4 711.7,872.4 745.2,872.4 762,843.4 							"/>
							<polygon class="st3" points="728.4,785.2 694.8,785.2 678,814.3 694.8,843.4 728.4,843.4 745.2,814.3 							"/>
							<polygon class="st3" points="711.7,814.3 678.1,814.3 661.3,843.4 678.1,872.4 711.7,872.4 728.5,843.4 							"/>
							<line class="st3" x1="728.4" y1="785.2" x2="795.6" y2="785.2"/>
							<line class="st3" x1="745.2" y1="814.3" x2="778.8" y2="814.3"/>
							<polygon class="st3" points="644.6,814.3 611,814.3 594.2,843.4 611,872.4 644.6,872.4 661.4,843.4 							"/>
							<polygon class="st3" points="627.7,785.2 594.1,785.2 577.3,814.3 594.1,843.4 627.7,843.4 644.5,814.3 							"/>
							<polygon class="st3" points="611,814.3 577.4,814.3 560.6,843.4 577.4,872.4 611,872.4 627.8,843.4 							"/>
							<line class="st3" x1="627.7" y1="785.2" x2="694.9" y2="785.2"/>
							<line class="st3" x1="644.5" y1="814.3" x2="678.1" y2="814.3"/>
							<polygon class="st3" points="543.9,814.3 510.3,814.3 493.5,843.4 510.3,872.4 543.9,872.4 560.7,843.4 							"/>
							<polygon class="st3" points="527,785.2 493.4,785.2 476.7,814.3 493.4,843.4 527,843.4 543.8,814.3 							"/>
							<polygon class="st3" points="510.3,814.3 476.7,814.3 459.9,843.4 476.7,872.4 510.3,872.4 527.1,843.4 							"/>
							<line class="st3" x1="527" y1="785.2" x2="594.2" y2="785.2"/>
							<line class="st3" x1="543.8" y1="814.3" x2="577.5" y2="814.3"/>
							<polygon class="st3" points="443.2,814.3 409.6,814.3 392.8,843.4 409.6,872.4 443.2,872.4 460,843.4 							"/>
							<polygon class="st3" points="426.3,785.2 392.8,785.2 376,814.3 392.8,843.4 426.3,843.4 443.1,814.3 							"/>
							<polygon class="st3" points="409.6,814.3 376,814.3 359.2,843.4 376,872.4 409.6,872.4 426.4,843.4 							"/>
							<line class="st3" x1="426.3" y1="785.2" x2="493.5" y2="785.2"/>
							<line class="st3" x1="443.1" y1="814.3" x2="476.8" y2="814.3"/>
							<line class="st3" x1="1164.7" y1="872.4" x2="1164.7" y2="785.2"/>
						</g>
					</g>
				</g>
			</mask>
			
				<radialGradient id="SVGID_4_" cx="792.1232" cy="357.0127" r="509.9008" gradientTransform="matrix(1 0 0 1 0 10.0409)" gradientUnits="userSpaceOnUse">
				<stop  offset="0" style="stop-color:#49C7EF"/>
				<stop  offset="2.387941e-03" style="stop-color:#49C6EE"/>
				<stop  offset="0.1709" style="stop-color:#3E99C6"/>
				<stop  offset="0.3406" style="stop-color:#3474A5"/>
				<stop  offset="0.509" style="stop-color:#2D578B"/>
				<stop  offset="0.6759" style="stop-color:#284379"/>
				<stop  offset="0.8404" style="stop-color:#25366E"/>
				<stop  offset="1" style="stop-color:#24326A"/>
			</radialGradient>
			<rect x="-1.6" class="st4" width="1200" height="800"/>
			<g>
				
					<image style="overflow:visible;opacity:0.55;" width="1279" height="1280" xlink:href="DFC10420.png"  transform="matrix(1 0 0 1 -481.4314 -240.0638)">
				</image>
				<g>
					
						<rect x="-243.2" y="5.6" transform="matrix(0.7071 -0.7071 0.7071 0.7071 -238.5445 224.1027)" class="st0" width="788.8" height="788.8"/>
					<linearGradient id="SVGID_5_" gradientUnits="userSpaceOnUse" x1="151.2437" y1="958.1406" x2="151.2437" y2="-158.1406">
						<stop  offset="0" style="stop-color:#24326A"/>
						<stop  offset="0.2737" style="stop-color:#49C7EF"/>
						<stop  offset="0.4358" style="stop-color:#24326A"/>
						<stop  offset="0.5922" style="stop-color:#49C7EF"/>
						<stop  offset="0.7263" style="stop-color:#24326A"/>
						<stop  offset="0.8492" style="stop-color:#49C7EF"/>
						<stop  offset="1" style="stop-color:#24326A"/>
					</linearGradient>
					
						<rect x="-243.2" y="5.6" transform="matrix(0.7071 -0.7071 0.7071 0.7071 -238.5445 224.1027)" class="st5" width="788.8" height="788.8"/>
				</g>
			</g>
			<g>
				
					<image style="overflow:visible;opacity:0.55;" width="1279" height="1280" xlink:href="DFC10427.png"  transform="matrix(1 0 0 1 -501.4314 -240.0638)">
				</image>
				<g>
					
						<rect x="-263.3" y="5.6" transform="matrix(0.7071 -0.7071 0.7071 0.7071 -244.4476 209.8513)" class="st0" width="788.8" height="788.8"/>
					<linearGradient id="SVGID_6_" gradientUnits="userSpaceOnUse" x1="131.0891" y1="958.1406" x2="131.0891" y2="-158.1406">
						<stop  offset="0" style="stop-color:#24326A"/>
						<stop  offset="0.2737" style="stop-color:#49C7EF"/>
						<stop  offset="0.4358" style="stop-color:#24326A"/>
						<stop  offset="0.5922" style="stop-color:#49C7EF"/>
						<stop  offset="0.7263" style="stop-color:#24326A"/>
						<stop  offset="0.8492" style="stop-color:#49C7EF"/>
						<stop  offset="1" style="stop-color:#24326A"/>
					</linearGradient>
					
						<rect x="-263.3" y="5.6" transform="matrix(0.7071 -0.7071 0.7071 0.7071 -244.4476 209.8513)" class="st6" width="788.8" height="788.8"/>
				</g>
			</g>
			<linearGradient id="SVGID_7_" gradientUnits="userSpaceOnUse" x1="-169.2273" y1="400" x2="442.6818" y2="400">
				<stop  offset="0" style="stop-color:#24326A"/>
				<stop  offset="0.2737" style="stop-color:#49C7EF"/>
				<stop  offset="0.4358" style="stop-color:#24326A"/>
				<stop  offset="0.5922" style="stop-color:#49C7EF"/>
				<stop  offset="0.7263" style="stop-color:#24326A"/>
				<stop  offset="0.8492" style="stop-color:#49C7EF"/>
				<stop  offset="1" style="stop-color:#24326A"/>
			</linearGradient>
			<polygon class="st7" points="356.4,383.4 356.4,417.9 442.2,417.9 442.2,472.9 356.4,472.9 356.4,640 210.4,640 20,317.5 20,640 
				-82.9,640 -82.9,472.9 -168.7,472.9 -168.7,417.9 -82.9,417.9 -82.9,383.4 -168.7,383.4 -168.7,328.4 -82.9,328.4 -82.9,160 
				47.1,160 253.5,509.5 253.5,160 356.4,160 356.4,328.4 442.2,328.4 442.2,383.4 			"/>
		</g>
	</g>
</g>
</svg>
