<?xml version="1.0" encoding="utf-8"?>
<!-- Generator: Adobe Illustrator 24.0.1, SVG Export Plug-In . SVG Version: 6.00 Build 0)  -->
<svg version="1.1" id="Layer_1" xmlns="http://www.w3.org/2000/svg" xmlns:xlink="http://www.w3.org/1999/xlink" x="0px" y="0px"
	 width="16px" height="10px" viewBox="0 0 16 10" style="enable-background:new 0 0 16 10;" xml:space="preserve">
<style type="text/css">
	.st0{fill:#FFFFFF;}
	.st1{fill:none;}
</style>
<g id="Page-1">
	<g id="ic-arrow-drop-down" transform="translate(-4.000000, -7.000000)">
		<g>
			<g>
				<path class="st0" d="M19.7,9l-1.9-1.9C17.7,7,17.6,7,17.6,7c-0.1,0-0.2,0-0.2,0.1l-5.1,5.4L7.2,7.1C7.1,7,7,7,6.9,7
					C6.9,7,6.8,7,6.7,7.1L4.8,9c-0.1,0.1-0.1,0.3,0,0.4l7.2,7.5c0.1,0.1,0.1,0.1,0.2,0.1c0.1,0,0.2,0,0.2-0.1l7.2-7.5
					C19.8,9.3,19.8,9.1,19.7,9z"/>
			</g>
		</g>
		<polygon id="Rectangle_4407" class="st1" points="0,0 24,0 24,24 0,24 		"/>
	</g>
</g>
</svg>
