<?xml version="1.0" encoding="utf-8"?>
<!-- Generator: Adobe Illustrator 24.0.1, SVG Export Plug-In . SVG Version: 6.00 Build 0)  -->
<svg version="1.1" id="Layer_1" xmlns="http://www.w3.org/2000/svg" xmlns:xlink="http://www.w3.org/1999/xlink" x="0px" y="0px"
	 width="24px" height="24px" viewBox="0 0 24 24" style="enable-background:new 0 0 24 24;" xml:space="preserve">
<style type="text/css">
	.st0{fill:#FFFFFF;}
	.st1{fill:none;}
</style>
<title>ic-arrow-down</title>
<desc>Created with Sketch.</desc>
<g id="ic-arrow-down">
	<g id="ic-arrow-drop-down">
		<path class="st0" d="M19.4,9l-1.9-1.9C17.5,7,17.4,7,17.3,7c-0.1,0-0.2,0-0.2,0.1L12,12.5L6.9,7.1C6.9,7,6.8,7,6.7,7
			C6.6,7,6.5,7,6.5,7.1L4.6,9c-0.1,0.1-0.1,0.3,0,0.4l7.2,7.5C11.8,17,11.9,17,12,17s0.2,0,0.2-0.1l7.2-7.5
			C19.5,9.3,19.5,9.1,19.4,9z"/>
		<polygon id="Rectangle_4407" class="st1" points="0,0 24,0 24,24 0,24 		"/>
	</g>
</g>
</svg>
