<?xml version="1.0" encoding="utf-8"?>
<!-- Generator: Adobe Illustrator 24.0.1, SVG Export Plug-In . SVG Version: 6.00 Build 0)  -->
<svg version="1.1" id="Layer_1" xmlns="http://www.w3.org/2000/svg" xmlns:xlink="http://www.w3.org/1999/xlink" x="0px" y="0px"
	 width="24px" height="24px" viewBox="0 0 24 24" style="enable-background:new 0 0 24 24;" xml:space="preserve">
<style type="text/css">
	.st0{opacity:0.7;}
	.st1{fill:#FFFFFF;}
	.st2{fill:none;}
</style>
<g id="ic_chevron_right" transform="rotate(-90 12 12)" class="st0">
	<g>
		<g>
			<path class="st1" d="M12.2,16.9l7.2-7.5c0.1-0.1,0.1-0.3,0-0.4l-1.9-1.9C17.5,7,17.4,7,17.3,7c-0.1,0-0.2,0-0.2,0.1L12,12.5
				L6.9,7.1C6.9,7,6.8,7,6.7,7C6.6,7,6.5,7,6.5,7.1L4.6,9C4.5,9,4.5,9.1,4.5,9.2c0,0.1,0,0.2,0.1,0.2l7.2,7.5C11.8,17,11.9,17,12,17
				C12.1,17,12.2,17,12.2,16.9z"/>
		</g>
	</g>
	<path id="Rectangle_4407" class="st2" d="M0,0h24v24H0V0z"/>
</g>
</svg>
