<?xml version="1.0" encoding="utf-8"?>
<!-- Generator: Adobe Illustrator 24.0.1, SVG Export Plug-In . SVG Version: 6.00 Build 0)  -->
<svg version="1.1" id="Layer_1" xmlns="http://www.w3.org/2000/svg" xmlns:xlink="http://www.w3.org/1999/xlink" x="0px" y="0px"
	 width="50px" height="50px" viewBox="0 0 50 50" style="enable-background:new 0 0 50 50;" xml:space="preserve">
<style type="text/css">
	.st0{fill:#FFFFFF;}
	.st1{fill:none;}
</style>
<g id="ic_chevron_left" transform="rotate(-90 26 26)">
	<g>
		<g>
			<path class="st0" d="M27.3,32.2l10.5-11c0.2-0.2,0.2-0.5,0-0.6l-2.7-2.8c-0.1-0.1-0.2-0.1-0.3-0.1c-0.1,0-0.2,0.1-0.3,0.1
				L27,25.7l-7.5-7.9c-0.1-0.1-0.2-0.1-0.3-0.1c-0.1,0-0.2,0-0.3,0.1l-2.7,2.8C16,20.6,16,20.8,16,20.9c0,0.1,0,0.2,0.1,0.3l10.5,11
				c0.1,0.1,0.2,0.1,0.3,0.1C27.1,32.3,27.2,32.3,27.3,32.2z"/>
		</g>
	</g>
	<path id="Rectangle_4407" class="st1" d="M2,0h50v50H2V0z"/>
</g>
</svg>
