<?xml version="1.0" encoding="utf-8"?>
<!-- Generator: Adobe Illustrator 24.0.1, SVG Export Plug-In . SVG Version: 6.00 Build 0)  -->
<svg version="1.1" id="Layer_1" xmlns="http://www.w3.org/2000/svg" xmlns:xlink="http://www.w3.org/1999/xlink" x="0px" y="0px"
	 width="24px" height="24px" viewBox="0 0 24 24" style="enable-background:new 0 0 24 24;" xml:space="preserve">
<style type="text/css">
	.st0{opacity:0.7;}
	.st1{fill:#FFFFFF;}
	.st2{fill:none;}
</style>
<g id="ic_arrow_drop_up" transform="rotate(180 12 12)" class="st0">
	<g>
		<g>
			<path class="st1" d="M4.6,9.4l7.2,7.5c0.1,0.1,0.3,0.1,0.5,0l7.2-7.5c0.1-0.1,0.1-0.3,0-0.4l-1.9-1.9C17.5,7,17.4,7,17.3,7
				c-0.1,0-0.2,0-0.2,0.1L12,12.5L6.9,7.1C6.9,7,6.8,7,6.7,7c0,0,0,0,0,0C6.6,7,6.5,7,6.5,7.1L4.6,9C4.5,9.1,4.5,9.3,4.6,9.4z"/>
		</g>
	</g>
	<path id="Rectangle_4407" class="st2" d="M0,0h24v24H0V0z"/>
</g>
</svg>
