<?xml version="1.0" encoding="utf-8"?>
<!-- Generator: Adobe Illustrator 24.0.1, SVG Export Plug-In . SVG Version: 6.00 Build 0)  -->
<svg version="1.1" id="ic-add_label" xmlns="http://www.w3.org/2000/svg" xmlns:xlink="http://www.w3.org/1999/xlink" x="0px"
	 y="0px" width="24px" height="24px" viewBox="0 0 24 24" style="enable-background:new 0 0 24 24;" xml:space="preserve">
<style type="text/css">
	.st0{fill:#707070;}
</style>
<path class="st0" d="M12.3,0.4V6h5.6L12.3,0.4z"/>
<path class="st0" d="M9.9,17.6c0-4.3,3.5-7.8,7.8-7.8c0.2,0,0.5,0,0.7,0V7.4h-6.7c-0.4,0-0.7-0.3-0.7-0.7V0H0.7C0.3,0,0,0.3,0,0.7
	v22.6C0,23.7,0.3,24,0.7,24h12.5C11.2,22.6,9.9,20.3,9.9,17.6z"/>
<path class="st0" d="M19.5,16.9h-1.2v-1.2c0-0.4-0.3-0.7-0.7-0.7s-0.7,0.3-0.7,0.7v1.2h-1.2c-0.4,0-0.7,0.3-0.7,0.7s0.3,0.7,0.7,0.7
	h1.2v1.2c0,0.4,0.3,0.7,0.7,0.7s0.7-0.3,0.7-0.7v-1.2h1.2c0.4,0,0.7-0.3,0.7-0.7S19.9,16.9,19.5,16.9z"/>
<path class="st0" d="M17.6,11.3c-3.5,0-6.4,2.8-6.4,6.4s2.8,6.4,6.4,6.4s6.4-2.8,6.4-6.4S21.2,11.3,17.6,11.3z M17.6,22.6
	c-2.7,0-4.9-2.2-4.9-4.9s2.2-4.9,4.9-4.9s4.9,2.2,4.9,4.9S20.4,22.6,17.6,22.6z"/>
</svg>
