<?xml version="1.0" encoding="utf-8"?>
<!-- Generator: Adobe Illustrator 24.0.1, SVG Export Plug-In . SVG Version: 6.00 Build 0)  -->
<svg version="1.1" id="Layer_1" xmlns="http://www.w3.org/2000/svg" xmlns:xlink="http://www.w3.org/1999/xlink" x="0px" y="0px"
	 width="26px" height="26px" viewBox="0 0 26 26" style="enable-background:new 0 0 26 26;" xml:space="preserve">
<style type="text/css">
	.st0{fill:#FFFFFF;}
</style>
<g id="Address-Book-Send_1_">
	<path class="st0" d="M19.9,2H7.5C6,2,4.8,3.2,4.8,4.8v1.4H3.4v2.8h1.4v2.8H3.4v2.7h1.4v2.7H3.4v2.8h1.4v1.4C4.8,22.8,6,24,7.5,24
		h12.4c1.5,0,2.8-1.2,2.8-2.8V4.8C22.6,3.2,21.4,2,19.9,2L19.9,2z M13.7,7.5c1.5,0,2.8,1.2,2.8,2.7S15.2,13,13.7,13
		s-2.8-1.2-2.8-2.8S12.2,7.5,13.7,7.5z M18.5,17.1H8.9v-1.4c0-1,0.7-1.8,1.8-2.2c1.8-0.7,4.3-0.7,6.1,0c1.1,0.4,1.8,1.3,1.8,2.2
		V17.1z"/>
</g>
</svg>
