<?xml version="1.0" encoding="utf-8"?>
<!-- Generator: Adobe Illustrator 24.0.1, SVG Export Plug-In . SVG Version: 6.00 Build 0)  -->
<svg version="1.1" id="Layer_1" xmlns="http://www.w3.org/2000/svg" xmlns:xlink="http://www.w3.org/1999/xlink" x="0px" y="0px"
	 width="24px" height="24px" viewBox="0 0 24 24" style="enable-background:new 0 0 24 24;" xml:space="preserve">
<style type="text/css">
	.st0{fill:#FFFFFF;}
	.st1{fill:none;}
</style>
<g id="Artboard">
	<g id="ic-arrow-right">
		<g id="ic_chevron_right" transform="translate(12.000000, 12.000000) rotate(-90.000000) translate(-12.000000, -12.000000) ">
			<g>
				<g>
					<path class="st0" d="M12,11.5l5.1,5.4c0.1,0.1,0.1,0.1,0.2,0.1c0.1,0,0.2,0,0.2-0.1l1.9-1.9c0.1-0.1,0.1-0.3,0-0.4l-7.2-7.5
						C12.2,7,12.1,7,12,7c-0.1,0-0.2,0-0.2,0.1l-7.2,7.5c-0.1,0.1-0.1,0.1-0.1,0.2c0,0.1,0,0.2,0.1,0.2l1.9,1.9
						C6.5,17,6.6,17,6.7,17c0.1,0,0.2,0,0.2-0.1L12,11.5z"/>
				</g>
			</g>
			<polygon id="Rectangle_4407" class="st1" points="0,0 24,0 24,24 0,24 			"/>
		</g>
	</g>
</g>
</svg>
