<?xml version="1.0" encoding="utf-8"?>
<!-- Generator: Adobe Illustrator 24.0.1, SVG Export Plug-In . SVG Version: 6.00 Build 0)  -->
<svg version="1.1" id="Layer_1" xmlns="http://www.w3.org/2000/svg" xmlns:xlink="http://www.w3.org/1999/xlink" x="0px" y="0px"
	 width="30px" height="22px" viewBox="0 0 30 22" style="enable-background:new 0 0 30 22;" xml:space="preserve">
<style type="text/css">
	.st0{fill:#3883C8;}
</style>
<g>
	<g>
		<path class="st0" d="M18.3,10.1L18.3,10.1h-4.4V5.7c0-0.4-0.3-0.7-0.7-0.7h-0.6c-0.4,0-0.7,0.3-0.7,0.7v4.4H7.7
			c-0.4,0-0.7,0.3-0.7,0.7v0.6c0,0.4,0.3,0.7,0.7,0.7h4.4v4.4c0,0.4,0.3,0.6,0.7,0.6h0.6c0.4,0,0.7-0.3,0.7-0.6v-4.4h4.4
			c0.4,0,0.7-0.3,0.7-0.7v-0.6C19,10.4,18.7,10.1,18.3,10.1z"/>
	</g>
</g>
</svg>
