<?xml version="1.0" encoding="utf-8"?>
<!-- Generator: Adobe Illustrator 24.0.1, SVG Export Plug-In . SVG Version: 6.00 Build 0)  -->
<svg version="1.1" id="Layer_1" xmlns="http://www.w3.org/2000/svg" xmlns:xlink="http://www.w3.org/1999/xlink" x="0px" y="0px"
	 width="50px" height="40px" viewBox="0 0 50 40" style="enable-background:new 0 0 50 40;" xml:space="preserve">
<style type="text/css">
	.st0{fill:#FFFFFF;}
</style>
<g id="Address-Book_1_">
	<path class="st0" d="M27.9,9H15.5c-1.5,0-2.8,1.2-2.8,2.8v1.4h-1.4v2.8h1.4v2.7h-1.4v2.8h1.4v2.8h-1.4v2.8h1.4v1.4
		c0,1.5,1.2,2.8,2.8,2.8h12.4c1.5,0,2.8-1.2,2.8-2.8V11.8C30.6,10.2,29.4,9,27.9,9L27.9,9z M21.7,14.5c1.5,0,2.8,1.2,2.8,2.8
		c0,1.5-1.2,2.7-2.8,2.7s-2.8-1.2-2.8-2.7C18.9,15.7,20.2,14.5,21.7,14.5z M26.5,24.1h-9.6v-1.4c0-1,0.7-1.8,1.8-2.2
		c1.8-0.7,4.3-0.7,6.1,0c1.1,0.4,1.8,1.3,1.8,2.2V24.1z"/>
</g>
</svg>
