<?xml version="1.0" encoding="utf-8"?>
<!-- Generator: Adobe Illustrator 24.0.1, SVG Export Plug-In . SVG Version: 6.00 Build 0)  -->
<svg version="1.1" id="ic_staking_off" shape-rendering="geometricPrecision"
	 xmlns="http://www.w3.org/2000/svg" xmlns:xlink="http://www.w3.org/1999/xlink" x="0px" y="0px" width="24px" height="24px"
	 viewBox="0 0 24 24" style="enable-background:new 0 0 24 24;" xml:space="preserve">
<style type="text/css">
	.st0{fill:#778591;}
	.st1{fill:none;}
</style>
<polygon class="st0" points="15.3,11.8 15.3,12.3 16.5,12.3 16.5,13.1 15.3,13.1 15.3,15.5 13.1,15.5 10.3,10.8 10.3,15.5 8.8,15.5 
	8.8,13.1 7.5,13.1 7.5,12.3 8.8,12.3 8.8,11.8 7.5,11.8 7.5,11 8.8,11 8.8,8.5 10.7,8.5 13.7,13.6 13.7,8.5 15.3,8.5 15.3,11 
	16.5,11 16.5,11.8 "/>
<path class="st0" d="M21.2,12.8c0.4,0,0.8-0.3,0.8-0.8c0-0.3-0.2-0.6-0.4-0.7c-0.1,0-0.2-0.1-0.3-0.1H20v0h0V8.5h1.3
	c0.4,0,0.8-0.3,0.8-0.8c0-0.3-0.2-0.6-0.4-0.7c-0.1,0-0.2-0.1-0.3-0.1H20c0,0,0,0,0,0h0c-0.1-1.1-0.7-2.1-1.7-2.5c0,0,0,0,0,0
	c-0.3-0.2-0.7-0.3-1.1-0.3v0c0,0,0,0,0,0V2.8c0-0.3-0.2-0.6-0.4-0.7C16.6,2,16.4,2,16.3,2c-0.4,0-0.8,0.3-0.8,0.8V4h-2.7v0h0V2.8
	c0-0.3-0.2-0.6-0.4-0.7C12.2,2,12.1,2,12,2c-0.4,0-0.8,0.3-0.8,0.8V4H8.5v0h0V2.8c0-0.3-0.2-0.6-0.4-0.7C7.9,2,7.8,2,7.7,2
	C7.3,2,6.9,2.3,6.9,2.8V4C5.4,4.2,4.2,5.4,4,6.9H2.8C2.4,6.9,2,7.2,2,7.7C2,8,2.2,8.2,2.4,8.4c0.1,0.1,0.2,0.1,0.4,0.1H4
	c0,0.7,0,1.4,0,2.2v0.6H2.8C2.4,11.2,2,11.6,2,12c0,0.3,0.2,0.6,0.4,0.7c0.1,0,0.2,0.1,0.3,0.1H4v0h0v2.7H2.8
	c-0.4,0-0.8,0.3-0.8,0.8c0,0.3,0.2,0.6,0.4,0.7c0.1,0,0.2,0.1,0.3,0.1H4c0,0,0,0,0,0h0c0.1,1.1,0.7,2.1,1.7,2.5c0,0,0,0,0,0
	c0.3,0.2,0.7,0.3,1.1,0.3v0c0,0,0,0,0,0v1.3c0,0.3,0.2,0.6,0.4,0.7C7.4,22,7.6,22,7.7,22c0.4,0,0.8-0.3,0.8-0.8V20h2.7v0h0v1.3
	c0,0.3,0.2,0.6,0.4,0.7c0.1,0,0.2,0.1,0.3,0.1c0.4,0,0.8-0.3,0.8-0.8V20h2.7v0h0v1.3c0,0.3,0.2,0.6,0.4,0.7c0.1,0,0.2,0.1,0.3,0.1
	c0.4,0,0.8-0.3,0.8-0.8V20c1.5-0.1,2.8-1.3,2.9-2.8h1.3c0.4,0,0.8-0.3,0.8-0.8c0-0.3-0.2-0.6-0.4-0.7c-0.1-0.1-0.2-0.1-0.4-0.1H20
	c0-0.7,0-1.4,0-2.2v-0.6H21.2z M6.5,18.3c-0.5-0.3-0.9-0.8-0.9-1.4c0,0,0-6.2,0-9.7c0-0.9,0.7-1.6,1.6-1.6h9.7
	c0.2,0,0.5,0.1,0.7,0.2c0,0,0,0,0,0c0.5,0.3,0.9,0.8,0.9,1.4c0,0,0,6.2,0,9.7c0,0.9-0.7,1.6-1.6,1.6H7.1C6.9,18.4,6.7,18.3,6.5,18.3
	C6.5,18.3,6.5,18.3,6.5,18.3z"/>
<path id="Rectangle_4527" class="st1" d="M0,0h24v24H0V0z"/>
</svg>
