<?xml version="1.0" encoding="utf-8"?>
<!-- Generator: Adobe Illustrator 24.0.1, SVG Export Plug-In . SVG Version: 6.00 Build 0)  -->
<svg version="1.1" id="ic_connect" shape-rendering="geometricPrecision"
	 xmlns="http://www.w3.org/2000/svg" xmlns:xlink="http://www.w3.org/1999/xlink" x="0px" y="0px" width="24px" height="24px"
	 viewBox="0 0 24 24" style="enable-background:new 0 0 24 24;" xml:space="preserve">
<style type="text/css">
	.st0{fill:#FFFFFF;}
	.st1{fill:none;}
</style>
<g id="Group">
	<path class="st0" d="M12,2.8C6.2,2.8,1.5,7.5,1.5,13.3c0,3.1,1.4,5.9,3.6,7.9l1.7-2c-1.6-1.4-2.7-3.6-2.7-5.9C4.1,9,7.7,5.4,12,5.4
		s7.9,3.5,7.9,7.9c0,2.4-1,4.5-2.7,5.9l1.7,2c2.2-1.9,3.6-4.7,3.6-7.9C22.5,7.5,17.8,2.8,12,2.8L12,2.8z"/>
	<path class="st0" d="M12,6.8c-3.6,0-6.6,2.9-6.6,6.6c0,2,0.9,3.7,2.2,4.9l1.7-2C8.5,15.6,8,14.5,8,13.4c0-2.2,1.8-3.9,3.9-3.9
		s3.9,1.8,3.9,3.9c0,1.2-0.5,2.2-1.3,2.9l1.7,2c1.4-1.2,2.2-2.9,2.2-4.9C18.6,9.7,15.6,6.8,12,6.8L12,6.8z"/>
	<path class="st0" d="M12,10.7c-1.4,0-2.6,1.2-2.6,2.6c0,0.8,0.4,1.5,0.9,2l1.7-2l1.7,2c0.5-0.5,0.9-1.2,0.9-2
		C14.6,11.9,13.4,10.7,12,10.7L12,10.7z"/>
</g>
<path id="Rectangle" class="st1" d="M0,0h24v24H0V0z"/>
</svg>
