<?xml version="1.0" encoding="utf-8"?>
<!-- Generator: Adobe Illustrator 24.0.1, SVG Export Plug-In . SVG Version: 6.00 Build 0)  -->
<svg version="1.1" id="Layer_1" xmlns="http://www.w3.org/2000/svg" xmlns:xlink="http://www.w3.org/1999/xlink" x="0px" y="0px"
	 width="24px" height="24px" viewBox="0 0 24 24" style="enable-background:new 0 0 24 24;" xml:space="preserve">
<style type="text/css">
	.st0{fill:#4CAAFF;}
	.st1{fill:none;}
</style>
<g id="check_active" transform="translate(-290 -244)">
	<g>
		<g>
			<path class="st0" d="M311,245h-18c-1.1,0-2,0.9-2,2v18c0,1.1,0.9,2,2,2h18c1.1,0,2-0.9,2-2v-18C313,245.9,312.1,245,311,245z
				 M309.4,252.1l-8.6,8.6c-0.2,0.2-0.5,0.3-0.7,0.3c-0.3,0-0.5-0.1-0.7-0.3l-4.6-4.6c-0.2-0.2-0.2-0.5,0-0.7l0.7-0.7
				c0.2-0.2,0.5-0.2,0.7,0l3.9,3.9l7.9-7.9c0.2-0.2,0.5-0.2,0.7,0l0.7,0.7C309.5,251.5,309.5,251.9,309.4,252.1z"/>
		</g>
	</g>
	<path id="Rectangle_4538" class="st1" d="M290,244h24v24h-24V244z"/>
</g>
</svg>
