<?xml version="1.0" encoding="utf-8"?>
<!-- Generator: Adobe Illustrator 24.0.1, SVG Export Plug-In . SVG Version: 6.00 Build 0)  -->
<svg version="1.1" id="ic_error_sync" shape-rendering="geometricPrecision"
	 xmlns="http://www.w3.org/2000/svg" xmlns:xlink="http://www.w3.org/1999/xlink" x="0px" y="0px" width="24px" height="24px"
	 viewBox="0 0 24 24" style="enable-background:new 0 0 24 24;" xml:space="preserve">
<style type="text/css">
	.st0{fill:#778591;}
	.st1{fill:none;}
</style>
<g id="Group">
	<g id="Group_8887">
		<path id="Path_18905" class="st0" d="M19.9,16.2c0.6-1.1,1-2.4,1-3.7c0-0.3-0.2-0.5-0.5-0.5h-1c-0.3,0-0.5,0.2-0.5,0.5
			c-0.1,0.9-0.3,1.7-0.7,2.5c-0.1,0.2-0.1,0.4,0.1,0.6l0.7,0.7C19.4,16.5,19.8,16.5,19.9,16.2z"/>
		<path id="Path_18906" class="st0" d="M15,18.3c-2.7,1.3-6,0.7-8-1.5C6.7,16.5,6.9,16,7.3,16h1.1C8.8,16,9,15.8,9,15.5v-1
			C9,14.2,8.8,14,8.5,14h-5C3.2,14,3,14.2,3,14.5v5C3,19.8,3.2,20,3.5,20h1C4.8,20,5,19.8,5,19.5v-1.9c2.7,3.4,7.4,4.3,11.2,2.3
			c0.3-0.2,0.3-0.6,0.1-0.8l-0.7-0.7C15.4,18.3,15.2,18.2,15,18.3z"/>
	</g>
	<g id="Group_8888">
		<path id="Path_18907" class="st0" d="M9,5.7c2.7-1.3,6-0.7,8,1.5C17.3,7.5,17.1,8,16.7,8h-1.1C15.2,8,15,8.2,15,8.5v1
			c0,0.3,0.2,0.5,0.5,0.5h5c0.3,0,0.5-0.2,0.5-0.5v-5C21,4.2,20.8,4,20.5,4h-1C19.2,4,19,4.2,19,4.5v1.9C16.3,3,11.6,2,7.8,4.1
			C7.5,4.2,7.5,4.6,7.7,4.9l0.7,0.7C8.6,5.7,8.8,5.8,9,5.7z"/>
		<path id="Path_18908" class="st0" d="M4.1,7.8c-0.6,1.1-1,2.4-1,3.7C3,11.8,3.2,12,3.5,12h1C4.8,12,5,11.8,5,11.5
			C5.1,10.6,5.3,9.8,5.7,9c0.1-0.2,0.1-0.4-0.1-0.6L4.9,7.7C4.6,7.5,4.2,7.5,4.1,7.8z"/>
	</g>
</g>
<g id="Group_1_">
	<path id="Rectangle_4442" class="st0" d="M3.7,4.3l0.7-0.7c0.2-0.2,0.5-0.2,0.7,0l15.3,15.3c0.2,0.2,0.2,0.5,0,0.7l-0.7,0.7
		c-0.2,0.2-0.5,0.2-0.7,0L3.7,5.1C3.5,4.9,3.5,4.5,3.7,4.3z"/>
</g>
<path id="Rectangle_4443" class="st1" d="M0,0h24v24H0V0z"/>
</svg>
