<?xml version="1.0" encoding="utf-8"?>
<!-- Generator: Adobe Illustrator 24.0.1, SVG Export Plug-In . SVG Version: 6.00 Build 0)  -->
<svg version="1.1" id="ic_check" xmlns="http://www.w3.org/2000/svg" xmlns:xlink="http://www.w3.org/1999/xlink" x="0px" y="0px"
	 width="20px" height="20px" viewBox="0 0 20 20" style="enable-background:new 0 0 20 20;" xml:space="preserve">
<style type="text/css">
	.st0{fill:#707070;}
	.st1{fill:none;}
</style>
<g id="Group">
	<path class="st0" d="M18.6,5.7L8.5,15.8C8.3,16,8,16.1,7.7,16.1c-0.3,0-0.6-0.1-0.8-0.3l-5.4-5.4c-0.2-0.2-0.2-0.6,0-0.8l0.8-0.8
		c0.2-0.2,0.6-0.2,0.8,0l4.6,4.6l9.3-9.3c0.2-0.2,0.6-0.2,0.8,0l0.8,0.8C18.8,5.1,18.8,5.5,18.6,5.7z"/>
</g>
<path id="Rectangle_4531" class="st1" d="M0,0h20v20H0V0z"/>
</svg>
