<?xml version="1.0" encoding="utf-8"?>
<!-- Generator: Adobe Illustrator 24.0.1, SVG Export Plug-In . SVG Version: 6.00 Build 0)  -->
<svg version="1.1" id="ic-transaction-staked" xmlns="http://www.w3.org/2000/svg" xmlns:xlink="http://www.w3.org/1999/xlink"
	 x="0px" y="0px" width="24px" height="24px" viewBox="0 0 24 24" style="enable-background:new 0 0 24 24;" xml:space="preserve">
<style type="text/css">
	.st0{fill:#FFFFFF;}
</style>
<g>
	<g>
		<path class="st0" d="M20.7,5.9h-1.5c0.2-0.3,0.3-0.6,0.4-1c0.1-1.2-0.5-2.2-1.5-2.6c-1-0.4-2-0.2-2.8,0.4l-1.8,1.7
			C13.1,4,12.6,3.7,12,3.7c-0.6,0-1.1,0.2-1.4,0.6L8.7,2.7C7.9,2,6.9,1.8,5.9,2.2c-1,0.5-1.6,1.5-1.5,2.6c0,0.4,0.2,0.7,0.4,1H3.3
			C2.6,5.9,2,6.5,2,7.2v2c0,0.4,0.3,0.7,0.7,0.7h18.7c0.4,0,0.7-0.3,0.7-0.7v-2C22,6.5,21.4,5.9,20.7,5.9z M10,5.7v0.2H7
			c-0.8,0-1.5-0.8-1.2-1.6c0.1-0.4,0.4-0.7,0.7-0.9c0.5-0.2,1-0.1,1.4,0.2L10,5.7C10,5.7,10,5.7,10,5.7z M18.3,4.7
			c0,0.7-0.7,1.2-1.3,1.2h-3V5.7c0,0,0,0,0,0c0.5-0.5,1.6-1.4,2.2-2c0.3-0.3,0.8-0.4,1.2-0.3C18,3.5,18.4,4.1,18.3,4.7z"/>
	</g>
</g>
<g>
	<g>
		<polygon class="st0" points="13.3,16.1 13.8,16.1 13.8,16.4 13.3,16.4 13.3,16.6 13.8,16.6 13.8,16.9 13.3,16.9 13.3,17.9 
			12.4,17.9 11.3,16 11.3,17.9 10.7,17.9 10.7,16.9 10.2,16.9 10.2,16.6 10.8,16.6 10.8,16.4 10.2,16.4 10.2,16.1 10.8,16.1 
			10.8,15.1 11.5,15.1 12.7,17.2 12.7,15.1 13.3,15.1 		"/>
		<path class="st0" d="M3.3,10.6v10c0,0.8,0.6,1.4,1.3,1.4h14.8c0.7,0,1.3-0.6,1.3-1.4v-10H3.3z M15.8,15c0.1,0,0.2,0.1,0.2,0.2
			c0,0.1-0.1,0.2-0.2,0.2h-1.4v0.8h1.4c0.1,0,0.2,0.1,0.2,0.2c0,0.1-0.1,0.2-0.2,0.2h-1.4v0.8h1.4c0.1,0,0.2,0.1,0.2,0.2
			c0,0.1-0.1,0.2-0.2,0.2h-0.5v0.5h0.5c0.1,0,0.2,0.1,0.2,0.2c0,0.1-0.1,0.2-0.2,0.2h-0.7c-0.1,0-0.2-0.1-0.2-0.2V18h-0.5v0.3
			c0,0.4-0.3,0.7-0.7,0.7h-0.2v0.5h0.6c0.1,0,0.2,0.1,0.2,0.2v0.7c0,0.1-0.1,0.2-0.2,0.2c-0.1,0-0.2-0.1-0.2-0.2v-0.5h-0.5v0.5
			c0,0.1-0.1,0.2-0.2,0.2c-0.1,0-0.2-0.1-0.2-0.2v-1.4h-0.8v1.4c0,0.1-0.1,0.2-0.2,0.2c-0.1,0-0.2-0.1-0.2-0.2v-1.4H11v1.4
			c0,0.1-0.1,0.2-0.2,0.2c-0.1,0-0.2-0.1-0.2-0.3v-0.5h-0.5v0.5c0,0.1-0.1,0.2-0.2,0.2c-0.1,0-0.2-0.1-0.2-0.2v-0.7
			c0-0.1,0.1-0.2,0.2-0.2h0.7v-0.5h-0.3c-0.4,0-0.7-0.3-0.7-0.7V18H9.2v0.7c0,0.1-0.1,0.2-0.2,0.2H8.2c-0.1,0-0.2-0.1-0.2-0.2
			c0-0.1,0.1-0.2,0.2-0.2h0.5V18H8.2C8.1,18,8,17.8,8,17.7c0-0.1,0.1-0.2,0.2-0.3h1.4v-0.8H8.2c-0.1,0-0.2-0.1-0.2-0.2
			s0.1-0.2,0.2-0.3h1.4v-0.8H8.2c-0.1,0-0.2-0.1-0.2-0.2C8,15.2,8.1,15,8.2,15h0.5v-0.5H8.2c-0.1,0-0.2-0.1-0.2-0.2
			c0-0.1,0.1-0.3,0.2-0.2H9c0.1,0,0.2,0.1,0.2,0.2V15h0.4v-0.3c0-0.4,0.3-0.7,0.7-0.7h0.3v-0.5H9.8c-0.1,0-0.2-0.1-0.2-0.2v-0.7
			c0-0.1,0.1-0.2,0.3-0.2c0.1,0,0.2,0.1,0.2,0.2v0.5h0.5v-0.5c0-0.1,0.1-0.2,0.2-0.2c0.1,0,0.2,0.1,0.2,0.2v1.4h0.8v-1.4
			c0-0.1,0.1-0.2,0.2-0.2c0.1,0,0.2,0.1,0.3,0.2v1.4H13v-1.4c0-0.1,0.1-0.2,0.2-0.2c0.1,0,0.2,0.1,0.2,0.2v0.5H14v-0.5
			c0-0.1,0.1-0.2,0.2-0.2c0.1,0,0.2,0.1,0.2,0.2v0.7c0,0.1-0.1,0.2-0.2,0.2h-0.7v0.4h0.3c0.4,0,0.7,0.3,0.7,0.7V15h0.5v-0.7
			c0-0.1,0.1-0.2,0.2-0.2h0.7c0.1,0,0.2,0.1,0.2,0.2c0,0.1-0.1,0.2-0.2,0.2h-0.5V15H15.8z"/>
	</g>
</g>
</svg>
