<?xml version="1.0" encoding="utf-8"?>
<!-- Generator: Adobe Illustrator 24.0.1, SVG Export Plug-In . SVG Version: 6.00 Build 0)  -->
<svg version="1.1" id="ic-transaction-staked" xmlns="http://www.w3.org/2000/svg" xmlns:xlink="http://www.w3.org/1999/xlink"
	 x="0px" y="0px" width="24px" height="24px" viewBox="0 0 24 24" style="enable-background:new 0 0 24 24;" xml:space="preserve">
<style type="text/css">
	.st0{fill:#FFFFFF;}
	.st1{fill:none;}
</style>
<polygon class="st0" points="39.4,11.9 39.4,12.4 40.6,12.4 40.6,13.2 39.4,13.2 39.4,15.6 37.2,15.6 34.4,10.9 34.4,15.6 
	32.9,15.6 32.9,13.2 31.6,13.2 31.6,12.4 32.9,12.4 32.9,11.9 31.6,11.9 31.6,11.1 32.9,11.1 32.9,8.6 34.8,8.6 37.8,13.7 37.8,8.6 
	39.4,8.6 39.4,11.1 40.6,11.1 40.6,11.9 "/>
<path class="st0" d="M45.3,12.9c0.4,0,0.8-0.3,0.8-0.8c0-0.3-0.2-0.6-0.4-0.7c-0.1,0-0.2-0.1-0.3-0.1h-1.3v0h0V8.6h1.3
	c0.4,0,0.8-0.3,0.8-0.8c0-0.3-0.2-0.6-0.4-0.7c-0.1,0-0.2-0.1-0.3-0.1h-1.3c0,0,0,0,0,0h0C44,5.9,43.3,5,42.4,4.5c0,0,0,0,0,0
	c-0.3-0.2-0.7-0.3-1.1-0.3v0c0,0,0,0,0,0V2.9c0-0.3-0.2-0.6-0.4-0.7c-0.1,0-0.2-0.1-0.3-0.1c-0.4,0-0.8,0.3-0.8,0.8v1.3h-2.7v0h0
	V2.9c0-0.3-0.2-0.6-0.4-0.7c-0.1,0-0.2-0.1-0.3-0.1c-0.4,0-0.8,0.3-0.8,0.8v1.3h-2.7v0h0V2.9c0-0.3-0.2-0.6-0.4-0.7
	c-0.1,0-0.2-0.1-0.3-0.1c-0.4,0-0.8,0.3-0.8,0.8v1.3c-1.5,0.1-2.7,1.3-2.9,2.8h-1.3c-0.4,0-0.8,0.3-0.8,0.8c0,0.3,0.2,0.6,0.4,0.7
	c0.1,0.1,0.2,0.1,0.4,0.1h1.3c0,0.7,0,1.4,0,2.2v0.6h-1.3c-0.4,0-0.8,0.3-0.8,0.8c0,0.3,0.2,0.6,0.4,0.7c0.1,0,0.2,0.1,0.3,0.1h1.3
	v0h0v2.7h-1.3c-0.4,0-0.8,0.3-0.8,0.8c0,0.3,0.2,0.6,0.4,0.7c0.1,0,0.2,0.1,0.3,0.1h1.3c0,0,0,0,0,0h0c0.1,1.1,0.7,2.1,1.7,2.5
	c0,0,0,0,0,0c0.3,0.2,0.7,0.3,1.1,0.3v0c0,0,0,0,0,0v1.3c0,0.3,0.2,0.6,0.4,0.7c0.1,0,0.2,0.1,0.3,0.1c0.4,0,0.8-0.3,0.8-0.8v-1.3
	h2.7v0h0v1.3c0,0.3,0.2,0.6,0.4,0.7c0.1,0,0.2,0.1,0.3,0.1c0.4,0,0.8-0.3,0.8-0.8v-1.3h2.7v0h0v1.3c0,0.3,0.2,0.6,0.4,0.7
	c0.1,0,0.2,0.1,0.3,0.1c0.4,0,0.8-0.3,0.8-0.8v-1.3c1.5-0.1,2.7-1.3,2.9-2.8h1.3c0.4,0,0.8-0.3,0.8-0.8c0-0.3-0.2-0.6-0.4-0.7
	c-0.1-0.1-0.2-0.1-0.4-0.1h-1.3c0-0.7,0-1.4,0-2.2v-0.6H45.3z M30.6,18.4c-0.5-0.3-0.9-0.8-0.9-1.4c0,0,0-6.2,0-9.7
	c0-0.9,0.7-1.6,1.6-1.6H41c0.2,0,0.5,0.1,0.7,0.2c0,0,0,0,0,0c0.5,0.3,0.9,0.8,0.9,1.4c0,0,0,6.2,0,9.7c0,0.9-0.7,1.6-1.6,1.6h-9.7
	C31,18.5,30.8,18.4,30.6,18.4C30.6,18.4,30.6,18.4,30.6,18.4z"/>
<path id="Rectangle_4527" class="st1" d="M0,0h24v24H0V0z"/>
<g>
	<g>
		<path class="st0" d="M22.4,9.2C22.7,9.2,23,9,23,8.6C23,8.3,22.7,8,22.4,8h-1.3V6.7h1.3c0.4,0,0.6-0.3,0.6-0.6
			c0-0.4-0.3-0.6-0.6-0.6h-1.9c-0.4,0-0.6,0.3-0.6,0.6V8h-1.3V7.3c0-1-0.9-1.9-1.9-1.9H16V4.2h1.9c0.4,0,0.6-0.3,0.6-0.6V1.6
			c0-0.4-0.3-0.6-0.6-0.6c-0.4,0-0.6,0.3-0.6,0.6v1.3H16V1.6C16,1.3,15.7,1,15.4,1c-0.4,0-0.6,0.3-0.6,0.6v3.8h-2.1V1.6
			C12.6,1.3,12.4,1,12,1s-0.6,0.3-0.6,0.6v3.8H9.2V1.6C9.2,1.3,9,1,8.6,1C8.3,1,8,1.3,8,1.6v1.3H6.7V1.6C6.7,1.3,6.4,1,6.1,1
			C5.7,1,5.4,1.3,5.4,1.6v1.9c0,0.4,0.3,0.6,0.6,0.6H8v1.3H7.3c-1,0-1.9,0.9-1.9,1.9V8H4.2V6.1c0-0.4-0.3-0.6-0.6-0.6H1.6
			C1.3,5.4,1,5.7,1,6.1c0,0.4,0.3,0.6,0.6,0.6h1.3V8H1.6C1.3,8,1,8.3,1,8.6C1,9,1.3,9.2,1.6,9.2h3.8v2.1H1.6C1.3,11.4,1,11.6,1,12
			s0.3,0.6,0.6,0.6h3.8v2.1H1.6C1.3,14.8,1,15,1,15.4C1,15.7,1.3,16,1.6,16h1.3v1.3H1.6c-0.4,0-0.6,0.3-0.6,0.6
			c0,0.4,0.3,0.6,0.6,0.6h1.9c0.4,0,0.6-0.3,0.6-0.6V16h1.3v0.6c0,1,0.9,1.9,1.9,1.9H8v1.3H6.1c-0.4,0-0.6,0.3-0.6,0.6v1.9
			c0,0.4,0.3,0.6,0.6,0.6c0.4,0,0.6-0.3,0.6-0.6v-1.3H8v1.3C8,22.7,8.3,23,8.6,23c0.4,0,0.6-0.3,0.6-0.6v-3.8h2.1v3.8
			c0,0.4,0.3,0.6,0.6,0.6s0.6-0.3,0.6-0.6v-3.8h2.1v3.8c0,0.4,0.3,0.6,0.6,0.6c0.4,0,0.6-0.3,0.6-0.6v-1.3h1.3v1.3
			c0,0.4,0.3,0.6,0.6,0.6c0.4,0,0.6-0.3,0.6-0.6v-1.9c0-0.4-0.3-0.6-0.6-0.6H16v-1.3h0.6c1,0,1.9-0.9,1.9-1.9V16h1.3v1.9
			c0,0.4,0.3,0.6,0.6,0.6h1.9c0.4,0,0.6-0.3,0.6-0.6c0-0.4-0.3-0.6-0.6-0.6h-1.3V16h1.3c0.4,0,0.6-0.3,0.6-0.6
			c0-0.4-0.3-0.6-0.6-0.6h-3.8v-2.1h3.8c0.4,0,0.6-0.3,0.6-0.6s-0.3-0.6-0.6-0.6h-3.8V9.2H22.4z M16.9,11.7h-1.4v0.6h1.4v0.9h-1.4
			v2.7h-2.4l-3.1-5.2v5.2H8.4v-2.7H7.1v-0.9h1.4v-0.6H7.1v-0.9h1.4V8.1h2.1l3.3,5.7V8.1h1.7v2.7h1.4V11.7z"/>
	</g>
</g>
</svg>
