<?xml version="1.0" encoding="utf-8"?>
<!-- Generator: Adobe Illustrator 24.0.1, SVG Export Plug-In . SVG Version: 6.00 Build 0)  -->
<svg version="1.1" id="Layer_1" shape-rendering="crispEdges"
	 xmlns="http://www.w3.org/2000/svg" xmlns:xlink="http://www.w3.org/1999/xlink" x="0px" y="0px" width="24px" height="24px"
	 viewBox="0 0 24 24" style="enable-background:new 0 0 24 24;" xml:space="preserve">
<style type="text/css">
	.st0{fill:#FFFFFF;}
</style>
<g id="Top-BarTheme">
	<g>
		<g>
			<path class="st0" d="M21.2,16.5c-0.2-0.2-0.5-0.3-0.7-0.2c-0.7,0.3-1.5,0.4-2.4,0.4c-4,0-7.3-3.3-7.3-7.3c0-2.4,1.2-4.7,3.2-6.1
				c0.2-0.2,0.3-0.4,0.3-0.7s-0.3-0.5-0.6-0.5C13.3,2,13,2,12.7,2c-5.5,0-10,4.5-10,10s4.5,10,10,10c3.5,0,6.7-1.8,8.5-4.8
				C21.4,17,21.3,16.7,21.2,16.5z"/>
		</g>
	</g>
</g>
</svg>
