<?xml version="1.0" encoding="utf-8"?>
<!-- Generator: Adobe Illustrator 24.0.1, SVG Export Plug-In . SVG Version: 6.00 Build 0)  -->
<svg version="1.1" id="Layer_1" xmlns="http://www.w3.org/2000/svg" xmlns:xlink="http://www.w3.org/1999/xlink" x="0px" y="0px"
	 width="30px" height="30px" viewBox="0 0 30 30" style="enable-background:new 0 0 30 30;" xml:space="preserve">
<style type="text/css">
	.st0{fill:#707070;}
	.st1{fill:none;}
</style>
<g id="ic-arrow-down">
	<g id="ic-arrow-drop-down" transform="translate(6.000000, 3.000000)">
		<g>
			<g>
				<path class="st0" d="M19.4,9l-1.9-1.9c-0.1-0.1-0.1-0.1-0.2-0.1c-0.1,0-0.2,0-0.2,0.1L12,12.5L6.9,7.2C6.9,7.1,6.8,7.1,6.7,7.1
					c-0.1,0-0.2,0-0.2,0.1L4.6,9c-0.1,0.1-0.1,0.3,0,0.4l7.2,7.5c0.1,0.1,0.1,0.1,0.2,0.1c0.1,0,0.2,0,0.2-0.1l7.2-7.5
					C19.5,9.3,19.5,9.2,19.4,9z"/>
			</g>
		</g>
		<polygon id="Rectangle_4407" class="st1" points="0,0 24,0 24,24 0,24 		"/>
	</g>
</g>
</svg>
