<?xml version="1.0" encoding="utf-8"?>
<!-- Generator: Adobe Illustrator 24.0.1, SVG Export Plug-In . SVG Version: 6.00 Build 0)  -->
<svg version="1.1" id="ic_mint_off" shape-rendering="geometricPrecision"
	 xmlns="http://www.w3.org/2000/svg" xmlns:xlink="http://www.w3.org/1999/xlink" x="0px" y="0px" width="24px" height="24px"
	 viewBox="0 0 24 24" style="enable-background:new 0 0 24 24;" xml:space="preserve">
<style type="text/css">
	.st0{fill:#FFFFFF;}
	.st1{fill:none;}
</style>
<g>
	<path class="st0" d="M22.4,11.7l-3.1-3.1c-0.1-0.1-0.3-0.2-0.5-0.1c-0.2,0.1-0.3,0.2-0.3,0.4v0.9c0,0.1,0,0.2,0.1,0.3l1,1h-4.3
		c-0.3-1.2-1.3-2.2-2.5-2.5V4.3l1,1c0.1,0.1,0.2,0.1,0.3,0.1h0.9c0.2,0,0.3-0.1,0.4-0.3c0.1-0.2,0-0.4-0.1-0.5l-3.1-3.1
		c-0.2-0.2-0.4-0.2-0.6,0L8.6,4.7C8.5,4.8,8.5,5,8.5,5.2c0.1,0.2,0.2,0.3,0.4,0.3h0.9c0.1,0,0.2,0,0.3-0.1l1-1v4.3
		c-1.2,0.3-2.2,1.3-2.5,2.5H4.3l1-1C5.4,10,5.4,9.9,5.4,9.8V8.9c0-0.2-0.1-0.3-0.3-0.4C5,8.5,4.8,8.5,4.7,8.6l-3.1,3.1
		c-0.2,0.2-0.2,0.4,0,0.6l3.1,3.1c0.1,0.1,0.2,0.1,0.3,0.1c0.1,0,0.1,0,0.2,0c0.2-0.1,0.3-0.2,0.3-0.4v-0.9c0-0.1,0-0.2-0.1-0.3
		l-1-1h4.3c0.3,1.2,1.3,2.2,2.5,2.5v4.3l-1-1c-0.1-0.1-0.2-0.1-0.3-0.1H8.9c-0.2,0-0.3,0.1-0.4,0.3c-0.1,0.2,0,0.4,0.1,0.5l3.1,3.1
		c0.1,0.1,0.2,0.1,0.3,0.1s0.2,0,0.3-0.1l3.1-3.1c0.1-0.1,0.2-0.3,0.1-0.5c-0.1-0.2-0.2-0.3-0.4-0.3h-0.9c-0.1,0-0.2,0-0.3,0.1l-1,1
		v-4.3c1.2-0.3,2.2-1.3,2.5-2.5h4.3l-1,1c-0.1,0.1-0.1,0.2-0.1,0.3v0.9c0,0.2,0.1,0.3,0.3,0.4c0.1,0,0.1,0,0.2,0
		c0.1,0,0.2,0,0.3-0.1l3.1-3.1C22.5,12.1,22.5,11.9,22.4,11.7z M12,13.8c-1,0-1.8-0.8-1.8-1.8s0.8-1.8,1.8-1.8s1.8,0.8,1.8,1.8
		S13,13.8,12,13.8z"/>
</g>
<path id="Rectangle_4647" class="st1" d="M0,0h24v24H0V0z"/>
</svg>
