<?xml version="1.0" encoding="utf-8"?>
<!-- Generator: Adobe Illustrator 24.0.1, SVG Export Plug-In . SVG Version: 6.00 Build 0)  -->
<svg version="1.1" id="Layer_1" shape-rendering="geometricPrecision"
	 xmlns="http://www.w3.org/2000/svg" xmlns:xlink="http://www.w3.org/1999/xlink" x="0px" y="0px" width="24px" height="24px"
	 viewBox="0 0 24 24" style="enable-background:new 0 0 24 24;" xml:space="preserve">
<style type="text/css">
	.st0{fill:#FFFFFF;}
</style>
<g id="Top-Bar-Sync">
	<g id="Group" transform="translate(3.000000, 2.000000)">
		<path id="Path_18901" class="st0" d="M9,17c-1.9,0-3.7-0.8-5-2.1C3.7,14.5,3.9,14,4.3,14h1.1C5.8,14,6,13.8,6,13.5v-1
			C6,12.2,5.8,12,5.5,12h-5C0.2,12,0,12.2,0,12.5v5C0,17.8,0.2,18,0.5,18h1C1.8,18,2,17.8,2,17.5v-1.9c2.4,3,6.4,4.1,10,2.9
			c3.4-1.2,5.8-4.4,6-8c0-0.3-0.2-0.5-0.5-0.5h-1c-0.3,0-0.5,0.2-0.5,0.5C15.7,14.1,12.7,17,9,17z"/>
		<path id="Path_18902" class="st0" d="M16.5,2C16.2,2,16,2.2,16,2.5v1.9c-2.4-3-6.4-4.1-10-2.9c-3.4,1.2-5.8,4.4-6,8
			C0,9.8,0.2,10,0.5,10h1C1.8,10,2,9.8,2,9.5c0.2-2.9,2.1-5.3,4.9-6.2c2.6-0.8,5.3-0.1,7.1,1.8C14.3,5.5,14.1,6,13.7,6h-1.1
			C12.2,6,12,6.2,12,6.5v1C12,7.8,12.2,8,12.5,8h5C17.8,8,18,7.8,18,7.5v-5C18,2.2,17.8,2,17.5,2H16.5z"/>
	</g>
</g>
</svg>
