<?xml version="1.0" encoding="utf-8"?>
<!-- Generator: Adobe Illustrator 24.0.1, SVG Export Plug-In . SVG Version: 6.00 Build 0)  -->
<svg version="1.1" id="ic_peers_connection" shape-rendering="geometricPrecision"
	 xmlns="http://www.w3.org/2000/svg" xmlns:xlink="http://www.w3.org/1999/xlink" x="0px" y="0px" width="24px" height="24px"
	 viewBox="0 0 24 24" style="enable-background:new 0 0 24 24;" xml:space="preserve">
<style type="text/css">
	.st0{fill:#FFFFFF;}
	.st1{fill:none;}
</style>
<path id="Path" class="st0" d="M16.1,14.8l-2.7-2C13.1,12.6,13,12.3,13,12V9.9C13,9.4,13.4,9,13.9,9h0.7c0.5,0,0.9-0.4,0.9-0.9V2.9
	c0-0.5-0.4-0.9-0.9-0.9H9.4C8.9,2,8.5,2.4,8.5,2.9v5.2C8.5,8.6,8.9,9,9.4,9h0.7C10.6,9,11,9.4,11,9.9V12c0,0.3-0.1,0.6-0.4,0.7
	l-2.7,2C7.8,14.9,7.6,15,7.4,15H2.9C2.4,15,2,15.4,2,15.9v5.2C2,21.6,2.4,22,2.9,22h5.2C8.6,22,9,21.6,9,21.1V17
	c0-0.3,0.1-0.6,0.4-0.7l2.1-1.6c0.3-0.2,0.8-0.2,1.1,0l2.1,1.6c0.2,0.2,0.4,0.4,0.4,0.7v4.1c0,0.5,0.4,0.9,0.9,0.9h5.2
	c0.5,0,0.9-0.4,0.9-0.9v-5.2c0-0.5-0.4-0.9-0.9-0.9h-4.5C16.4,15,16.2,14.9,16.1,14.8z M11.4,4h1.2c0.5,0,0.9,0.4,0.9,0.9v1.2
	c0,0.5-0.4,0.9-0.9,0.9h-1.2c-0.5,0-0.9-0.4-0.9-0.9V4.9C10.5,4.4,10.9,4,11.4,4z M6.1,20H4.9C4.4,20,4,19.6,4,19.1v-1.2
	C4,17.4,4.4,17,4.9,17h1.2C6.6,17,7,17.4,7,17.9v1.2C7,19.6,6.6,20,6.1,20z M19.1,20h-1.2c-0.5,0-0.9-0.4-0.9-0.9v-1.2
	c0-0.5,0.4-0.9,0.9-0.9h1.2c0.5,0,0.9,0.4,0.9,0.9v1.2C20,19.6,19.6,20,19.1,20z"/>
<path id="Rectangle_4410" class="st1" d="M0,0h24v24H0V0z"/>
</svg>
