<?xml version="1.0" encoding="utf-8"?>
<!-- Generator: Adobe Illustrator 24.0.1, SVG Export Plug-In . SVG Version: 6.00 Build 0)  -->
<svg version="1.1" id="Layer_1" xmlns="http://www.w3.org/2000/svg" xmlns:xlink="http://www.w3.org/1999/xlink" x="0px" y="0px"
	 width="18px" height="17px" viewBox="0 0 18 17" style="enable-background:new 0 0 18 17;" xml:space="preserve">
<style type="text/css">
	.st0{fill:none;}
	.st1{fill:#FFFFFF;}
</style>
<g id="Page-1">
	<g id="ic-close-white" transform="translate(-1.000000, -2.000000)">
		<g id="ic_close">
			<polygon id="Rectangle_3745" class="st0" points="0,0 20,0 20,20 0,20 			"/>
			<g>
				<g>
					<path class="st1" d="M11.8,10.5L18,4.3c0.2-0.2,0.3-0.4,0.3-0.6c0-0.2-0.1-0.5-0.3-0.6l-0.5-0.5c-0.2-0.2-0.4-0.3-0.6-0.3
						c-0.2,0-0.5,0.1-0.6,0.3L10,8.7L3.8,2.5C3.6,2.3,3.4,2.2,3.2,2.2c-0.2,0-0.5,0.1-0.6,0.3L2,3C1.6,3.4,1.6,3.9,2,4.3l6.2,6.2
						L2,16.7c-0.2,0.2-0.3,0.4-0.3,0.6S1.8,17.8,2,18l0.5,0.5c0.2,0.2,0.4,0.3,0.6,0.3c0.2,0,0.5-0.1,0.6-0.3l6.2-6.2l6.2,6.2
						c0.2,0.2,0.4,0.3,0.6,0.3h0c0.2,0,0.5-0.1,0.6-0.3L18,18c0.2-0.2,0.3-0.4,0.3-0.6s-0.1-0.5-0.3-0.6L11.8,10.5z"/>
				</g>
			</g>
		</g>
	</g>
</g>
</svg>
