<?xml version="1.0" encoding="utf-8"?>
<!-- Generator: Adobe Illustrator 24.0.1, SVG Export Plug-In . SVG Version: 6.00 Build 0)  -->
<svg version="1.1" id="ic_error_connection" shape-rendering="geometricPrecision"
	 xmlns="http://www.w3.org/2000/svg" xmlns:xlink="http://www.w3.org/1999/xlink" x="0px" y="0px" width="24px" height="24px"
	 viewBox="0 0 24 24" style="enable-background:new 0 0 24 24;" xml:space="preserve">
<style type="text/css">
	.st0{fill:#778591;}
	.st1{fill:none;}
</style>
<g id="Group_8828">
	<path class="st0" d="M8.3,12l-2-2c-0.6,1-0.9,2.1-0.9,3.3c0,2,0.9,3.7,2.2,4.9l1.7-2c-0.8-0.7-1.3-1.8-1.3-2.9
		C8.1,12.9,8.2,12.4,8.3,12L8.3,12z"/>
	<path class="st0" d="M22.5,13.3c0-5.8-4.7-10.5-10.5-10.5c-2.1,0-4,0.6-5.7,1.7l-3-3L1.5,3.4l19.1,19.1l1.9-1.9L20.8,19
		C21.9,17.3,22.5,15.4,22.5,13.3L22.5,13.3z M12,5.4c4.3,0,7.9,3.5,7.9,7.9c0,1.4-0.4,2.6-1,3.7l-1-1c0.4-0.8,0.7-1.7,0.7-2.7
		c0-3.6-2.9-6.6-6.6-6.6c-1,0-1.9,0.2-2.8,0.6l-1-1C9.4,5.8,10.6,5.4,12,5.4L12,5.4z M12.6,10.8l-1.3-1.3c0.2,0,0.5-0.1,0.7-0.1
		c2.2,0,3.9,1.8,3.9,3.9c0,0.2,0,0.5-0.1,0.7l-1.3-1.3C14.3,11.7,13.6,11,12.6,10.8L12.6,10.8z"/>
	<path class="st0" d="M4.1,13.3c0-1.6,0.5-3,1.2-4.2L3.5,7.2c-1.2,1.7-2,3.8-2,6.1c0,3.1,1.4,5.9,3.6,7.9l1.7-2
		C5.2,17.8,4.1,15.7,4.1,13.3L4.1,13.3z"/>
	<path class="st0" d="M9.4,13.3c0,0.8,0.4,1.5,0.9,2l0.6-0.7l-1.5-1.5C9.4,13.2,9.4,13.2,9.4,13.3L9.4,13.3z"/>
</g>
<path id="Rectangle_4409" class="st1" d="M0,0h24v24H0V0z"/>
</svg>
