<?xml version="1.0" encoding="utf-8"?>
<!-- Generator: Adobe Illustrator 24.0.1, SVG Export Plug-In . SVG Version: 6.00 Build 0)  -->
<svg version="1.1" id="Layer_1" xmlns="http://www.w3.org/2000/svg" xmlns:xlink="http://www.w3.org/1999/xlink" x="0px" y="0px"
	 width="40px" height="40px" viewBox="0 0 40 40" style="enable-background:new 0 0 40 40;" xml:space="preserve">
<style type="text/css">
	.st0{fill:#3883C8;}
	.st1{fill:none;}
</style>
<g id="ComboBox">
	<g id="Group" transform="translate(5.000000, 0.000000)">
		<g id="ic-arrow-drop-down" transform="translate(0.000000, 16.000000)">
			<g>
				<g>
					<path class="st0" d="M19.4,9l-1.9-1.9C17.5,7,17.4,7,17.3,7c-0.1,0-0.2,0-0.2,0.1L12,12.5L6.9,7.1C6.9,7,6.8,7,6.7,7
						C6.6,7,6.5,7,6.5,7.1L4.6,9c-0.1,0.1-0.1,0.3,0,0.4l7.2,7.5C11.8,17,11.9,17,12,17c0.1,0,0.2,0,0.2-0.1l7.2-7.5
						C19.5,9.3,19.5,9.1,19.4,9z"/>
				</g>
			</g>
			<polygon id="Rectangle_4407" class="st1" points="0,0 24,0 24,24 0,24 			"/>
		</g>
		<g id="ic-arrow-drop-up">
			<g>
				<g>
					<path class="st0" d="M19.4,14.6l-7.2-7.5c-0.1-0.1-0.3-0.1-0.5,0l-7.2,7.5c-0.1,0.1-0.1,0.3,0,0.4l1.9,1.9
						C6.5,17,6.6,17,6.7,17c0.1,0,0.2,0,0.2-0.1l5.1-5.4l5.1,5.4c0.1,0.1,0.1,0.1,0.2,0.1c0,0,0,0,0,0c0.1,0,0.2,0,0.2-0.1l1.9-1.9
						C19.5,14.9,19.5,14.7,19.4,14.6z"/>
				</g>
			</g>
		</g>
	</g>
</g>
</svg>
