<?xml version="1.0" encoding="utf-8"?>
<!-- Generator: Adobe Illustrator 24.0.1, SVG Export Plug-In . SVG Version: 6.00 Build 0)  -->
<svg version="1.1" id="Layer_1" xmlns="http://www.w3.org/2000/svg" xmlns:xlink="http://www.w3.org/1999/xlink" x="0px" y="0px"
	 width="22px" height="22px" viewBox="0 0 22 22" style="enable-background:new 0 0 22 22;" xml:space="preserve">
<style type="text/css">
	.st0{fill:#4CAAFF;}
	.st1{fill:none;}
</style>
<g id="Page-1">
	<g id="ic-check-active" transform="translate(-1.000000, -1.000000)">
		<g id="Group" transform="translate(1.000000, 1.000000)">
			<path class="st0" d="M19.5,0h-17C1.1,0,0,1.1,0,2.5v17C0,20.9,1.1,22,2.5,22h17c1.4,0,2.5-1.1,2.5-2.5v-17C22,1.1,20.9,0,19.5,0z
				 M15.8,11.9H6.2c-0.5,0-0.9-0.4-0.9-0.9s0.4-0.9,0.9-0.9h9.6c0.5,0,0.9,0.4,0.9,0.9S16.3,11.9,15.8,11.9z"/>
		</g>
		<polygon id="Rectangle_4538" class="st1" points="0,0 24,0 24,24 0,24 		"/>
	</g>
</g>
</svg>
