<?xml version="1.0" encoding="utf-8"?>
<!-- Generator: Adobe Illustrator 24.0.1, SVG Export Plug-In . SVG Version: 6.00 Build 0)  -->
<svg version="1.1" id="Layer_1" xmlns="http://www.w3.org/2000/svg" xmlns:xlink="http://www.w3.org/1999/xlink" x="0px" y="0px"
	 width="30px" height="22px" viewBox="0 0 30 22" style="enable-background:new 0 0 30 22;" xml:space="preserve">
<style type="text/css">
	.st0{fill:#4ACCFF;}
	.st1{fill:none;}
</style>
<g id="Clear-Purple">
	<g id="ic-clear-purple" transform="translate(5.000000, 3.000000)">
		<g>
			<g>
				<path class="st0" d="M9.2,8l4.2-4.2c0.1-0.1,0.2-0.3,0.2-0.4c0-0.2-0.1-0.3-0.2-0.4l-0.4-0.4c-0.1-0.1-0.3-0.2-0.4-0.2
					c-0.2,0-0.3,0.1-0.4,0.2L8,6.8L3.8,2.6C3.7,2.5,3.5,2.4,3.4,2.4c-0.2,0-0.3,0.1-0.4,0.2L2.6,2.9c-0.2,0.2-0.2,0.6,0,0.9L6.8,8
					l-4.2,4.2c-0.1,0.1-0.2,0.3-0.2,0.4s0.1,0.3,0.2,0.4l0.4,0.4c0.1,0.1,0.3,0.2,0.4,0.2c0.2,0,0.3-0.1,0.4-0.2L8,9.2l4.2,4.2
					c0.1,0.1,0.3,0.2,0.4,0.2h0c0.2,0,0.3-0.1,0.4-0.2l0.4-0.4c0.1-0.1,0.2-0.3,0.2-0.4s-0.1-0.3-0.2-0.4L9.2,8z"/>
			</g>
		</g>
		<polygon id="Rectangle_4602" class="st1" points="0,0 16,0 16,16 0,16 		"/>
	</g>
</g>
</svg>
