<?xml version="1.0" encoding="utf-8"?>
<!-- Generator: Adobe Illustrator 24.0.1, SVG Export Plug-In . SVG Version: 6.00 Build 0)  -->
<svg version="1.1" id="Layer_1" xmlns="http://www.w3.org/2000/svg" xmlns:xlink="http://www.w3.org/1999/xlink" x="0px" y="0px"
	 width="24px" height="24px" viewBox="0 0 24 24" style="enable-background:new 0 0 24 24;" xml:space="preserve">
<style type="text/css">
	.st0{fill:#FFFFFF;}
</style>
<g id="Artboard">
	<path class="st0" d="M7.3,9.1h1.9c0.4,0,0.8-0.3,0.8-0.7c0.1-0.7,0.3-1.3,0.7-1.6C11,6.5,11.5,6.4,12,6.4c0.6,0,1.1,0.2,1.4,0.5
		c0.3,0.3,0.5,0.8,0.5,1.3c0,0.3-0.1,0.5-0.2,0.7c-0.1,0.1-0.3,0.5-1.2,1.3c-0.9,0.7-1.4,1.4-1.8,2.1c-0.3,0.7-0.5,1.7-0.5,3.1l0,0
		c0,0.5,0.4,0.8,0.8,0.8h1.7c0.5,0,0.8-0.4,0.8-0.8l0,0c0-1.1,0.1-1.5,0.2-1.7c0.1-0.1,0.3-0.5,1.3-1.3c0.9-0.8,1.5-1.4,1.9-2.1
		c0.4-0.7,0.5-1.4,0.5-2.2c0-1.4-0.5-2.6-1.6-3.5c-1-0.9-2.3-1.3-3.9-1.3c-1.5,0-2.8,0.5-3.8,1.3c-1,0.9-1.6,2.1-1.7,3.6l0,0
		C6.4,8.7,6.8,9.1,7.3,9.1z"/>
	<path class="st0" d="M12.8,20.8c0.5,0,0.8-0.4,0.8-0.8v-1.7c0-0.5-0.4-0.8-0.8-0.8h-1.7c-0.5,0-0.8,0.4-0.8,0.8v1.7
		c0,0.5,0.4,0.8,0.8,0.8H12.8z"/>
</g>
</svg>
