<?xml version="1.0" encoding="utf-8"?>
<!-- Generator: Adobe Illustrator 24.0.1, SVG Export Plug-In . SVG Version: 6.00 Build 0)  -->
<svg version="1.1" id="ic_close" xmlns="http://www.w3.org/2000/svg" xmlns:xlink="http://www.w3.org/1999/xlink" x="0px" y="0px"
	 width="20px" height="20px" viewBox="0 0 20 20" style="enable-background:new 0 0 20 20;" xml:space="preserve">
<style type="text/css">
	.st0{fill:#707070;}
	.st1{fill:none;}
</style>
<g>
	<g>
		<path class="st0" d="M11.7,10l5.8-5.8c0.2-0.2,0.2-0.4,0.2-0.6c0-0.2-0.1-0.4-0.2-0.6L17,2.5c-0.2-0.2-0.4-0.2-0.6-0.2
			c-0.2,0-0.4,0.1-0.6,0.2L10,8.3L4.2,2.5C4,2.3,3.8,2.3,3.6,2.3C3.4,2.3,3.2,2.3,3,2.5L2.5,3c-0.3,0.3-0.3,0.9,0,1.2L8.3,10
			l-5.8,5.8c-0.2,0.2-0.2,0.4-0.2,0.6s0.1,0.4,0.2,0.6L3,17.5c0.2,0.2,0.4,0.2,0.6,0.2c0.2,0,0.4-0.1,0.6-0.2l5.8-5.8l5.8,5.8
			c0.2,0.2,0.4,0.2,0.6,0.2h0c0.2,0,0.4-0.1,0.6-0.2l0.5-0.5c0.2-0.2,0.2-0.4,0.2-0.6s-0.1-0.4-0.2-0.6L11.7,10z"/>
	</g>
</g>
<path id="Rectangle_4530" class="st1" d="M0,0h20v20H0V0z"/>
</svg>
