<?xml version="1.0" encoding="utf-8"?>
<!-- Generator: Adobe Illustrator 24.0.1, SVG Export Plug-In . SVG Version: 6.00 Build 0)  -->
<svg version="1.1" id="ic_light_theme" shape-rendering="geometricPrecision"
	 xmlns="http://www.w3.org/2000/svg" xmlns:xlink="http://www.w3.org/1999/xlink" x="0px" y="0px" width="24px" height="24px"
	 viewBox="0 0 24 24" style="enable-background:new 0 0 24 24;" xml:space="preserve">
<style type="text/css">
	.st0{fill:#FFFFFF;}
	.st1{fill:none;}
</style>
<g>
	<g>
		<g>
			<circle class="st0" cx="12" cy="12" r="5.8"/>
			<path class="st0" d="M11.6,5.3h0.8c0.2,0,0.4-0.2,0.4-0.4V2.4c0-0.2-0.2-0.4-0.4-0.4h-0.8c-0.2,0-0.4,0.2-0.4,0.4v2.5
				C11.2,5.1,11.4,5.3,11.6,5.3z"/>
			<path class="st0" d="M12.4,18.7h-0.8c-0.2,0-0.4,0.2-0.4,0.4v2.5c0,0.2,0.2,0.4,0.4,0.4h0.8c0.2,0,0.4-0.2,0.4-0.4v-2.5
				C12.8,18.9,12.6,18.7,12.4,18.7z"/>
			<path class="st0" d="M21.6,11.2h-2.5c-0.2,0-0.4,0.2-0.4,0.4v0.8c0,0.2,0.2,0.4,0.4,0.4h2.5c0.2,0,0.4-0.2,0.4-0.4v-0.8
				C22,11.4,21.8,11.2,21.6,11.2z"/>
			<path class="st0" d="M5.3,12.4v-0.8c0-0.2-0.2-0.4-0.4-0.4H2.4c-0.2,0-0.4,0.2-0.4,0.4v0.8c0,0.2,0.2,0.4,0.4,0.4h2.5
				C5.1,12.8,5.3,12.6,5.3,12.4z"/>
			<path class="st0" d="M17,7.6c0.1,0.1,0.2,0.1,0.3,0.1s0.2,0,0.3-0.1l1.8-1.8c0.2-0.2,0.2-0.4,0-0.6l-0.6-0.6
				c-0.2-0.2-0.4-0.2-0.6,0l-1.8,1.8c-0.2,0.2-0.2,0.4,0,0.6L17,7.6z"/>
			<path class="st0" d="M7,16.4c-0.2-0.2-0.4-0.2-0.6,0l-1.8,1.8c-0.2,0.2-0.2,0.4,0,0.6l0.6,0.6c0.1,0.1,0.2,0.1,0.3,0.1
				s0.2,0,0.3-0.1l1.8-1.8c0.2-0.2,0.2-0.4,0-0.6L7,16.4z"/>
			<path class="st0" d="M17.6,16.4c-0.2-0.2-0.4-0.2-0.6,0L16.4,17c-0.2,0.2-0.2,0.4,0,0.6l1.8,1.8c0.1,0.1,0.2,0.1,0.3,0.1
				c0.1,0,0.2,0,0.3-0.1l0.6-0.6c0.2-0.2,0.2-0.4,0-0.6L17.6,16.4z"/>
			<path class="st0" d="M6.4,7.6c0.1,0.1,0.2,0.1,0.3,0.1s0.2,0,0.3-0.1L7.6,7c0.2-0.2,0.2-0.4,0-0.6L5.8,4.6
				c-0.2-0.2-0.4-0.2-0.6,0L4.6,5.2c-0.2,0.2-0.2,0.4,0,0.6L6.4,7.6z"/>
		</g>
	</g>
</g>
<path id="Rectangle" class="st1" d="M0,0h24v24H0V0z"/>
</svg>
