<?xml version="1.0" encoding="utf-8"?>
<!-- Generator: Adobe Illustrator 24.0.1, SVG Export Plug-In . SVG Version: 6.00 Build 0)  -->
<svg version="1.1" id="ic_nbc" xmlns="http://www.w3.org/2000/svg" xmlns:xlink="http://www.w3.org/1999/xlink" x="0px" y="0px"
	 width="24px" height="24px" viewBox="0 0 24 24" style="enable-background:new 0 0 24 24;" xml:space="preserve">
<style type="text/css">
	.st0{fill:#FF4E10;}
	.st1{fill:#EDB45B;}
	.st2{fill:none;}
</style>
<path class="st0" d="M12,2C6.5,2,2,6.5,2,12s4.5,10,10,10s10-4.5,10-10S17.5,2,12,2z M18.8,11.6h-1.9v0.8h1.9v1.2h-1.9v3.7h-3.3
	l-4.3-7.2v7.2H7.1v-3.7H5.2v-1.2h1.9v-0.8H5.2v-1.2h1.9V6.6H10l4.6,7.8V6.6h2.3v3.8h1.9V11.6z"/>
<polygon class="st1" points="16.9,11.6 16.9,12.4 18.8,12.4 18.8,13.6 16.9,13.6 16.9,17.4 13.7,17.4 9.4,10.2 9.4,17.4 7.1,17.4 
	7.1,13.6 5.2,13.6 5.2,12.4 7.1,12.4 7.1,11.6 5.2,11.6 5.2,10.4 7.1,10.4 7.1,6.6 10,6.6 14.6,14.5 14.6,6.6 16.9,6.6 16.9,10.4 
	18.8,10.4 18.8,11.6 "/>
<path id="Rectangle_4543" class="st2" d="M0,0h24v24H0V0z"/>
</svg>
