<?xml version="1.0" encoding="utf-8"?>
<!-- Generator: Adobe Illustrator 24.0.1, SVG Export Plug-In . SVG Version: 6.00 Build 0)  -->
<svg version="1.1" id="Layer_1" xmlns="http://www.w3.org/2000/svg" xmlns:xlink="http://www.w3.org/1999/xlink" x="0px" y="0px"
	 width="24px" height="24px" viewBox="0 0 24 24" style="enable-background:new 0 0 24 24;" xml:space="preserve">
<style type="text/css">
	.st0{opacity:0.7;}
	.st1{fill:#FFFFFF;}
</style>
<g id="Artboard" class="st0">
	<g id="ic-copy" transform="translate(3.000000, 3.000000)">
		<g id="Group_8993">
			<path id="Path_18959" class="st1" d="M2.4,15H1.1c-0.3,0-0.5-0.2-0.5-0.5V0.5C0.6,0.2,0.8,0,1.1,0h10.7c0.3,0,0.5,0.2,0.5,0.5
				v1.2c0,0.3-0.2,0.5-0.5,0.5H3.5C3.2,2.3,3,2.6,3,2.9v11.6C3,14.8,2.7,15,2.4,15z"/>
		</g>
		<g id="Group_8994" transform="translate(4.000000, 4.000000)">
			<path id="Path_18960" class="st1" d="M11.9,15H1.1c-0.3,0-0.5-0.2-0.5-0.5V0.5C0.6,0.2,0.8,0,1.1,0h10.7c0.3,0,0.5,0.2,0.5,0.5
				v13.9C12.4,14.8,12.2,15,11.9,15z M3.5,12.7h6c0.3,0,0.5-0.2,0.5-0.5V2.9c0-0.3-0.2-0.5-0.5-0.5h-6C3.2,2.3,3,2.6,3,2.9v9.3
				C3,12.4,3.2,12.7,3.5,12.7z"/>
		</g>
	</g>
</g>
</svg>
