<?xml version="1.0" encoding="utf-8"?>
<!-- Generator: Adobe Illustrator 24.0.1, SVG Export Plug-In . SVG Version: 6.00 Build 0)  -->
<svg version="1.1" id="Layer_1" xmlns="http://www.w3.org/2000/svg" xmlns:xlink="http://www.w3.org/1999/xlink" x="0px" y="0px"
	 width="24px" height="24px" viewBox="0 0 24 24" style="enable-background:new 0 0 24 24;" xml:space="preserve">
<style type="text/css">
	.st0{opacity:0.7;}
	.st1{fill:none;}
	.st2{fill:#FFFFFF;}
</style>
<g id="ic_exit" class="st0">
	<g id="Group">
		<path id="Path_19023" class="st1" d="M0,0h24v24H0V0z"/>
	</g>
	<g id="Group_1_">
		<path class="st2" d="M14.6,12.9c-0.5,0-0.9,0.4-0.9,0.9v3.5c0,0.5-0.4,0.9-0.9,0.9h-2.6V5c0-0.7-0.5-1.4-1.2-1.7L8.8,3.2h4.1
			c0.5,0,0.9,0.4,0.9,0.9v2.6c0,0.5,0.4,0.9,0.9,0.9s0.9-0.4,0.9-0.9V4.1c0-1.4-1.2-2.6-2.6-2.6H3.5c0,0-0.1,0-0.1,0
			c0,0-0.1,0-0.1,0c-1,0-1.8,0.8-1.8,1.7V19c0,0.7,0.5,1.4,1.2,1.7L8,22.4c0.2,0.1,0.4,0.1,0.5,0.1c1,0,1.7-0.8,1.7-1.8v-0.9h2.6
			c1.4,0,2.6-1.2,2.6-2.6v-3.5C15.5,13.3,15.1,12.9,14.6,12.9z"/>
		<path class="st2" d="M22.2,9.6l-3.5-3.5c-0.3-0.3-0.6-0.3-1-0.2c-0.3,0.1-0.5,0.5-0.5,0.8v2.6h-3.5c-0.5,0-0.9,0.4-0.9,0.9
			c0,0.5,0.4,0.9,0.9,0.9h3.5v2.6c0,0.4,0.2,0.7,0.5,0.8c0.3,0.1,0.7,0.1,1-0.2l3.5-3.5C22.6,10.5,22.6,10,22.2,9.6z"/>
	</g>
</g>
</svg>
