<?xml version="1.0" encoding="utf-8"?>
<!-- Generator: Adobe Illustrator 24.0.1, SVG Export Plug-In . SVG Version: 6.00 Build 0)  -->
<svg version="1.1" id="Layer_1" xmlns="http://www.w3.org/2000/svg" xmlns:xlink="http://www.w3.org/1999/xlink" x="0px" y="0px"
	 width="24px" height="24px" viewBox="0 0 24 24" style="enable-background:new 0 0 24 24;" xml:space="preserve">
<style type="text/css">
	.st0{opacity:0.6;}
	.st1{fill:none;}
	.st2{fill:#707070;}
</style>
<g id="ic-expand" class="st0">
	<path id="Rectangle_4404" class="st1" d="M0,0h24v24H0V0z"/>
</g>
<g>
	<g>
		<path class="st2" d="M15.3,3l0.8,0.8C16.2,3.9,16.4,4,16.5,4l1.9,0l-5.2,5.2C13,9.4,13,9.7,13.2,10l0.8,0.8c0.2,0.2,0.6,0.2,0.8,0
			L20,5.6v1.9c0,0.2,0.1,0.3,0.2,0.4L21,8.7c0.2,0.2,0.4,0.2,0.6,0.1C21.9,8.8,22,8.5,22,8.3l0-5.7C22,2.3,21.7,2,21.4,2h-5.7
			c-0.2,0-0.4,0.1-0.5,0.4C15.1,2.6,15.1,2.8,15.3,3z"/>
		<path class="st2" d="M8.7,21l-0.8-0.8C7.8,20.1,7.6,20,7.5,20H5.6l5.2-5.2c0.2-0.2,0.2-0.6,0-0.8L10,13.2c-0.2-0.2-0.6-0.2-0.8,0
			L4,18.4v-1.9c0-0.2-0.1-0.3-0.2-0.4L3,15.3c-0.2-0.2-0.4-0.2-0.6-0.1C2.1,15.2,2,15.5,2,15.7l0,5.7c0,0.2,0.1,0.3,0.2,0.4
			C2.3,21.9,2.4,22,2.6,22h5.7c0.2,0,0.4-0.1,0.5-0.4C8.9,21.4,8.9,21.2,8.7,21z"/>
		<path class="st2" d="M22,21.4l0-5.7c0-0.2-0.1-0.4-0.4-0.5c-0.2-0.1-0.5,0-0.6,0.1l-0.8,0.8c-0.1,0.1-0.2,0.3-0.2,0.4v1.9
			l-5.2-5.2c-0.2-0.2-0.6-0.2-0.8,0L13.2,14c-0.2,0.2-0.2,0.6,0,0.8l5.2,5.2h-1.9c-0.2,0-0.3,0.1-0.4,0.2L15.3,21
			c-0.2,0.2-0.2,0.4-0.1,0.6c0,0.1,0.1,0.1,0.1,0.2c0.1,0.1,0.3,0.2,0.4,0.2h5.7C21.7,22,22,21.7,22,21.4z"/>
		<path class="st2" d="M4,5.6l5.2,5.2c0.2,0.2,0.6,0.2,0.8,0l0.8-0.8c0.2-0.2,0.2-0.6,0-0.8L5.6,4l1.9,0c0.2,0,0.3-0.1,0.4-0.2
			L8.7,3c0.2-0.2,0.2-0.4,0.1-0.6C8.8,2.1,8.5,2,8.3,2L2.6,2C2.3,2,2,2.3,2,2.6v5.7c0,0.2,0.1,0.3,0.2,0.4c0.1,0.1,0.1,0.1,0.2,0.1
			c0.2,0.1,0.5,0,0.6-0.1l0.8-0.8C3.9,7.8,4,7.6,4,7.5L4,5.6z"/>
	</g>
</g>
</svg>
