<?xml version="1.0" encoding="utf-8"?>
<!-- Generator: Adobe Illustrator 24.0.1, SVG Export Plug-In . SVG Version: 6.00 Build 0)  -->
<svg version="1.1" id="Layer_1" xmlns="http://www.w3.org/2000/svg" xmlns:xlink="http://www.w3.org/1999/xlink" x="0px" y="0px"
	 width="24px" height="40px" viewBox="0 0 24 40" style="enable-background:new 0 0 24 40;" xml:space="preserve">
<style type="text/css">
	.st0{fill:#FFFFFF;}
</style>
<g id="Settings_1_">
	<g>
		<g>
			<path class="st0" d="M22.3,21.8l-1.5-0.3c-0.2-0.7-0.5-1.4-0.9-2.1l0.9-1.3c0.2-0.3,0.2-0.8-0.1-1l-2-2c-0.3-0.3-0.7-0.3-1-0.1
				L16.5,16c-0.6-0.3-1.3-0.6-2-0.8l-0.3-1.5c-0.1-0.4-0.4-0.7-0.8-0.7h-2.8c-0.4,0-0.7,0.3-0.8,0.7l-0.3,1.5
				c-0.7,0.2-1.4,0.5-2.1,0.9l-1.3-0.9c-0.3-0.2-0.8-0.2-1,0.1l-2,2c-0.3,0.3-0.3,0.7-0.1,1L4,19.5c-0.3,0.6-0.6,1.3-0.8,2l-1.5,0.3
				C1.3,21.9,1,22.2,1,22.6v2.8c0,0.4,0.3,0.7,0.7,0.8l1.5,0.3c0.2,0.7,0.5,1.4,0.9,2.1l-0.9,1.3c-0.2,0.3-0.2,0.8,0.1,1l2,2
				c0.3,0.3,0.7,0.3,1,0.1L7.5,32c0.6,0.3,1.3,0.6,2,0.8l0.3,1.5c0.1,0.4,0.4,0.7,0.8,0.7h2.8c0.4,0,0.7-0.3,0.8-0.7l0.3-1.5
				c0.7-0.2,1.4-0.5,2.1-0.9l1.3,0.9c0.3,0.2,0.8,0.2,1-0.1l2-2c0.3-0.3,0.3-0.7,0.1-1L20,28.5c0.3-0.6,0.6-1.3,0.8-2l1.5-0.3
				c0.4-0.1,0.7-0.4,0.7-0.8v-2.8C23,22.2,22.7,21.9,22.3,21.8z M12,28.4c-2.4,0-4.4-2-4.4-4.4s2-4.4,4.4-4.4s4.4,2,4.4,4.4
				S14.4,28.4,12,28.4z"/>
		</g>
	</g>
</g>
</svg>
