<?xml version="1.0" encoding="utf-8"?>
<!-- Generator: Adobe Illustrator 24.0.1, SVG Export Plug-In . SVG Version: 6.00 Build 0)  -->
<svg version="1.1" id="Layer_1" xmlns="http://www.w3.org/2000/svg" xmlns:xlink="http://www.w3.org/1999/xlink" x="0px" y="0px"
	 width="24px" height="30px" viewBox="0 0 24 30" style="enable-background:new 0 0 24 30;" xml:space="preserve">
<style type="text/css">
	.st0{fill:#778591;}
</style>
<g id="Master-Active">
	<g>
		<g id="Layer_8_42_">
			<path class="st0" d="M23,13c0,1.3-0.9,2.4-2,2.4c-0.1,0-0.2,0-0.4,0L19,22.2v2.5H5v-2.6l-1.6-6.8c-0.1,0-0.2,0-0.4,0
				c-1.1,0-2-1.1-2-2.4c0-1.3,0.9-2.4,2-2.4c1.1,0,2,1.1,2,2.4c0,0.3-0.1,0.6-0.2,0.9c2,0.8,5.1,1.4,6.5-1.3
				c-0.8-0.3-1.4-1.2-1.4-2.2C10,9.1,10.9,8,12,8s2,1.1,2,2.4c0,1-0.6,1.9-1.4,2.2c0.8,1.8,2.6,3.6,6.6,1.5C19.1,13.8,19,13.4,19,13
				c0-1.3,0.9-2.4,2-2.4C22.1,10.6,23,11.7,23,13z M5,28h14v-2.2H5V28z"/>
		</g>
	</g>
</g>
</svg>
