<?xml version="1.0" encoding="utf-8"?>
<!-- Generator: Adobe Illustrator 24.0.1, SVG Export Plug-In . SVG Version: 6.00 Build 0)  -->
<svg version="1.1" id="Layer_1" xmlns="http://www.w3.org/2000/svg" xmlns:xlink="http://www.w3.org/1999/xlink" x="0px" y="0px"
	 width="24px" height="40px" viewBox="0 0 24 40" style="enable-background:new 0 0 24 40;" xml:space="preserve">
<style type="text/css">
	.st0{fill:#FFFFFF;}
</style>
<g id="Receive-off">
	<g>
		<g>
			<path class="st0" d="M18.8,22.2L17,20.3c-0.3-0.3-0.7-0.3-0.9,0l-2.2,2.2v-8.9c0-0.4-0.3-0.6-0.6-0.6h-2.6
				c-0.4,0-0.6,0.3-0.6,0.6v8.9l-2.2-2.2c-0.3-0.3-0.7-0.3-0.9,0l-1.8,1.8c-0.3,0.3-0.3,0.7,0,0.9l6.4,6.4c0.3,0.3,0.7,0.3,0.9,0
				l6.4-6.4C19.1,22.8,19.1,22.4,18.8,22.2z"/>
		</g>
	</g>
	<g>
		<g>
			<path class="st0" d="M22.4,27.3h-2.6c-0.4,0-0.6,0.3-0.6,0.6v3.2H4.9v-3.2c0-0.4-0.3-0.6-0.6-0.6H1.6c-0.4,0-0.6,0.3-0.6,0.6v5.2
				C1,34.1,1.9,35,2.9,35h18.1c1.1,0,1.9-0.9,1.9-1.9v-5.2C23,27.6,22.7,27.3,22.4,27.3z"/>
		</g>
	</g>
</g>
</svg>
