<?xml version="1.0" encoding="utf-8"?>
<!-- Generator: Adobe Illustrator 24.0.1, SVG Export Plug-In . SVG Version: 6.00 Build 0)  -->
<svg version="1.1" id="Layer_1" xmlns="http://www.w3.org/2000/svg" xmlns:xlink="http://www.w3.org/1999/xlink" x="0px" y="0px"
	 width="24px" height="40px" viewBox="0 0 24 40" style="enable-background:new 0 0 24 40;" xml:space="preserve">
<style type="text/css">
	.st0{fill:#4CAAFF;}
	.st1{fill:none;}
</style>
<g id="Send">
	<g id="ic-send" transform="translate(-1.000000, 11.000000)">
		<g>
			<g>
				<path class="st0" d="M24.2,1.9c-0.3-0.3-0.6-0.3-0.8-0.2L4.6,9.2C4.2,9.4,4,9.7,4,10s0.3,0.6,0.6,0.7l8.3,2.5l2.5,8.2
					c0.1,0.3,0.4,0.5,0.7,0.6h0c0.3,0,0.6-0.2,0.7-0.5l7.5-18.9C24.6,2.4,24.5,2.1,24.2,1.9z"/>
			</g>
		</g>
		<g>
			<g>
				
					<rect x="3.4" y="18.7" transform="matrix(0.7071 -0.7071 0.7071 0.7071 -11.9419 10.2233)" class="st0" width="5.9" height="1.6"/>
			</g>
		</g>
		<g>
			<g>
				
					<rect x="1.2" y="14.3" transform="matrix(0.7071 -0.7071 0.7071 0.7071 -9.4503 7.3317)" class="st0" width="5.9" height="1.6"/>
			</g>
		</g>
		<g>
			<g>
				
					<rect x="7.9" y="21" transform="matrix(0.7071 -0.7071 0.7071 0.7071 -12.2147 14.0191)" class="st0" width="5.9" height="1.6"/>
			</g>
		</g>
		<polygon id="Rectangle_4395" class="st1" points="0,0 26,0 26,26 0,26 		"/>
	</g>
</g>
</svg>
