<?xml version="1.0" encoding="utf-8"?>
<!-- Generator: Adobe Illustrator 24.0.1, SVG Export Plug-In . SVG Version: 6.00 Build 0)  -->
<svg version="1.1" id="Layer_1" xmlns="http://www.w3.org/2000/svg" xmlns:xlink="http://www.w3.org/1999/xlink" x="0px" y="0px"
	 width="24px" height="40px" viewBox="0 0 24 40" style="enable-background:new 0 0 24 40;" xml:space="preserve">
<style type="text/css">
	.st0{fill:#778591;}
</style>
<g id="Address">
	<g id="Group-2_1_" transform="translate(3.000000, 12.000000)">
		<g id="Layer_1_1_">
			<g id="Address-Book_1_">
				<path class="st0" d="M15.8-0.1H3.6c-1.5,0-2.8,1.2-2.8,2.8V4h-1.4v2.8h1.4v2.7h-1.4v2.8h1.4V15h-1.4v2.8h1.4v1.4
					c0,1.5,1.2,2.8,2.8,2.8h12.2c1.5,0,2.8-1.2,2.8-2.8V2.6C18.5,1.1,17.3-0.1,15.8-0.1L15.8-0.1z M9.7,5.3c1.5,0,2.8,1.2,2.8,2.8
					c0,1.5-1.2,2.7-2.8,2.7S6.9,9.5,6.9,8.1C6.9,6.5,8.2,5.3,9.7,5.3z M14.4,14.8H5v-1.4c0-1,0.7-1.8,1.8-2.2c1.8-0.7,4.2-0.7,6,0
					c1.1,0.4,1.8,1.3,1.8,2.2L14.4,14.8L14.4,14.8z"/>
			</g>
		</g>
	</g>
</g>
</svg>
