<?xml version="1.0" encoding="utf-8"?>
<!-- Generator: Adobe Illustrator 24.0.1, SVG Export Plug-In . SVG Version: 6.00 Build 0)  -->
<svg version="1.1" id="Layer_1" xmlns="http://www.w3.org/2000/svg" xmlns:xlink="http://www.w3.org/1999/xlink" x="0px" y="0px"
	 width="24px" height="40px" viewBox="0 0 24 40" style="enable-background:new 0 0 24 40;" xml:space="preserve">
<style type="text/css">
	.st0{fill:#FFFFFF;}
</style>
<g id="Privacy_1_">
	<g id="Group_1_" transform="translate(1.000000, 13.000000)">
		<path class="st0" d="M22,10.6v0.9c0,0.3-0.2,0.5-0.5,0.5H0.5C0.2,12,0,11.8,0,11.5v-0.9C0,10.3,0.2,10,0.5,10h1
			C1.8,10,2,9.8,2.1,9.6l2-9.2C4.2,0.1,4.5-0.1,4.7,0L10.9,1C11,1,11,1,11.1,1l6.2-1c0.3,0,0.6,0.1,0.6,0.4l2,9.2
			C20,9.8,20.2,10,20.5,10h1C21.8,10,22,10.3,22,10.6z"/>
		<path class="st0" d="M20.5,14c0.3,0,0.5,0.2,0.5,0.5v3.2c-0.1,2.4-2.1,4.3-4.5,4.3c-2.1-0.1-3.9-1.6-4.4-3.6
			c-0.1-0.3-0.3-0.4-0.5-0.4h-1.2c-0.3,0-0.5,0.2-0.5,0.4c-0.5,2-2.3,3.5-4.4,3.6c-2.4,0-4.4-1.9-4.5-4.3v-3.2C1,14.3,1.2,14,1.5,14
			h7.9c0.3,0,0.5,0.2,0.5,0.5v0.9c0,0.3,0.2,0.5,0.5,0.5h0.9c0.3,0,0.5-0.2,0.5-0.5v-0.9c0-0.3,0.2-0.5,0.5-0.5H20.5z"/>
	</g>
</g>
</svg>
