<?xml version="1.0" encoding="utf-8"?>
<!-- Generator: Adobe Illustrator 24.0.1, SVG Export Plug-In . SVG Version: 6.00 Build 0)  -->
<svg version="1.1" id="Layer_1" xmlns="http://www.w3.org/2000/svg" xmlns:xlink="http://www.w3.org/1999/xlink" x="0px" y="0px"
	 width="24px" height="40px" viewBox="0 0 24 40" style="enable-background:new 0 0 24 40;" xml:space="preserve">
<style type="text/css">
	.st0{fill:#4CAAFF;}
</style>
<g id="Artboard">
	<g id="ic_settings-active" transform="translate(1.000000, 13.000000)">
		<g>
			<g>
				<path class="st0" d="M21.3,8.8l-1.5-0.3c-0.2-0.7-0.5-1.4-0.9-2.1l0.9-1.3c0.2-0.3,0.2-0.8-0.1-1l-2-2c-0.3-0.3-0.7-0.3-1-0.1
					L15.5,3c-0.6-0.3-1.3-0.6-2-0.8l-0.3-1.5C13.1,0.3,12.8,0,12.4,0H9.6C9.2,0,8.9,0.3,8.8,0.7L8.5,2.2C7.8,2.4,7.1,2.7,6.5,3.1
					L5.2,2.2c-0.3-0.2-0.8-0.2-1,0.1l-2,2c-0.3,0.3-0.3,0.7-0.1,1L3,6.5c-0.3,0.6-0.6,1.3-0.8,2L0.7,8.8C0.3,8.9,0,9.2,0,9.6v2.8
					c0,0.4,0.3,0.7,0.7,0.8l1.5,0.3c0.2,0.7,0.5,1.4,0.9,2.1l-0.9,1.3c-0.2,0.3-0.2,0.8,0.1,1l2,2c0.3,0.3,0.7,0.3,1,0.1L6.5,19
					c0.6,0.3,1.3,0.6,2,0.8l0.3,1.5C8.9,21.7,9.2,22,9.6,22h2.8c0.4,0,0.7-0.3,0.8-0.7l0.3-1.5c0.7-0.2,1.4-0.5,2.1-0.9l1.3,0.9
					c0.3,0.2,0.8,0.2,1-0.1l2-2c0.3-0.3,0.3-0.7,0.1-1L19,15.5c0.3-0.6,0.6-1.3,0.8-2l1.5-0.3c0.4-0.1,0.7-0.4,0.7-0.8V9.6
					C22,9.2,21.7,8.9,21.3,8.8z M11,15.4c-2.4,0-4.4-2-4.4-4.4s2-4.4,4.4-4.4s4.4,2,4.4,4.4S13.4,15.4,11,15.4z"/>
			</g>
		</g>
	</g>
</g>
</svg>
