<?xml version="1.0" encoding="utf-8"?>
<!-- Generator: Adobe Illustrator 24.0.1, SVG Export Plug-In . SVG Version: 6.00 Build 0)  -->
<svg version="1.1" id="Layer_1" xmlns="http://www.w3.org/2000/svg" xmlns:xlink="http://www.w3.org/1999/xlink" x="0px" y="0px"
	 width="24px" height="31px" viewBox="0 0 24 31" style="enable-background:new 0 0 24 31;" xml:space="preserve">
<style type="text/css">
	.st0{fill:#4ACCFF;}
</style>
<g>
	<g>
		<path class="st0" d="M22.6,15.6c0.3,0,0.6-0.2,0.6-0.6c0-0.3-0.3-0.6-0.6-0.6h-1.3v-1.3h1.3c0.4,0,0.6-0.3,0.6-0.6
			c0-0.4-0.3-0.6-0.6-0.6h-1.9c-0.4,0-0.6,0.3-0.6,0.6v1.9h-1.3v-0.7c0-1-0.9-1.9-1.9-1.9h-0.7v-1.2h1.9c0.4,0,0.6-0.3,0.6-0.6v-2
			c0-0.4-0.3-0.6-0.6-0.6c-0.4,0-0.6,0.3-0.6,0.6v1.3h-1.3V8.1c0-0.3-0.3-0.6-0.6-0.6c-0.4,0-0.6,0.3-0.6,0.6v3.8h-2.1V8.1
			c-0.1-0.3-0.3-0.6-0.7-0.6s-0.6,0.3-0.6,0.6v3.8H9.4V8.1c0-0.3-0.2-0.6-0.6-0.6c-0.3,0-0.6,0.3-0.6,0.6v1.3H6.9V8.1
			c0-0.3-0.3-0.6-0.6-0.6c-0.4,0-0.7,0.3-0.7,0.6v1.9c0,0.4,0.3,0.6,0.6,0.6h2v1.3H7.5c-1,0-1.9,0.9-1.9,1.9v0.7H4.4v-1.9
			c0-0.4-0.3-0.6-0.6-0.6h-2c-0.3-0.1-0.6,0.2-0.6,0.6c0,0.4,0.3,0.6,0.6,0.6h1.3v1.3H1.8c-0.3,0-0.6,0.3-0.6,0.6
			c0,0.4,0.3,0.6,0.6,0.6h3.8v2.1H1.8c-0.3,0.1-0.6,0.3-0.6,0.7c0,0.4,0.3,0.6,0.6,0.6h3.8v2.1H1.8c-0.3,0.1-0.6,0.3-0.6,0.7
			c0,0.3,0.3,0.6,0.6,0.6h1.3v1.3H1.8c-0.4,0-0.6,0.3-0.6,0.6c0,0.4,0.3,0.6,0.6,0.6h1.9c0.4,0,0.6-0.3,0.6-0.6v-1.9h1.3V23
			c0,1,0.9,1.9,1.9,1.9h0.7v1.3H6.3c-0.4,0-0.6,0.3-0.6,0.6v1.9c0,0.4,0.3,0.6,0.6,0.6c0.4,0,0.6-0.3,0.6-0.6v-1.3h1.3v1.3
			c0,0.4,0.3,0.7,0.6,0.7c0.4,0,0.6-0.3,0.6-0.6V25h2.1v3.8c0,0.4,0.3,0.6,0.6,0.6s0.6-0.3,0.6-0.6V25h2.1v3.8
			c0,0.4,0.3,0.6,0.6,0.6c0.4,0,0.6-0.3,0.6-0.6v-1.3h1.3v1.3c0,0.4,0.3,0.6,0.6,0.6c0.4,0,0.6-0.3,0.6-0.6V27
			c0-0.4-0.3-0.6-0.6-0.6h-1.7V25h0.6c1,0,1.9-0.9,1.9-1.9v-0.7H20v1.9c0,0.4,0.3,0.6,0.6,0.6h1.9c0.4,0,0.6-0.3,0.6-0.6
			c0-0.4-0.3-0.6-0.6-0.6h-1.3v-1.3h1.3c0.4,0,0.6-0.3,0.6-0.6c0-0.4-0.3-0.6-0.6-0.6h-3.8v-2.1h3.8c0.4,0,0.6-0.3,0.6-0.6
			c0-0.3-0.3-0.6-0.6-0.6h-3.8v-2.3H22.6z M17.1,18.1h-1.4v0.6h1.4v0.9h-1.4v2.7h-2.4l-3.1-5.2v5.2H8.6v-2.7H7.3v-0.9h1.4v-0.6H7.3
			v-0.9h1.4v-2.7h2.1l3.3,5.7v-5.7h1.7v2.7h1.4v0.9H17.1z"/>
	</g>
</g>
</svg>
