<?xml version="1.0" encoding="utf-8"?>
<!-- Generator: Adobe Illustrator 24.0.1, SVG Export Plug-In . SVG Version: 6.00 Build 0)  -->
<svg version="1.1" id="Layer_1" xmlns="http://www.w3.org/2000/svg" xmlns:xlink="http://www.w3.org/1999/xlink" x="0px" y="0px"
	 width="24px" height="40px" viewBox="0 0 24 40" style="enable-background:new 0 0 24 40;" xml:space="preserve">
<style type="text/css">
	.st0{fill:#4CAAFF;}
</style>
<g id="Address-Active">
	<g id="Group-2" transform="translate(3.000000, 12.000000)">
		<g id="Layer_1_1_">
			<g id="Address-Book_1_">
				<path class="st0" d="M15.8,0H3.6C2.1,0,0.8,1.2,0.8,2.8v1.4h-1.4v2.8h1.4v2.7h-1.4v2.8h1.4v2.8h-1.4v2.8h1.4v1.4
					C0.8,20.7,2,22,3.6,22h12.2c1.5,0,2.8-1.2,2.8-2.8V2.8C18.5,1.2,17.3,0,15.8,0L15.8,0z M9.7,5.4c1.5,0,2.8,1.2,2.8,2.8
					c0,1.5-1.2,2.7-2.8,2.7S6.9,9.7,6.9,8.2C6.9,6.6,8.2,5.4,9.7,5.4z M14.4,14.9H5v-1.4c0-1,0.7-1.8,1.8-2.2c1.8-0.7,4.2-0.7,6,0
					c1.1,0.4,1.8,1.3,1.8,2.2L14.4,14.9L14.4,14.9z"/>
			</g>
		</g>
	</g>
</g>
</svg>
