<?xml version="1.0" encoding="utf-8"?>
<!-- Generator: Adobe Illustrator 24.0.1, SVG Export Plug-In . SVG Version: 6.00 Build 0)  -->
<svg version="1.1" id="Layer_1" xmlns="http://www.w3.org/2000/svg" xmlns:xlink="http://www.w3.org/1999/xlink" x="0px" y="0px"
	 width="24px" height="40px" viewBox="0 0 24 40" style="enable-background:new 0 0 24 40;" xml:space="preserve">
<style type="text/css">
	.st0{fill:#4CAAFF;}
</style>
<g id="Dashboard_1_">
	<path class="st0" d="M9.5,11H2.6C1.7,11,1,11.7,1,12.6v4.1c0,0.9,0.7,1.6,1.6,1.6h6.9c0.9,0,1.6-0.7,1.6-1.6v-4.1
		C11.1,11.7,10.4,11,9.5,11z"/>
	<path class="st0" d="M9.5,20.2H2.6c-0.9,0-1.6,0.7-1.6,1.6v9.6C1,32.3,1.7,33,2.6,33h6.9c0.9,0,1.6-0.7,1.6-1.6v-9.6
		C11.1,20.9,10.4,20.2,9.5,20.2z"/>
	<path class="st0" d="M21.4,25.7h-6.9c-0.9,0-1.6,0.7-1.6,1.6v4.1c0,0.9,0.7,1.6,1.6,1.6h6.9c0.9,0,1.6-0.7,1.6-1.6v-4.1
		C23,26.4,22.3,25.7,21.4,25.7z"/>
	<path class="st0" d="M21.4,11h-6.9c-0.9,0-1.6,0.7-1.6,1.6v9.6c0,0.9,0.7,1.6,1.6,1.6h6.9c0.9,0,1.6-0.7,1.6-1.6v-9.6
		C23,11.7,22.3,11,21.4,11z"/>
</g>
</svg>
