<?xml version="1.0" encoding="utf-8"?>
<!-- Generator: Adobe Illustrator 24.0.1, SVG Export Plug-In . SVG Version: 6.00 Build 0)  -->
<svg version="1.1" id="Layer_1" xmlns="http://www.w3.org/2000/svg" xmlns:xlink="http://www.w3.org/1999/xlink" x="0px" y="0px"
	 width="24px" height="40px" viewBox="0 0 24 40" style="enable-background:new 0 0 24 40;" xml:space="preserve">
<style type="text/css">
	.st0{fill:#778591;}
	.st1{fill:none;}
</style>
<g id="Send-Off-Copy">
	<g id="ic-send-off" transform="translate(0.000000, 11.000000)">
		<g>
			<g>
				<path class="st0" d="M23.2,1.9c-0.3-0.3-0.6-0.3-0.8-0.2L3.6,9.2C3.2,9.4,3,9.7,3,10s0.3,0.6,0.6,0.7l8.3,2.5l2.5,8.2
					c0.1,0.3,0.4,0.5,0.7,0.6h0c0.3,0,0.6-0.2,0.7-0.5l7.5-18.9C23.6,2.4,23.5,2.1,23.2,1.9z"/>
			</g>
		</g>
		<g>
			<g>
				
					<rect x="2.4" y="18.7" transform="matrix(0.7071 -0.7071 0.7071 0.7071 -12.2348 9.5162)" class="st0" width="5.9" height="1.6"/>
			</g>
		</g>
		<g>
			<g>
				
					<rect x="0.2" y="14.3" transform="matrix(0.7071 -0.7071 0.7071 0.7071 -9.7432 6.6246)" class="st0" width="5.9" height="1.6"/>
			</g>
		</g>
		<g>
			<g>
				<rect x="6.9" y="21" transform="matrix(0.7071 -0.7071 0.7071 0.7071 -12.5076 13.312)" class="st0" width="5.9" height="1.6"/>
			</g>
		</g>
		<polygon id="Rectangle_4395" class="st1" points="1,0 27,0 27,26 1,26 		"/>
	</g>
</g>
</svg>
