<?xml version="1.0" encoding="utf-8"?>
<!-- Generator: Adobe Illustrator 24.0.1, SVG Export Plug-In . SVG Version: 6.00 Build 0)  -->
<svg version="1.1" id="Layer_1" xmlns="http://www.w3.org/2000/svg" xmlns:xlink="http://www.w3.org/1999/xlink" x="0px" y="0px"
	 width="24px" height="40px" viewBox="0 0 24 40" style="enable-background:new 0 0 24 40;" xml:space="preserve">
<style type="text/css">
	.st0{fill:#FFFFFF;}
</style>
<g id="Send-Off">
	<g>
		<g>
			<path class="st0" d="M23.2,12.9c-0.3-0.3-0.6-0.3-0.8-0.2L3.6,20.2C3.2,20.4,3,20.7,3,21s0.3,0.6,0.6,0.7l8.3,2.5l2.5,8.2
				c0.1,0.3,0.4,0.5,0.7,0.6h0c0.3,0,0.6-0.2,0.7-0.5l7.5-18.9C23.6,13.4,23.5,13.1,23.2,12.9z"/>
		</g>
	</g>
	<g>
		<g>
			
				<rect x="2.4" y="29.7" transform="matrix(0.7071 -0.7071 0.7071 0.7071 -20.013 12.7381)" class="st0" width="5.9" height="1.6"/>
		</g>
	</g>
	<g>
		<g>
			
				<rect x="0.2" y="25.3" transform="matrix(0.7071 -0.7071 0.7071 0.7071 -17.5214 9.8465)" class="st0" width="5.9" height="1.6"/>
		</g>
	</g>
	<g>
		<g>
			<rect x="6.9" y="32" transform="matrix(0.7071 -0.7071 0.7071 0.7071 -20.2858 16.5339)" class="st0" width="5.9" height="1.6"/>
		</g>
	</g>
</g>
</svg>
