<?xml version="1.0" encoding="utf-8"?>
<!-- Generator: Adobe Illustrator 24.0.1, SVG Export Plug-In . SVG Version: 6.00 Build 0)  -->
<svg version="1.1" id="Layer_1" xmlns="http://www.w3.org/2000/svg" xmlns:xlink="http://www.w3.org/1999/xlink" x="0px" y="0px"
	 width="24px" height="40px" viewBox="0 0 24 40" style="enable-background:new 0 0 24 40;" xml:space="preserve">
<style type="text/css">
	.st0{fill:#FFFFFF;}
</style>
<g id="Address">
	<g id="Group-2_1_" transform="translate(3.000000, 12.000000)">
		<g id="Layer_1_1_">
			<g id="Address-Book_1_">
				<path class="st0" d="M15.7,0H3.4C2,0,0.7,1.2,0.7,2.8v1.4h-1.4v2.8h1.4v2.7h-1.4v2.8h1.4v2.8h-1.4v2.8h1.4v1.4
					c0,1.5,1.2,2.8,2.8,2.8h12.2c1.5,0,2.8-1.2,2.8-2.8V2.8C18.3,1.2,17.1,0,15.7,0L15.7,0z M9.6,5.4c1.5,0,2.8,1.2,2.8,2.8
					c0,1.5-1.2,2.7-2.8,2.7S6.8,9.7,6.8,8.2C6.8,6.6,8.1,5.4,9.6,5.4z M14.3,14.9H4.8v-1.4c0-1,0.7-1.8,1.8-2.2c1.8-0.7,4.2-0.7,6,0
					c1.1,0.4,1.8,1.3,1.8,2.2L14.3,14.9L14.3,14.9z"/>
			</g>
		</g>
	</g>
</g>
</svg>
