<?xml version="1.0" encoding="utf-8"?>
<!-- Generator: Adobe Illustrator 24.0.1, SVG Export Plug-In . SVG Version: 6.00 Build 0)  -->
<svg version="1.1" id="Layer_1" xmlns="http://www.w3.org/2000/svg" xmlns:xlink="http://www.w3.org/1999/xlink" x="0px" y="0px"
	 width="30px" height="30px" viewBox="0 0 30 30" style="enable-background:new 0 0 30 30;" xml:space="preserve">
<style type="text/css">
	.st0{opacity:0.7;}
	.st1{fill:#778591;stroke:#778591;stroke-miterlimit:10;}
	.st2{fill:none;}
</style>
<g id="ic_pending" class="st0">
	<g id="Group_8850">
		<path id="Path_18903" class="st1" d="M15,27C8.2,27,2.7,21.4,3,14.5C3.2,8.4,8.4,3.2,14.5,3C21.4,2.7,27,8.2,27,15
			C27,21.6,21.6,27,15,27z M15,6c-5.1,0-9.1,4.2-9,9.3c0.1,4.7,4,8.6,8.7,8.7c5.1,0.1,9.3-3.9,9.3-9C24,10,20,6,15,6z"/>
	</g>
	<g id="Group_8851">
		<path id="Path_18904" class="st1" d="M20.5,18H14c-0.3,0-0.5-0.2-0.5-0.5V9.5C13.5,9.2,13.7,9,14,9H16c0.3,0,0.5,0.2,0.5,0.5v4.9
			c0,0.3,0.2,0.5,0.5,0.5h3.4c0.3,0,0.5,0.2,0.5,0.5v1.9C21,17.8,20.8,18,20.5,18z"/>
	</g>
	<path id="Rectangle_4429" class="st2" d="M0,0h30v30H0V0z"/>
</g>
</svg>
