<?xml version="1.0" encoding="utf-8"?>
<!-- Generator: Adobe Illustrator 24.0.1, SVG Export Plug-In . SVG Version: 6.00 Build 0)  -->
<svg version="1.1" id="ic_receive_on" xmlns="http://www.w3.org/2000/svg" xmlns:xlink="http://www.w3.org/1999/xlink" x="0px"
	 y="0px" width="26px" height="26px" viewBox="0 0 26 26" style="enable-background:new 0 0 26 26;" xml:space="preserve">
<style type="text/css">
	.st0{fill:#4CAAFF;}
	.st1{fill:none;}
</style>
<g>
	<g>
		<path class="st0" d="M19.2,11.3l-1.7-1.7c-0.2-0.2-0.6-0.2-0.8,0l-2,2V3.6c0-0.3-0.3-0.6-0.6-0.6h-2.3c-0.3,0-0.6,0.3-0.6,0.6v8.1
			l-2-2C9,9.4,8.6,9.4,8.4,9.7l-1.7,1.7c-0.2,0.2-0.2,0.6,0,0.8l5.8,5.8c0.2,0.2,0.6,0.2,0.8,0l5.8-5.8
			C19.4,11.9,19.4,11.6,19.2,11.3z"/>
	</g>
</g>
<g>
	<g>
		<path class="st0" d="M22.4,16h-2.3c-0.3,0-0.6,0.3-0.6,0.6v2.9h-13v-2.9c0-0.3-0.3-0.6-0.6-0.6H3.6C3.3,16,3,16.2,3,16.6v4.7
			c0,1,0.8,1.8,1.8,1.8h16.5c1,0,1.8-0.8,1.8-1.8v-4.7C23,16.2,22.7,16,22.4,16z"/>
	</g>
</g>
<path id="Rectangle" class="st1" d="M0,0h26v26H0V0z"/>
</svg>
