<?xml version="1.0" encoding="utf-8"?>
<!-- Generator: Adobe Illustrator 24.0.1, SVG Export Plug-In . SVG Version: 6.00 Build 0)  -->
<svg version="1.1" id="Layer_1" xmlns="http://www.w3.org/2000/svg" xmlns:xlink="http://www.w3.org/1999/xlink" x="0px" y="0px"
	 width="28px" height="24px" viewBox="0 0 28 24" style="enable-background:new 0 0 28 24;" xml:space="preserve">
<style type="text/css">
	.st0{fill:#FFFFFF;}
</style>
<g id="Sub-Menu-UnLocked">
	<g id="ic-check-locked-off" transform="translate(9.000000, 2.000000)">
		<g>
			<g>
				<path class="st0" d="M15.1,7.5h-1.3V5.8c0-3.2-2.6-5.8-5.8-5.8S2.1,2.6,2.1,5.8v0.4c0,0.2,0.2,0.4,0.4,0.4h1.7
					c0.2,0,0.4-0.2,0.4-0.4V5.8c0-1.8,1.5-3.3,3.3-3.3s3.3,1.5,3.3,3.3v1.7H0.8c-0.2,0-0.4,0.2-0.4,0.4v10.4c0,0.9,0.7,1.7,1.7,1.7
					h11.7c0.9,0,1.7-0.7,1.7-1.7V7.9C15.4,7.7,15.2,7.5,15.1,7.5z M9.1,16.2c0,0.1,0,0.2-0.1,0.3c-0.1,0.1-0.2,0.1-0.3,0.1H7
					c-0.1,0-0.2-0.1-0.3-0.1s-0.1-0.2-0.1-0.3l0.3-2.4c-0.4-0.3-0.7-0.8-0.7-1.3c0-0.9,0.7-1.7,1.7-1.7c0.9,0,1.7,0.7,1.7,1.7
					c0,0.5-0.3,1-0.7,1.3L9.1,16.2z"/>
			</g>
		</g>
	</g>
</g>
</svg>
