<?xml version="1.0" encoding="utf-8"?>
<!-- Generator: Adobe Illustrator 24.0.1, SVG Export Plug-In . SVG Version: 6.00 Build 0)  -->
<svg version="1.1" id="Layer_1" xmlns="http://www.w3.org/2000/svg" xmlns:xlink="http://www.w3.org/1999/xlink" x="0px" y="0px"
	 width="40px" height="26px" viewBox="0 0 40 26" style="enable-background:new 0 0 40 26;" xml:space="preserve">
<style type="text/css">
	.st0{opacity:0.5;fill-rule:evenodd;clip-rule:evenodd;fill:#B7B7B7;enable-background:new    ;}
	.st1{fill:#B7B7B7;}
</style>
<g id="switch_on" transform="rotate(180 20 10.5)">
	<path id="switch_path" class="st0" d="M34,10.2c0,3.8-3.1,7-6.9,7c0,0-0.1,0-0.1,0H7c-3.8,0-7-3.1-7-6.9c0,0,0-0.1,0-0.1
		c0-3.8,3.1-7,6.9-7c0,0,0.1,0,0.1,0h20C30.8,3.2,34,6.3,34,10.2C34,10.2,34,10.2,34,10.2z"/>
	<g transform="rotate(180 20 10.5)">
		<path id="switch_button-2" class="st1" d="M13,21C7.5,21,3,16.5,3,11S7.5,1,13,1s10,4.5,10,10S18.5,21,13,21z"/>
	</g>
</g>
</svg>
