<?xml version="1.0" encoding="utf-8"?>
<!-- Generator: Adobe Illustrator 24.0.1, SVG Export Plug-In . SVG Version: 6.00 Build 0)  -->
<svg version="1.1" id="Layer_1" xmlns="http://www.w3.org/2000/svg" xmlns:xlink="http://www.w3.org/1999/xlink" x="0px" y="0px"
	 width="40px" height="26px" viewBox="0 0 40 26" style="enable-background:new 0 0 40 26;" xml:space="preserve">
<style type="text/css">
	.st0{opacity:0.5;fill-rule:evenodd;clip-rule:evenodd;fill:#3883C8;enable-background:new    ;}
	.st1{fill:#3883C8;}
</style>
<g id="switch_on" transform="translate(0 1)">
	<path id="switch_path" class="st0" d="M34,10.2c0,3.8-3.1,7-6.9,7c0,0-0.1,0-0.1,0H7c-3.8,0-7-3.1-7-6.9c0,0,0-0.1,0-0.1
		c0-3.8,3.1-7,6.9-7c0,0,0.1,0,0.1,0h20C30.8,3.2,34,6.3,34,10.2C34,10.2,34,10.2,34,10.2z"/>
	<g transform="translate(0 -1)">
		<path id="switch_button-2" class="st1" d="M27,1c5.5,0,10,4.5,10,10s-4.5,10-10,10s-10-4.5-10-10S21.5,1,27,1z"/>
	</g>
</g>
</svg>
