<?xml version="1.0" encoding="utf-8"?>
<!-- Generator: Adobe Illustrator 24.0.1, SVG Export Plug-In . SVG Version: 6.00 Build 0)  -->
<svg version="1.1" id="Layer_1" xmlns="http://www.w3.org/2000/svg" xmlns:xlink="http://www.w3.org/1999/xlink" x="0px" y="0px"
	 width="28px" height="24px" viewBox="0 0 28 24" style="enable-background:new 0 0 28 24;" xml:space="preserve">
<style type="text/css">
	.st0{fill:#FFFFFF;}
	.st1{fill:none;}
</style>
<g id="Sub-Menu-Locked-Copy-2">
	<g id="ic-check-locked" transform="translate(4.000000, 0.000000)">
		<g>
			<g>
				<path class="st0" d="M20,9.5h-1.3V7.8c0-3.2-2.6-5.8-5.8-5.8S7.1,4.6,7.1,7.8v1.7H5.8c-0.2,0-0.4,0.2-0.4,0.4v10.4
					c0,0.9,0.7,1.7,1.7,1.7h11.7c0.9,0,1.7-0.7,1.7-1.7V9.9C20.5,9.7,20.3,9.5,20,9.5z M14.1,18.2c0,0.1,0,0.2-0.1,0.3
					c-0.1,0.1-0.2,0.1-0.3,0.1H12c-0.1,0-0.2-0.1-0.3-0.1s-0.1-0.2-0.1-0.3l0.3-2.4c-0.4-0.3-0.7-0.8-0.7-1.3c0-0.9,0.7-1.7,1.7-1.7
					c0.9,0,1.7,0.7,1.7,1.7c0,0.5-0.3,1-0.7,1.3L14.1,18.2z M16.3,9.5H9.6V7.8c0-1.8,1.5-3.3,3.3-3.3s3.3,1.5,3.3,3.3V9.5z"/>
			</g>
		</g>
		<polygon id="Rectangle_4417" class="st1" points="0,0 24,0 24,24 0,24 		"/>
	</g>
</g>
</svg>
