<?xml version="1.0" encoding="utf-8"?>
<!-- Generator: Adobe Illustrator 24.0.1, SVG Export Plug-In . SVG Version: 6.00 Build 0)  -->
<svg version="1.1" id="ic-transaction-staked" xmlns="http://www.w3.org/2000/svg" xmlns:xlink="http://www.w3.org/1999/xlink"
	 x="0px" y="0px" width="24px" height="24px" viewBox="0 0 24 24" style="enable-background:new 0 0 24 24;" xml:space="preserve">
<style type="text/css">
	.st0{fill:#707070;}
</style>
<g>
	<g>
		<path class="st0" d="M20.7,5.9h-1.5c0.2-0.3,0.3-0.6,0.4-1c0.1-1.2-0.5-2.2-1.5-2.6c-1-0.4-2-0.2-2.8,0.4l-1.8,1.7
			C13.1,4,12.6,3.7,12,3.7c-0.6,0-1.1,0.2-1.4,0.6L8.7,2.7C7.9,2,6.9,1.8,5.9,2.2c-1,0.5-1.6,1.5-1.5,2.6c0,0.4,0.2,0.7,0.4,1H3.3
			C2.6,5.9,2,6.5,2,7.2v2c0,0.4,0.3,0.7,0.7,0.7h18.7c0.4,0,0.7-0.3,0.7-0.7v-2C22,6.5,21.4,5.9,20.7,5.9z M10,5.7v0.2H7
			c-0.8,0-1.5-0.8-1.2-1.6c0.1-0.4,0.4-0.7,0.7-0.9c0.5-0.2,1-0.1,1.4,0.2L10,5.7C10,5.7,10,5.7,10,5.7z M18.3,4.7
			c0,0.7-0.7,1.2-1.3,1.2h-3V5.7c0,0,0,0,0,0c0.5-0.5,1.6-1.4,2.2-2c0.3-0.3,0.8-0.4,1.2-0.3C18,3.5,18.4,4.1,18.3,4.7z"/>
	</g>
</g>
<g>
	<g>
		<path class="st0" d="M12.5,17.5c0.2,0.2,0.3,0.5,0.4,0.9v0.1c0,0.5-0.4,0.9-0.8,0.9s-0.8-0.4-0.8-0.9v-0.1c0-0.2,0-0.3,0.1-0.4
			c0.1,0.2,0.2,0.3,0.5,0.3c0.1,0,0.1-0.1,0.1-0.1c0-0.2,0-0.4,0.1-0.6c0-0.2,0.1-0.4,0.3-0.5C12.3,17.2,12.4,17.4,12.5,17.5z"/>
		<path class="st0" d="M3.3,10.6v10c0,0.8,0.6,1.4,1.3,1.4h14.8c0.7,0,1.3-0.6,1.3-1.4v-10H3.3z M13.8,18.9
			c-0.5,0.5-1.1,0.7-1.8,0.7c0,0,0,0,0,0c-1.4,0-2.5-1.1-2.5-2.5V17c0-1.4,0.7-1.8,0.8-1.8c0,0,0.1,0,0.1,0c0,0,0.1,0.1,0.1,0.1
			c0,0,0.1,0.8,0.7,1c0-0.4,0-0.9,0.1-1.4c0.2-0.7,0.7-1.4,1.3-1.9c0,0,0.1,0,0.2,0c0,0,0.1,0.1,0.1,0.1c0,0.7,0.3,1.1,0.7,1.6
			c0.4,0.6,0.9,1.2,1,2.2c0,0,0,0.2,0,0.3C14.5,17.8,14.2,18.5,13.8,18.9z"/>
	</g>
</g>
</svg>
