<?xml version="1.0" encoding="utf-8"?>
<!-- Generator: Adobe Illustrator 24.0.1, SVG Export Plug-In . SVG Version: 6.00 Build 0)  -->
<svg version="1.1" id="ic-transaction-mint" xmlns="http://www.w3.org/2000/svg" xmlns:xlink="http://www.w3.org/1999/xlink"
	 x="0px" y="0px" width="24px" height="24px" viewBox="0 0 24 24" style="enable-background:new 0 0 24 24;" xml:space="preserve">
<style type="text/css">
	.st0{fill:#707070;}
	.st1{fill:none;}
</style>
<g id="Group">
	<path id="Path_18880" class="st0" d="M9,12c0,1.7,1.3,3,3,3s3-1.3,3-3s-1.3-3-3-3S9,10.3,9,12z M13.5,12c0,0.8-0.7,1.5-1.5,1.5
		s-1.5-0.7-1.5-1.5s0.7-1.5,1.5-1.5S13.5,11.2,13.5,12z"/>
	<g>
		<g>
			<path class="st0" d="M20.1,8.4l-0.8-5.8c-0.1-0.5-0.7-0.7-1-0.3l-1.2,1.2C15.5,2.5,13.8,2,12,2C6.5,2,2.1,6.3,2,11.7
				c0,0.3,0.2,0.6,0.5,0.6l2.3,0.3c0.3,0.1,0.7-0.2,0.7-0.6c0-3.6,2.9-6.5,6.4-6.5c0.9,0,1.7,0.2,2.5,0.5l-1.2,1.2
				c-0.3,0.3-0.1,0.9,0.3,1L19.5,9C19.8,9.1,20.2,8.7,20.1,8.4z"/>
		</g>
	</g>
	<g>
		<g>
			<path class="st0" d="M21.5,11.7l-2.3-0.3c-0.3,0-0.7,0.2-0.7,0.6c0,3.6-2.9,6.4-6.4,6.4c-0.9,0-1.7-0.2-2.5-0.5l1.1-1.1
				c0.3-0.3,0.1-0.9-0.3-1L4.5,15c-0.4-0.1-0.7,0.3-0.7,0.7l0.8,5.8c0.1,0.5,0.7,0.7,1,0.3l1.2-1.2C8.5,21.5,10.2,22,12,22
				c5.4,0,9.8-4.2,10-9.7C22,12,21.8,11.8,21.5,11.7z"/>
		</g>
	</g>
</g>
<path id="Rectangle" class="st1" d="M0,0h24v24H0V0z"/>
</svg>
