<?xml version="1.0" encoding="utf-8"?>
<!-- Generator: Adobe Illustrator 24.0.1, SVG Export Plug-In . SVG Version: 6.00 Build 0)  -->
<svg version="1.1" id="ic-transaction-staked" xmlns="http://www.w3.org/2000/svg" xmlns:xlink="http://www.w3.org/1999/xlink"
	 x="0px" y="0px" width="24px" height="24px" viewBox="0 0 24 24" style="enable-background:new 0 0 24 24;" xml:space="preserve">
<style type="text/css">
	.st0{fill:#B7B7B7;}
</style>
<g>
	<g>
		<path class="st0" d="M22.1,5.2l-4.7-3.2c-0.3-0.2-0.6,0-0.6,0.3v1.7H3.4c-0.8,0-1.5,0.7-1.5,1.5v7.7h2.9V7h12v1.7
			c0,0.3,0.3,0.5,0.6,0.3l4.7-3.2C22.4,5.7,22.4,5.4,22.1,5.2z"/>
		<path class="st0" d="M19.1,17h-12v-1.7c0-0.3-0.3-0.5-0.6-0.3l-4.7,3.2c-0.2,0.2-0.2,0.5,0,0.6l4.7,3.2c0.3,0.2,0.6,0,0.6-0.3
			v-1.7h13.4c0.8,0,1.5-0.7,1.5-1.5v-7.7h-2.9L19.1,17L19.1,17L19.1,17z"/>
	</g>
</g>
</svg>
