<?xml version="1.0" encoding="utf-8"?>
<!-- Generator: Adobe Illustrator 24.0.1, SVG Export Plug-In . SVG Version: 6.00 Build 0)  -->
<svg version="1.1" id="ic-transaction-sent" xmlns="http://www.w3.org/2000/svg" xmlns:xlink="http://www.w3.org/1999/xlink"
	 x="0px" y="0px" width="24px" height="24px" viewBox="0 0 24 24" style="enable-background:new 0 0 24 24;" xml:space="preserve">
<style type="text/css">
	.st0{fill:#707070;}
	.st1{fill:none;}
</style>
<g>
	<g>
		<path class="st0" d="M22.4,1.7c-0.2-0.2-0.5-0.3-0.8-0.2l-17.4,7C3.9,8.6,3.7,8.9,3.7,9.2S4,9.8,4.3,9.9l7.6,2.4l2.4,7.6
			c0.1,0.3,0.3,0.5,0.7,0.5h0c0.3,0,0.5-0.2,0.7-0.5l7-17.4C22.7,2.2,22.6,1.9,22.4,1.7z"/>
	</g>
</g>
<g>
	<g>
		<rect x="3.2" y="17.3" transform="matrix(0.7071 -0.7071 0.7071 0.7071 -11.0211 9.4379)" class="st0" width="5.4" height="1.4"/>
	</g>
</g>
<g>
	<g>
		<rect x="1.1" y="13.2" transform="matrix(0.7071 -0.7071 0.7071 0.7071 -8.722 6.7696)" class="st0" width="5.4" height="1.4"/>
	</g>
</g>
<g>
	<g>
		
			<rect x="7.3" y="19.4" transform="matrix(0.7071 -0.7071 0.7071 0.7071 -11.2729 12.9404)" class="st0" width="5.4" height="1.4"/>
	</g>
</g>
<path id="Rectangle_4412" class="st1" d="M0,0h24v24H0V0z"/>
</svg>
