<?xml version="1.0" encoding="utf-8"?>
<!-- Generator: Adobe Illustrator 24.0.1, SVG Export Plug-In . SVG Version: 6.00 Build 0)  -->
<svg version="1.1" id="ic-transaction-received" xmlns="http://www.w3.org/2000/svg" xmlns:xlink="http://www.w3.org/1999/xlink"
	 x="0px" y="0px" width="24px" height="24px" viewBox="0 0 24 24" style="enable-background:new 0 0 24 24;" xml:space="preserve">
<style type="text/css">
	.st0{fill:#707070;}
	.st1{fill:none;}
</style>
<g>
	<g>
		<path class="st0" d="M18.2,10.3l-1.7-1.7c-0.2-0.2-0.6-0.2-0.8,0l-2,2v-8c0-0.3-0.3-0.6-0.6-0.6h-2.3c-0.3,0-0.6,0.3-0.6,0.6v8.1
			l-2-2C8,8.4,7.6,8.4,7.4,8.7l-1.7,1.7c-0.2,0.2-0.2,0.6,0,0.8l5.8,5.8c0.2,0.2,0.6,0.2,0.8,0l5.8-5.8
			C18.4,10.9,18.4,10.6,18.2,10.3z"/>
	</g>
</g>
<g>
	<g>
		<path class="st0" d="M21.4,15h-2.3c-0.3,0-0.6,0.3-0.6,0.6v2.9h-13v-2.9c0-0.3-0.3-0.6-0.6-0.6H2.6C2.3,15,2,15.2,2,15.6v4.7
			c0,1,0.8,1.8,1.8,1.8h16.5c1,0,1.8-0.8,1.8-1.8v-4.7C22,15.2,21.7,15,21.4,15z"/>
	</g>
</g>
<path id="Rectangle" class="st1" d="M0,0h24v24H0V0z"/>
</svg>
