<?xml version="1.0" encoding="utf-8"?>
<!-- Generator: Adobe Illustrator 24.0.1, SVG Export Plug-In . SVG Version: 6.00 Build 0)  -->
<svg version="1.1" id="Layer_1" xmlns="http://www.w3.org/2000/svg" xmlns:xlink="http://www.w3.org/1999/xlink" x="0px" y="0px"
	 width="24px" height="24px" viewBox="0 0 24 24" style="enable-background:new 0 0 24 24;" xml:space="preserve">
<style type="text/css">
	.st0{fill:none;}
	.st1{fill:#4CAAFF;}
</style>
<g id="Artboard">
	<g id="ic-update-liliac" transform="translate(2.000000, 2.000000)">
		<polygon id="Rectangle_4642" class="st0" points="0,0 20,0 20,20 0,20 		"/>
		<g>
			<g>
				<path class="st1" d="M17.5,12.5c0.1-0.3-0.1-0.6-0.4-0.7L15,11.3c-0.3-0.1-0.5,0.1-0.6,0.3c-0.3,0.8-0.8,1.5-1.4,2
					c-2,1.7-5.1,1.5-6.8-0.5S4.8,8,6.8,6.3c1.9-1.6,4.7-1.5,6.4,0.2l-1.2,1c-0.3,0.3-0.2,0.8,0.2,0.9l5.2,1.2
					c0.3,0.1,0.7-0.2,0.7-0.5l-0.3-5.3c0-0.4-0.5-0.7-0.9-0.4l-1.2,1C12.8,1.4,8,1.1,4.8,3.9c-3.4,2.8-3.9,7.9-1,11.3
					s7.9,3.8,11.3,0.9C16.2,15.2,17.1,13.9,17.5,12.5z"/>
			</g>
		</g>
	</g>
</g>
</svg>
