<?xml version="1.0" encoding="utf-8"?>
<!-- Generator: Adobe Illustrator 24.0.1, SVG Export Plug-In . SVG Version: 6.00 Build 0)  -->
<svg version="1.1" id="Group_9077" xmlns="http://www.w3.org/2000/svg" xmlns:xlink="http://www.w3.org/1999/xlink" x="0px" y="0px"
	 width="24px" height="24px" viewBox="0 0 24 24" style="enable-background:new 0 0 24 24;" xml:space="preserve">
<style type="text/css">
	.st0{fill:none;}
	.st1{fill:#FFFFFF;}
</style>
<path id="Rectangle_3656" class="st0" d="M0,0h24v24H0V0z"/>
<g>
	<g>
		<g>
			<path class="st1" d="M23,11.9C21.4,7,17,3.7,12,3.7S2.6,7,1,11.9C1,12,1,12,1,12.1c1.6,4.9,6,8.1,11,8.1s9.4-3.3,11-8.1
				C23,12,23,12,23,11.9z M12,18.4c-3.5,0-6.4-2.9-6.4-6.4S8.5,5.6,12,5.6s6.4,2.9,6.4,6.4S15.5,18.4,12,18.4z"/>
			<circle class="st1" cx="12" cy="12" r="3.7"/>
		</g>
	</g>
</g>
</svg>
