<?xml version="1.0" encoding="utf-8"?>
<!-- Generator: Adobe Illustrator 24.0.1, SVG Export Plug-In . SVG Version: 6.00 Build 0)  -->
<svg version="1.1" id="ic_unlock_staking" xmlns="http://www.w3.org/2000/svg" xmlns:xlink="http://www.w3.org/1999/xlink" x="0px"
	 y="0px" width="24px" height="24px" viewBox="0 0 24 24" style="enable-background:new 0 0 24 24;" xml:space="preserve">
<style type="text/css">
	.st0{fill:none;}
	.st1{fill:#778591;}
</style>
<g id="Group_8891">
	<path id="Rectangle" class="st0" d="M0,0h24v24H0V0z"/>
</g>
<path class="st1" d="M13.7,10l-0.2,0.2c-0.5-0.8-1.4-2.1-2.8-3.1c-0.2-0.1-0.4-0.1-0.5,0L3,14.3c-0.2,0.2-0.4,0.2-0.6,0l-0.6-0.6
	c-0.2-0.2-0.2-0.4,0-0.6l6.8-6.8c0.2-0.2,0.1-0.5-0.1-0.7c-1.4-0.6-2.6-1-3.4-1.2C4.8,4.4,4.7,4,4.9,3.8l1.6-1.7C6.6,2,6.8,2,7,2.1
	c0.7,0.4,2.5,1.5,4.2,3.3C12.7,6.9,13.4,8.9,13.7,10z"/>
<path class="st1" d="M21.4,9.3c-0.4,0-1.2,0-1.4,0c0,0-0.1,0-0.1,0c0.6-0.6,0.9-1.3,0.9-2.2c0-1.7-1.4-3.1-3.1-3.1
	c-1.7,0-3.1,1.4-3.1,3.1c0,1.6,1.2,2.8,2.7,3l-0.6,0.6c-0.1,0.1-0.1,0.1-0.1,0.2v1.1l-4.1,0.6c-0.1,0-0.2,0.1-0.2,0.2l-1.2,2l-3,0.3
	c-0.1,0-0.3,0.1-0.3,0.2l-0.9,3.2l-2.7,2.7H1.9c-0.2,0-0.3,0.1-0.3,0.3c0,0.2,0.1,0.3,0.3,0.3h19.6c0.5,0,1-0.4,1-1V10.3
	C22.5,9.7,22,9.3,21.4,9.3z M17,6.5v2.2h-0.7V7.6h-0.6V7.2h0.6V7h-0.6V6.6h0.6V5.4h0.9l1.4,2.4V5.4h0.7v1.2h0.6V7h-0.6v0.2h0.6v0.4
	h-0.6v1.1h-1L17,6.5z M10.1,21.3l1.5-2.2l1.6-0.4c0.1,0,0.2-0.1,0.2-0.2l1.2-2.5l1.2,0c1.2,2,1.1,1.9,1.3,2l2.1,0.9l0.3,2.4H10.1z"
	/>
</svg>
