<?xml version="1.0" encoding="utf-8"?>
<!-- Generator: Adobe Illustrator 24.0.1, SVG Export Plug-In . SVG Version: 6.00 Build 0)  -->
<svg version="1.1" id="ic_empty_dark_error" xmlns="http://www.w3.org/2000/svg" xmlns:xlink="http://www.w3.org/1999/xlink"
	 x="0px" y="0px" width="100px" height="100px" viewBox="0 0 100 100" style="enable-background:new 0 0 100 100;"
	 xml:space="preserve">
<style type="text/css">
	.st0{fill:none;}
	.st1{fill:#707070;}
</style>
<path id="Rectangle_4727" class="st0" d="M0,0h100v100H0V0z"/>
<g>
	<g>
		<g>
			<path class="st1" d="M69.7,53.6C58.8,53.6,50,62.4,50,73.3C50,84.2,58.8,93,69.7,93c10.9,0,19.7-8.8,19.7-19.7
				C89.4,62.4,80.6,53.6,69.7,53.6z M72.7,84.6c0,0.4-0.3,0.8-0.8,0.8h-4.6c-0.4,0-0.7-0.3-0.7-0.8v-4.5c0-0.4,0.3-0.8,0.7-0.8H72
				c0.4,0,0.8,0.3,0.8,0.8V84.6z M72.7,75.6c0,0.4-0.3,0.8-0.8,0.8h-4.6c-0.4,0-0.7-0.3-0.7-0.8V61.9c0-0.4,0.3-0.8,0.7-0.8H72
				c0.4,0,0.8,0.3,0.8,0.8V75.6z"/>
			<path class="st1" d="M49,83.9c-0.2-0.4-0.6-0.8-1.1-0.9c-0.5-0.1-1-0.1-1.4,0.2c-0.9,0.5-1.9,1-2.9,1.6c-0.6,0.3-1.2,0.3-1.8,0
				c-0.5-0.3-0.9-0.9-0.9-1.5V53.6c0-1-0.8-1.8-1.8-1.8H19.7c-1,0-1.7-0.8-1.8-1.7c-0.1-2.7-0.2-5.7-0.2-9V24.6
				c0-0.8,0.5-1.4,1.2-1.7l23.3-8.2c0.5-0.2,1.2-0.1,1.6,0.2c0.5,0.3,0.8,0.9,0.8,1.5v30c0,1,0.8,1.8,1.8,1.8H66
				c0.5,0,1,0.2,1.3,0.5l0.2,0.4c0.3,0.6,1,0.9,1.6,0.9c0,0,0.6,0,0.7,0c1.1,0,2.2,0.1,3.2,0.2c0.5,0.1,1-0.1,1.4-0.4
				c0.4-0.3,0.6-0.8,0.6-1.3c0.1-2.4,0.1-4.8,0.1-7.5V19.5c0-0.8-0.5-1.4-1.2-1.7L43.4,7.1C43,7,42.6,7,42.2,7.1L11.8,17.9
				c-0.7,0.3-1.2,0.9-1.2,1.7V41c0,27.8,4.1,38,31.4,51.8c0.3,0.1,0.5,0.2,0.8,0.2s0.6-0.1,0.8-0.2c2.4-1.2,4.5-2.3,6.5-3.5
				c0.4-0.3,0.8-0.7,0.9-1.2c0.1-0.5,0-1-0.3-1.4C50.1,85.9,49.6,85,49,83.9z"/>
		</g>
	</g>
</g>
</svg>
