<?xml version="1.0" encoding="utf-8"?>
<!-- Generator: Adobe Illustrator 24.0.1, SVG Export Plug-In . SVG Version: 6.00 Build 0)  -->
<svg version="1.1" id="ic_staking_on" xmlns="http://www.w3.org/2000/svg" xmlns:xlink="http://www.w3.org/1999/xlink" x="0px"
	 y="0px" width="100px" height="100px" viewBox="0 0 100 100" style="enable-background:new 0 0 100 100;" xml:space="preserve">
<style type="text/css">
	.st0{fill:#D1D1D1;}
	.st1{fill:#BFBFBF;}
	.st2{fill:none;}
</style>
<g>
	<g>
		<path class="st0" d="M81.1,23.3h-5.9c0.8-1.2,1.2-2.4,1.6-4c0.4-4.8-2-8.7-5.9-10.3c-4-1.6-7.9-0.8-11.1,1.6l-7.1,6.7
			c-1.6-1.6-3.6-2.8-5.9-2.8s-4.4,0.8-5.6,2.4l-7.5-6.3c-3.2-2.8-7.1-3.6-11.1-2c-4,2-6.3,5.9-5.9,10.3c0,1.6,0.8,2.8,1.6,4h-5.9
			C9.4,23.3,7,25.7,7,28.5v7.9c0,1.6,1.2,2.8,2.8,2.8h74.1c1.6,0,2.8-1.2,2.8-2.8v-7.9C86.3,25.7,83.9,23.3,81.1,23.3z M38.7,22.6
			v0.8H26.8c-3.2,0-5.9-3.2-4.8-6.3c0.4-1.6,1.6-2.8,2.8-3.6c2-0.8,4-0.4,5.6,0.8L38.7,22.6L38.7,22.6z M71.6,18.6
			c0,2.8-2.8,4.8-5.2,4.8H54.6v-0.8l0,0c2-2,6.3-5.6,8.7-7.9c1.2-1.2,3.2-1.6,4.8-1.2C70.4,13.8,72,16.2,71.6,18.6z"/>
	</g>
</g>
<g>
	<g>
		<path class="st0" d="M12.2,42v39.7c0,3.2,2.4,5.5,5.2,5.5H76c2.8,0,5.2-2.4,5.2-5.5V42H12.2z M65.7,79.6h-2.2v0.9h2.2v1.4h-2.2
			v4.2h-3.7L55,78v8.1h-2.6v-4.2h-2.2v-1.4h2.2v-0.9h-2.2v-1.4h2.2V74h3.3l5.2,8.8V74h2.6v4.2h2.2V79.6z"/>
	</g>
</g>
<g>
	<g>
		<path class="st1" d="M80.4,61.5c-3.6,0-12.6-0.5-12.6-4.2v5.6c0,4,10.5,4.2,12.6,4.2c2.1,0,12.6-0.2,12.6-4.2v-5.6
			C93,61,84,61.5,80.4,61.5z"/>
	</g>
</g>
<g>
	<g>
		<path class="st1" d="M80.4,50.3c-2.1,0-12.6,0.2-12.6,4.2s10.5,4.2,12.6,4.2c2.1,0,12.6-0.2,12.6-4.2S82.5,50.3,80.4,50.3z"/>
	</g>
</g>
<g>
	<g>
		<path class="st1" d="M80.4,69.8c-3.6,0-12.6-0.5-12.6-4.2v2.1c2.2,1.8,3.8,4.2,4.7,6.9c3.1,0.7,6.8,0.8,7.9,0.8
			c2.1,0,12.6-0.2,12.6-4.2v-5.6C93,69.3,84,69.8,80.4,69.8z"/>
	</g>
</g>
<g>
	<g>
		<path class="st1" d="M80.4,78.2c-1.1,0-4.3,0-7.2-0.6c0.1,0.7,0.1,1.3,0.1,2c0,1.2-0.2,2.4-0.4,3.5c3,0.6,6.4,0.7,7.5,0.7
			c2.1,0,12.6-0.2,12.6-4.2V74C93,77.7,84,78.2,80.4,78.2z"/>
	</g>
</g>
<g>
	<g>
		<path class="st1" d="M80.4,86.6c-1.2,0-5.2-0.1-8.3-0.9c-0.7,1.6-1.7,3.1-2.9,4.4c2.9,1.9,9.6,2,11.3,2c2.1,0,12.6-0.2,12.6-4.2
			v-5.6C93,86,84,86.6,80.4,86.6z"/>
	</g>
</g>
<g>
	<g>
		<path class="st1" d="M58.3,67c-7.1-0.2-13,5.7-12.8,12.8c0.1,2.7,1,5.3,2.6,7.3c2.2,2.9,5.7,4.9,9.7,5c4.2,0.1,7.9-1.9,10.3-5
			c1.7-2.2,2.6-4.9,2.6-7.9C70.4,72.6,64.9,67.2,58.3,67z M50.3,80.5h2.2v-0.9h-2.2v-1.4h2.2V74h3.3l5.2,8.8V74h2.6v4.2h2.2v1.4
			h-2.2v0.9h2.2v1.4h-2.2v4.2h-3.7L55,78v8.1h-2.6v-4.2h-2.2V80.5z"/>
	</g>
</g>
<path id="Rectangle" class="st2" d="M0,0h100v100H0V0z"/>
</svg>
