<?xml version="1.0" encoding="utf-8"?>
<!-- Generator: Adobe Illustrator 24.0.1, SVG Export Plug-In . SVG Version: 6.00 Build 0)  -->
<svg version="1.1" id="ic_empty_Dark_masternode" xmlns="http://www.w3.org/2000/svg" xmlns:xlink="http://www.w3.org/1999/xlink"
	 x="0px" y="0px" width="100px" height="100px" viewBox="0 0 100 100" style="enable-background:new 0 0 100 100;"
	 xml:space="preserve">
<style type="text/css">
	.st0{fill:#707070;}
	.st1{fill:none;}
</style>
<g id="Master-Active">
	<g>
		<g id="Layer_8_42_">
			<path class="st0" d="M95,31.6c0,5.1-3.5,9.4-7.8,9.4c-0.4,0-0.8,0-1.6,0l-6.3,26.6v9.8H24.6V67.1l-6.3-26.6c-0.4,0-0.8,0-1.6,0
				c-4.3,0-7.8-4.3-7.8-9.4s3.5-9.4,7.8-9.4s7.8,4.3,7.8,9.4c0,1.2-0.4,2.3-0.8,3.5c7.8,3.1,19.9,5.5,25.4-5.1
				c-3.1-1.2-5.5-4.7-5.5-8.6c0.4-4.7,3.9-9,8.2-9s7.8,4.3,7.8,9.4c0,3.9-2.3,7.4-5.5,8.6c3.1,7,10.2,14.1,25.8,5.9
				c-0.4-1.2-0.8-2.7-0.8-4.3c0-5.1,3.5-9.4,7.8-9.4S95,26.5,95,31.6z M24.6,90.2h54.7v-8.6H24.6V90.2z"/>
		</g>
	</g>
</g>
<path id="Rectangle_4704" class="st1" d="M0,0h100v100H0V0z"/>
</svg>
