<?xml version="1.0" encoding="utf-8"?>
<!-- Generator: Adobe Illustrator 24.0.1, SVG Export Plug-In . SVG Version: 6.00 Build 0)  -->
<svg version="1.1" id="Layer_1" xmlns="http://www.w3.org/2000/svg" xmlns:xlink="http://www.w3.org/1999/xlink" x="0px" y="0px"
	 width="60px" height="60px" viewBox="0 0 60 60" style="enable-background:new 0 0 60 60;" xml:space="preserve">
<style type="text/css">
	.st0{fill:#FFFFFF;}
</style>
<path class="st0" d="M30,0.2c-16.6,0-30,13.4-30,30c0,16.6,13.4,30,30,30c16.6,0,30-13.4,30-30C60,13.7,46.6,0.2,30,0.2z M50.5,29.1
	h-5.8v2.3h5.8v3.7h-5.8v11.2H35L22.2,24.7v21.6h-6.9V35.1H9.5v-3.7h5.8v-2.3H9.5v-3.7h5.8V14.1H24l13.9,23.5V14.1h6.9v11.3h5.8V29.1
	z"/>
</svg>
