<?xml version="1.0" encoding="utf-8"?>
<!-- Generator: Adobe Illustrator 24.0.1, SVG Export Plug-In . SVG Version: 6.00 Build 0)  -->
<svg version="1.1" id="ic_empty_Dark_znbc" xmlns="http://www.w3.org/2000/svg" xmlns:xlink="http://www.w3.org/1999/xlink" x="0px"
	 y="0px" width="100px" height="100px" viewBox="0 0 100 100" style="enable-background:new 0 0 100 100;" xml:space="preserve">
<style type="text/css">
	.st0{fill:#707070;}
	.st1{fill:none;}
</style>
<path class="st0" d="M76.6,39C72.1,28.8,61.9,21.7,50,21.7c-0.2,0-0.5,0-0.7,0c-0.7,0-1.1,0.9-0.6,1.4c0.2,0.2,0.2,0.4,0.2,0.6
	c0,0.4-0.3,0.8-0.8,0.8H35.7c-1.1,0-1.9,0.9-1.9,1.9c0,12.8,0.1,23.5,0.1,31c0,1-0.8,1.9-1.9,1.9H25c-1.4,0-2.3,1.4-1.7,2.7
	C27.7,72.3,38,79.7,50,79.7c0.4,0,0.7,0,1.1,0c0.7,0,1.1-0.9,0.6-1.4l-0.3-0.3c-0.5-0.5-0.1-1.4,0.6-1.4h11.9c1.3,0,2.4-1.1,2.4-2.4
	V44.1c0-1.3,1.1-2.4,2.4-2.4h6.3C76.2,41.7,77.1,40.3,76.6,39z M63.9,62.7c0,1-0.8,1.8-1.8,1.8H37.7c-1,0-1.8-0.8-1.8-1.8V38.3
	c0-1,0.8-1.8,1.8-1.8h24.4c1,0,1.8,0.8,1.8,1.8V62.7z"/>
<path class="st0" d="M59.1,50.4v0.5c0,0.3,0.2,0.5,0.5,0.5h2.6c0.3,0,0.5,0.2,0.5,0.5v1.3c0,0.3-0.2,0.5-0.5,0.5h-2.6
	c-0.3,0-0.5,0.2-0.5,0.5v6c0,0.3-0.2,0.5-0.5,0.5h-5.3c-0.2,0-0.3-0.1-0.4-0.2L46,48.7c-0.3-0.4-0.9-0.3-0.9,0.3v11.1
	c0,0.3-0.2,0.5-0.5,0.5h-3.3c-0.3,0-0.5-0.2-0.5-0.5v-6c0-0.3-0.2-0.5-0.5-0.5h-2.6c-0.3,0-0.5-0.2-0.5-0.5v-1.3
	c0-0.3,0.2-0.5,0.5-0.5h2.6c0.3,0,0.5-0.2,0.5-0.5v-0.5c0-0.3-0.2-0.5-0.5-0.5h-2.6c-0.3,0-0.5-0.2-0.5-0.5v-1.3
	c0-0.3,0.2-0.5,0.5-0.5h2.6c0.3,0,0.5-0.2,0.5-0.5v-6c0-0.3,0.2-0.5,0.5-0.5h4.7c0.2,0,0.3,0.1,0.4,0.2l7.5,12.8
	c0.3,0.4,0.9,0.3,0.9-0.3V41.1c0-0.3,0.2-0.5,0.5-0.5h3.3c0.3,0,0.5,0.2,0.5,0.5v6c0,0.3,0.2,0.5,0.5,0.5h2.6c0.3,0,0.5,0.2,0.5,0.5
	v1.3c0,0.3-0.2,0.5-0.5,0.5h-2.6C59.3,49.9,59.1,50.1,59.1,50.4z"/>
<path class="st0" d="M30.5,56.1H16.8c-0.6,0-1.1-0.5-1.1-1.1V23.5c0-0.6-0.5-1.1-1.1-1.1H9.2c-0.9,0-1.4-1.1-0.8-1.8L22.9,5.3
	c0.4-0.4,1.1-0.4,1.5,0l14.5,15.3c0.6,0.7,0.2,1.8-0.8,1.8h-5.5c-0.6,0-1.1,0.5-1.1,1.1V55C31.5,55.6,31.1,56.1,30.5,56.1z"/>
<path class="st0" d="M75.6,95.7L61.1,80.3c-0.6-0.7-0.2-1.8,0.8-1.8h5.5c0.6,0,1.1-0.5,1.1-1.1V46c0-0.6,0.5-1.1,1.1-1.1h13.7
	c0.6,0,1.1,0.5,1.1,1.1v31.5c0,0.6,0.5,1.1,1.1,1.1h5.5c0.9,0,1.4,1.1,0.8,1.8L77.1,95.7C76.7,96.1,76,96.1,75.6,95.7z"/>
<path id="Rectangle_4748" class="st1" d="M0,0h100v100H0V0z"/>
</svg>
