<?xml version="1.0" encoding="utf-8"?>
<!-- Generator: Adobe Illustrator 24.0.1, SVG Export Plug-In . SVG Version: 6.00 Build 0)  -->
<svg version="1.1" id="ic_empty_Dark_transactions" xmlns="http://www.w3.org/2000/svg" xmlns:xlink="http://www.w3.org/1999/xlink"
	 x="0px" y="0px" width="100px" height="100px" viewBox="0 0 100 100" style="enable-background:new 0 0 100 100;"
	 xml:space="preserve">
<style type="text/css">
	.st0{fill:#707070;}
	.st1{fill:none;}
</style>
<g id="Group">
	<path class="st0" d="M76.3,38.7C71.8,28.6,61.7,21.5,50,21.5c-0.2,0-0.5,0-0.7,0c-0.7,0-1.1,0.9-0.6,1.4c0.2,0.2,0.2,0.4,0.2,0.6
		c0,0.4-0.3,0.8-0.8,0.8H35.9c-1,0-1.9,0.9-1.9,1.9c0,12.6,0.1,23.2,0.1,30.7c0,1-0.8,1.9-1.9,1.9h-7c-1.3,0-2.2,1.4-1.7,2.6
		C27.9,71.6,38.1,78.9,50,78.9c0.4,0,0.7,0,1,0c0.7,0,1.1-0.9,0.6-1.4l-0.3-0.3c-0.5-0.5-0.1-1.4,0.6-1.4h11.8
		c1.3,0,2.3-1.1,2.3-2.3V43.7c0-1.3,1.1-2.3,2.3-2.3h6.3C75.9,41.3,76.8,39.9,76.3,38.7z M62,49.4h-2.6c-0.3,0-0.5,0.2-0.5,0.5v0.4
		c0,0.3,0.2,0.5,0.5,0.5H62c0.3,0,0.5,0.2,0.5,0.5v1.3c0,0.3-0.2,0.5-0.5,0.5h-2.6c-0.3,0-0.5,0.2-0.5,0.5v5.9
		c0,0.3-0.2,0.5-0.5,0.5h-5.3c-0.2,0-0.3-0.1-0.4-0.2L46,48.3c-0.3-0.4-0.9-0.2-0.9,0.2v11c0,0.3-0.2,0.5-0.5,0.5h-3.3
		c-0.3,0-0.5-0.2-0.5-0.5v-5.9c0-0.3-0.2-0.5-0.5-0.5h-2.6c-0.3,0-0.5-0.2-0.5-0.5v-1.3c0-0.3,0.2-0.5,0.5-0.5h2.6
		c0.3,0,0.5-0.2,0.5-0.5v-0.4c0-0.3-0.2-0.5-0.5-0.5h-2.6c-0.3,0-0.5-0.2-0.5-0.5v-1.3c0-0.3,0.2-0.5,0.5-0.5h2.6
		c0.3,0,0.5-0.2,0.5-0.5v-6c0-0.3,0.2-0.5,0.5-0.5H46c0.2,0,0.3,0.1,0.4,0.2l7.5,12.6c0.3,0.4,0.9,0.2,0.9-0.2V40.7
		c0-0.3,0.2-0.5,0.5-0.5h3.3c0.3,0,0.5,0.2,0.5,0.5v6c0,0.3,0.2,0.5,0.5,0.5H62c0.3,0,0.5,0.2,0.5,0.5v1.3
		C62.5,49.2,62.3,49.4,62,49.4z"/>
	<path class="st0" d="M30.7,55.5H17.2c-0.6,0-1-0.5-1-1V23.3c0-0.6-0.5-1-1-1H9.6c-0.9,0-1.4-1.1-0.8-1.8L23.2,5.3
		c0.4-0.4,1.1-0.4,1.5,0L39,20.5c0.6,0.7,0.2,1.8-0.8,1.8h-5.4c-0.6,0-1,0.5-1,1v31.2C31.8,55.1,31.3,55.5,30.7,55.5z"/>
	<path class="st0" d="M75.3,94.7L61,79.5c-0.6-0.7-0.2-1.8,0.8-1.8h5.4c0.6,0,1-0.5,1-1V45.5c0-0.6,0.5-1,1-1h13.5c0.6,0,1,0.5,1,1
		v31.2c0,0.6,0.5,1,1,1h5.4c0.9,0,1.4,1.1,0.8,1.8L76.8,94.7C76.4,95.1,75.7,95.1,75.3,94.7z"/>
</g>
<path id="Rectangle" class="st1" d="M0,0h100v100H0V0z"/>
</svg>
