<?xml version="1.0" encoding="utf-8"?>
<!-- Generator: Adobe Illustrator 24.0.1, SVG Export Plug-In . SVG Version: 6.00 Build 0)  -->
<svg version="1.1" id="Layer_1" xmlns="http://www.w3.org/2000/svg" xmlns:xlink="http://www.w3.org/1999/xlink" x="0px" y="0px"
	 width="100px" height="100px" viewBox="0 0 100 100" style="enable-background:new 0 0 100 100;" xml:space="preserve">
<style type="text/css">
	.st0{fill:#D1D1D1;}
	.st1{fill:none;}
</style>
<g id="ic_staking_off" transform="translate(-150)">
	<g>
		<g>
			<path class="st0" d="M237,23.9h-6.4c0.9-1.3,1.3-2.6,1.7-4.3c0.4-5.1-2.1-9.4-6.4-11.1c-4.3-1.7-8.6-0.9-12,1.7l-7.7,7.3
				c-1.7-1.7-3.9-3-6.4-3c-2.6,0-4.7,0.9-6,2.6l-8.1-6.8c-3.4-3-7.7-3.9-12-2.1c-4.3,2.1-6.8,6.4-6.4,11.1c0,1.7,0.9,3,1.7,4.3h-6.4
				c-3,0.4-5.6,3-5.6,6V38c0,1.7,1.3,3,3,3h80c1.7,0,3-1.3,3-3v-8.6C242.6,26.5,240,23.9,237,23.9z M191.2,23.1v0.9h-12.8
				c-3.4,0-6.4-3.4-5.1-6.8c0.4-1.7,1.7-3,3-3.9c2.1-0.9,4.3-0.4,6,0.9L191.2,23.1L191.2,23.1z M226.7,18.8c0,3-3,5.1-5.6,5.1h-12.8
				v-0.9l0,0c2.1-2.1,6.8-6,9.4-8.6c1.3-1.3,3.4-1.7,5.1-1.3C225.5,13.6,227.2,16.2,226.7,18.8z"/>
		</g>
	</g>
	<g>
		<g>
			<path class="st0" d="M162.6,44v42.8c0,3.4,2.6,6,5.6,6h63.3c3,0,5.6-2.6,5.6-6V44H162.6z M198.8,54.7c0-0.3,0.3-0.6,0.6-0.6h1.3
				c0.3,0,0.6,0.3,0.6,0.6V69c0,0.3-0.3,0.6-0.6,0.6h-1.3c-0.3,0-0.6-0.3-0.6-0.6V54.7z M197.6,83.8c-5-0.9-8.9-4.9-9.9-9.8
				c-1.2-6.3,2.4-11.9,7.7-14.1c0.4-0.2,0.8,0.2,0.8,0.6v1.4c0,0.2-0.2,0.5-0.4,0.6c-3.5,1.6-5.9,5.1-5.9,9.1c0,6.2,5.6,11.1,12,9.8
				c3.8-0.8,6.9-3.8,7.7-7.6c1-4.9-1.6-9.4-5.7-11.3c-0.2-0.1-0.4-0.3-0.4-0.6v-1.4c0-0.4,0.4-0.8,0.8-0.6c4.6,1.8,7.9,6.4,7.9,11.6
				C212.5,79.2,205.5,85.3,197.6,83.8z"/>
		</g>
	</g>
	<path id="Rectangle" class="st1" d="M150,0h100v100H150V0z"/>
</g>
</svg>
