<?xml version="1.0" encoding="utf-8"?>
<!-- Generator: Adobe Illustrator 24.0.1, SVG Export Plug-In . SVG Version: 6.00 Build 0)  -->
<svg version="1.1" id="ic_empty_multisend" xmlns="http://www.w3.org/2000/svg" xmlns:xlink="http://www.w3.org/1999/xlink" x="0px"
	 y="0px" width="100px" height="100px" viewBox="0 0 100 100" style="enable-background:new 0 0 100 100;" xml:space="preserve">
<style type="text/css">
	.st0{fill:#D1D1D1;}
	.st1{fill:none;}
</style>
<path class="st0" d="M79.1,55.4h13.6c0.1,0,0.2-0.1,0.2-0.2v-8.5c0-1.1-0.9-2-2-2H57.6c-1.2,0-2.2-1-2.2-2.2v-0.9
	c0-1.2,1-2.2,2.2-2.2h6.5c1.1,0,2-0.9,2-2v-28c0-1.2-1-2.2-2.2-2.2H36.1c-1.2,0-2.2,1-2.2,2.2v28c0,1.1,0.9,2,2,2h6.5
	c1.2,0,2.2,1,2.2,2.2v0.9c0,1.2-1,2.2-2.2,2.2H9c-1.1,0-2,0.9-2,2v6.8c0,1.1,0.9,2,2,2h11.9c1.2,0,2.2,1,2.2,2.2v1.1
	c0,1.1-0.9,2-2,2h-6.5c-1.2,0-2.2,1-2.2,2.2v28c0,1.1,0.9,2,2,2h28.3c1.1,0,2-0.9,2-2V63c0-1.2-1-2.2-2.2-2.2h-6.5c-1.1,0-2-0.9-2-2
	v-1.1c0-1.2,1-2.2,2.2-2.2h27.8c1.2,0,2.2,1,2.2,2.2v1.1c0,1.1-0.9,2-2,2h-6.5c-1.2,0-2.2,1-2.2,2.2v28c0,1.1,0.9,2,2,2h28.3
	c1.1,0,2-0.9,2-2V63c0-1.2-1-2.2-2.2-2.2h-6.5c-1.1,0-2-0.9-2-2v-1.1C76.9,56.4,77.9,55.4,79.1,55.4z M34,71.1V75
	c0,0.1,0.1,0.2,0.2,0.2H36c0.1,0,0.2,0.1,0.2,0.2v1c0,0.1-0.1,0.2-0.2,0.2h-2v0.9h2c0.1,0,0.2,0.1,0.2,0.2v1c0,0.1-0.1,0.2-0.2,0.2
	h-1.8c-0.1,0-0.2,0.1-0.2,0.2v3.9c0,0.1-0.1,0.2-0.2,0.2h-3.5c-0.1,0-0.2,0-0.2-0.1l-4.5-7.6c-0.1-0.2-0.4-0.1-0.4,0.1v7.3
	c0,0.1-0.1,0.2-0.2,0.2h-2.2c-0.1,0-0.2-0.1-0.2-0.2v-3.9c0-0.1-0.1-0.2-0.2-0.2h-1.8c-0.1,0-0.2-0.1-0.2-0.2v-1
	c0-0.1,0.1-0.2,0.2-0.2h2v-0.9h-2c-0.1,0-0.2-0.1-0.2-0.2v-1c0-0.1,0.1-0.2,0.2-0.2h1.8c0.1,0,0.2-0.1,0.2-0.2v-3.9
	c0-0.1,0.1-0.2,0.2-0.2h3c0.1,0,0.2,0,0.2,0.1l4.9,8.3c0.1,0.2,0.4,0.1,0.4-0.1v-8c0-0.1,0.1-0.2,0.2-0.2h2.2
	C33.9,70.9,34,71,34,71.1z M45.4,20.2v11.5c0,0.1-0.1,0.2-0.2,0.2h-3.6c-0.1,0-0.2-0.1-0.2-0.2v-6.1c0-0.1-0.1-0.2-0.2-0.2h-2.9
	c-0.1,0-0.2-0.1-0.2-0.2v-1.7c0-0.1,0.1-0.2,0.2-0.2h3.1v-1.4h-3.1c-0.1,0-0.2-0.1-0.2-0.2V20c0-0.1,0.1-0.2,0.2-0.2h2.9
	c0.1,0,0.2-0.1,0.2-0.2v-6.1c0-0.1,0.1-0.2,0.2-0.2h4.7c0.1,0,0.2,0,0.2,0.1l7.6,12.9c0.1,0.2,0.4,0.1,0.4-0.1V13.4
	c0-0.1,0.1-0.2,0.2-0.2h3.6c0.1,0,0.2,0.1,0.2,0.2v6.1c0,0.1,0.1,0.2,0.2,0.2h2.9c0.1,0,0.2,0.1,0.2,0.2v1.7c0,0.1-0.1,0.2-0.2,0.2
	h-3.1v1.4h3.1c0.1,0,0.2,0.1,0.2,0.2v1.7c0,0.1-0.1,0.2-0.2,0.2h-2.9c-0.1,0-0.2,0.1-0.2,0.2v6.1c0,0.1-0.1,0.2-0.2,0.2H53
	c-0.1,0-0.2,0-0.2-0.1l-7-11.8C45.7,19.9,45.4,20,45.4,20.2z M77.1,71.1V75c0,0.1,0.1,0.2,0.2,0.2h1.8c0.1,0,0.2,0.1,0.2,0.2v1
	c0,0.1-0.1,0.2-0.2,0.2h-2v0.9h2c0.1,0,0.2,0.1,0.2,0.2v1c0,0.1-0.1,0.2-0.2,0.2h-1.8c-0.1,0-0.2,0.1-0.2,0.2v3.9
	c0,0.1-0.1,0.2-0.2,0.2h-3.5c-0.1,0-0.2,0-0.2-0.1l-4.5-7.6c-0.1-0.2-0.4-0.1-0.4,0.1v7.3c0,0.1-0.1,0.2-0.2,0.2h-2.2
	c-0.1,0-0.2-0.1-0.2-0.2v-3.9c0-0.1-0.1-0.2-0.2-0.2h-1.8c-0.1,0-0.2-0.1-0.2-0.2v-1c0-0.1,0.1-0.2,0.2-0.2h2v-0.9h-2
	c-0.1,0-0.2-0.1-0.2-0.2v-1c0-0.1,0.1-0.2,0.2-0.2h1.8c0.1,0,0.2-0.1,0.2-0.2v-3.9c0-0.1,0.1-0.2,0.2-0.2h3c0.1,0,0.2,0,0.2,0.1
	l4.9,8.3c0.1,0.2,0.4,0.1,0.4-0.1v-8c0-0.1,0.1-0.2,0.2-0.2h2.2C77,70.9,77.1,71,77.1,71.1z"/>
<path id="Rectangle_4690" class="st1" d="M0,0h100v100H0V0z"/>
</svg>
