<?xml version="1.0" encoding="utf-8"?>
<!-- Generator: Adobe Illustrator 24.0.1, SVG Export Plug-In . SVG Version: 6.00 Build 0)  -->
<svg version="1.1" id="ic_empty_znbc" xmlns="http://www.w3.org/2000/svg" xmlns:xlink="http://www.w3.org/1999/xlink" x="0px"
	 y="0px" width="100px" height="100px" viewBox="0 0 100 100" style="enable-background:new 0 0 100 100;" xml:space="preserve">
<style type="text/css">
	.st0{fill:none;}
	.st1{fill:#D1D1D1;}
</style>
<path id="Rectangle_4753" class="st0" d="M0,0h100v100H0V0z"/>
<path class="st1" d="M76.6,38.5C72.1,28.3,61.9,21.2,50,21.2c-0.2,0-0.5,0-0.7,0c-0.7,0-1.1,0.9-0.6,1.4c0.2,0.2,0.2,0.4,0.2,0.6
	c0,0.4-0.3,0.8-0.8,0.8H35.7c-1.1,0-1.9,0.9-1.9,1.9c0,12.8,0.1,23.5,0.1,31c0,1-0.8,1.9-1.9,1.9H25c-1.4,0-2.3,1.4-1.7,2.7
	C27.7,71.8,38,79.2,50,79.2c0.4,0,0.7,0,1.1,0c0.7,0,1.1-0.9,0.6-1.4l-0.3-0.3c-0.5-0.5-0.1-1.4,0.6-1.4h11.9c1.3,0,2.4-1.1,2.4-2.4
	V43.6c0-1.3,1.1-2.4,2.4-2.4h6.3C76.2,41.2,77.1,39.8,76.6,38.5z M63.9,62.2c0,1-0.8,1.8-1.8,1.8H37.7c-1,0-1.8-0.8-1.8-1.8V37.8
	c0-1,0.8-1.8,1.8-1.8h24.4c1,0,1.8,0.8,1.8,1.8V62.2z"/>
<path class="st1" d="M59.1,49.9v0.5c0,0.3,0.2,0.5,0.5,0.5h2.6c0.3,0,0.5,0.2,0.5,0.5v1.3c0,0.3-0.2,0.5-0.5,0.5h-2.6
	c-0.3,0-0.5,0.2-0.5,0.5v6c0,0.3-0.2,0.5-0.5,0.5h-5.3c-0.2,0-0.3-0.1-0.4-0.2L46,48.2c-0.3-0.4-0.9-0.3-0.9,0.3v11.1
	c0,0.3-0.2,0.5-0.5,0.5h-3.3c-0.3,0-0.5-0.2-0.5-0.5v-6c0-0.3-0.2-0.5-0.5-0.5h-2.6c-0.3,0-0.5-0.2-0.5-0.5v-1.3
	c0-0.3,0.2-0.5,0.5-0.5h2.6c0.3,0,0.5-0.2,0.5-0.5v-0.5c0-0.3-0.2-0.5-0.5-0.5h-2.6c-0.3,0-0.5-0.2-0.5-0.5v-1.3
	c0-0.3,0.2-0.5,0.5-0.5h2.6c0.3,0,0.5-0.2,0.5-0.5v-6c0-0.3,0.2-0.5,0.5-0.5h4.7c0.2,0,0.3,0.1,0.4,0.2l7.5,12.8
	c0.3,0.4,0.9,0.3,0.9-0.3V40.6c0-0.3,0.2-0.5,0.5-0.5h3.3c0.3,0,0.5,0.2,0.5,0.5v6c0,0.3,0.2,0.5,0.5,0.5h2.6c0.3,0,0.5,0.2,0.5,0.5
	v1.3c0,0.3-0.2,0.5-0.5,0.5h-2.6C59.3,49.4,59.1,49.6,59.1,49.9z"/>
<path class="st1" d="M30.5,55.6H16.8c-0.6,0-1.1-0.5-1.1-1.1V23c0-0.6-0.5-1.1-1.1-1.1H9.2c-0.9,0-1.4-1.1-0.8-1.8L22.9,4.8
	c0.4-0.4,1.1-0.4,1.5,0l14.5,15.3c0.6,0.7,0.2,1.8-0.8,1.8h-5.5c-0.6,0-1.1,0.5-1.1,1.1v31.5C31.5,55.1,31.1,55.6,30.5,55.6z"/>
<path class="st1" d="M75.6,95.2L61.1,79.8c-0.6-0.7-0.2-1.8,0.8-1.8h5.5c0.6,0,1.1-0.5,1.1-1.1V45.5c0-0.6,0.5-1.1,1.1-1.1h13.7
	c0.6,0,1.1,0.5,1.1,1.1V77c0,0.6,0.5,1.1,1.1,1.1h5.5c0.9,0,1.4,1.1,0.8,1.8L77.1,95.2C76.7,95.6,76,95.6,75.6,95.2z"/>
</svg>
