<?xml version="1.0" encoding="UTF-8" standalone="no"?>
<!-- Generator: Adobe Illustrator 24.0.1, SVG Export Plug-In . SVG Version: 6.00 Build 0)  -->

<svg
   xmlns:dc="http://purl.org/dc/elements/1.1/"
   xmlns:cc="http://creativecommons.org/ns#"
   xmlns:rdf="http://www.w3.org/1999/02/22-rdf-syntax-ns#"
   xmlns:svg="http://www.w3.org/2000/svg"
   xmlns="http://www.w3.org/2000/svg"
   xmlns:sodipodi="http://sodipodi.sourceforge.net/DTD/sodipodi-0.dtd"
   xmlns:inkscape="http://www.inkscape.org/namespaces/inkscape"
   version="1.1"
   id="nexbit_logo"
   x="0px"
   y="0px"
   width="300px"
   height="100px"
   viewBox="0 0 300 100"
   style="enable-background:new 0 0 300 100;"
   xml:space="preserve"
   sodipodi:docname="img-logo-nexbit.svg"
   inkscape:version="0.92.3 (2405546, 2018-03-11)"><metadata
   id="metadata26"><rdf:RDF><cc:Work
       rdf:about=""><dc:format>image/svg+xml</dc:format><dc:type
         rdf:resource="http://purl.org/dc/dcmitype/StillImage" /><dc:title></dc:title></cc:Work></rdf:RDF></metadata><defs
   id="defs24" /><sodipodi:namedview
   pagecolor="#ffffff"
   bordercolor="#666666"
   borderopacity="1"
   objecttolerance="10"
   gridtolerance="10"
   guidetolerance="10"
   inkscape:pageopacity="0"
   inkscape:pageshadow="2"
   inkscape:window-width="1366"
   inkscape:window-height="684"
   id="namedview22"
   showgrid="false"
   inkscape:zoom="1.05"
   inkscape:cx="150"
   inkscape:cy="50"
   inkscape:window-x="0"
   inkscape:window-y="28"
   inkscape:window-maximized="1"
   inkscape:current-layer="nexbit_logo" />
<style
   type="text/css"
   id="style2">
	.st0{fill:#FF4E10;}
	.st1{fill:#EDB45B;}
</style>
<circle
   id="BG"
   class="st0"
   cx="42.7"
   cy="50.5"
   r="37.7"
   style="fill:#008080" />
<polygon
   class="st1"
   points="61.2,49.1 61.2,52 68.5,52 68.5,56.6 61.2,56.6 61.2,70.7 48.9,70.7 32.8,43.5 32.8,70.7 24.2,70.7   24.2,56.6 16.9,56.6 16.9,52 24.2,52 24.2,49.1 16.9,49.1 16.9,44.5 24.2,44.5 24.2,30.3 35.1,30.3 52.5,59.7 52.5,30.3 61.2,30.3   61.2,44.5 68.5,44.5 68.5,49.1 "
   id="polygon5"
   style="fill:#004b50;fill-opacity:1" />
<g
   id="g19"
   style="fill:#008080">
	<path
   class="st1"
   d="M91.8,70.3V30.6h10.5l8.3,14.6c2.4,4.2,4.7,9.2,6.5,13.6h0.1c-0.5-5.2-0.7-10.6-0.7-16.6V30.5h8.3v39.8h-9.5   L106.7,55c-2.4-4.3-5-9.4-6.9-14h-0.2c0.3,5.3,0.4,10.9,0.4,17.4v12L91.8,70.3L91.8,70.3z"
   id="path7"
   style="fill:#008080" />
	<path
   class="st1"
   d="M159.1,53.5h-14.6V63h16.3v7.4h-25.3V30.6H160v7.4h-15.5v8.3h14.6L159.1,53.5L159.1,53.5L159.1,53.5z"
   id="path9"
   style="fill:#008080" />
	<path
   class="st1"
   d="M190.9,70.3l-3.6-7.2c-1.5-2.8-2.4-4.8-3.5-7.1h-0.1c-0.8,2.3-1.8,4.4-3.1,7.1l-3.2,7.2H167l11.5-20.1   l-11.1-19.7h10.3l3.5,7.3c1.2,2.4,2.1,4.4,3,6.6h0.1c0.9-2.5,1.7-4.3,2.7-6.6l3.4-7.3h10.3L189.4,50l11.8,20.4L190.9,70.3   L190.9,70.3z"
   id="path11"
   style="fill:#008080" />
	<path
   class="st1"
   d="M209,31.1c2.4-0.5,7.1-0.9,11.6-0.9c5.5,0,8.9,0.5,11.7,2.2c2.8,1.5,4.7,4.2,4.7,7.9c0,3.5-2.1,6.7-6.5,8.4   v0.1c4.6,1.2,7.9,4.7,7.9,9.8c0,3.7-1.7,6.5-4.1,8.4c-2.9,2.3-7.7,3.6-15.6,3.6c-4.4,0-7.7-0.3-9.7-0.6L209,31.1L209,31.1z    M218,46.3h3c4.8,0,7.3-1.9,7.3-4.9c0-3-2.3-4.6-6.4-4.6c-2,0-3.1,0.1-3.8,0.3V46.3z M218,64c0.9,0.2,1.9,0.2,3.5,0.2   c4.1,0,7.7-1.6,7.7-5.8c0-4-3.6-5.6-8.1-5.6H218L218,64L218,64z"
   id="path13"
   style="fill:#008080" />
	<path
   class="st1"
   d="M256.7,30.5v39.8h-9V30.5H256.7z"
   id="path15"
   style="fill:#008080" />
	<path
   class="st1"
   d="M275.2,38.1h-10.7v-7.6H295v7.6h-10.9v32.2h-9L275.2,38.1L275.2,38.1z"
   id="path17"
   style="fill:#008080" />
</g>
</svg>