<?xml version="1.0" encoding="utf-8"?>
<!-- Generator: Adobe Illustrator 24.0.1, SVG Export Plug-In . SVG Version: 6.00 Build 0)  -->
<svg version="1.1" id="Group_9058" xmlns="http://www.w3.org/2000/svg" xmlns:xlink="http://www.w3.org/1999/xlink" x="0px" y="0px"
	 width="100px" height="100px" viewBox="0 0 100 100" style="enable-background:new 0 0 100 100;" xml:space="preserve">
<style type="text/css">
	.st0{fill:#707070;}
	.st1{fill:none;}
</style>
<g>
	<g>
		<path class="st0" d="M80.3,7H23.6c-5.9,0-10.7,4.8-10.7,10.7v64.7c0,5.9,4.8,10.7,10.7,10.7h56.8c5.9,0,10.7-4.8,10.7-10.7V17.7
			C91,11.8,86.2,7,80.3,7z M86,82.3h-0.1c0,3-2.5,5.6-5.6,5.6H31.8V12.1h48.6c3,0,5.6,2.5,5.6,5.6V82.3z"/>
	</g>
</g>
<g>
	<g>
		<path class="st0" d="M59.1,25.5c-6.8,0-12.4,5.6-12.4,12.4c0,6.9,5.6,12.4,12.4,12.5c6.8,0,12.4-5.6,12.4-12.4
			S65.9,25.5,59.1,25.5z"/>
	</g>
</g>
<g>
	<g>
		<path class="st0" d="M79.6,62.3c-4.5-6.9-12.2-11.2-20.5-11.1c-8.3-0.1-16.1,4.2-20.5,11.1c-1.2,1.7-1.8,3.9-1.7,6V72
			c0,1.4,1.1,2.5,2.5,2.5h39.4c1.4,0,2.5-1.1,2.5-2.5v-3.7C81.3,66.2,80.7,64.1,79.6,62.3z"/>
	</g>
</g>
<path id="Rectangle_4716" class="st1" d="M0,0h100v100H0V0z"/>
</svg>
