<?xml version="1.0" encoding="utf-8"?>
<!-- Generator: Adobe Illustrator 24.0.1, SVG Export Plug-In . SVG Version: 6.00 Build 0)  -->
<svg version="1.1" id="Layer_1" xmlns="http://www.w3.org/2000/svg" xmlns:xlink="http://www.w3.org/1999/xlink" x="0px" y="0px"
	 width="100px" height="100px" viewBox="0 0 100 100" style="enable-background:new 0 0 100 100;" xml:space="preserve">
<style type="text/css">
	.st0{fill:#D1D1D1;}
	.st1{fill:none;}
</style>
<g id="ic_empty_peers">
	<g>
		<g>
			<circle class="st0" cx="17.4" cy="51" r="10.4"/>
		</g>
	</g>
	<g>
		<g>
			<circle class="st0" cx="65" cy="24.1" r="10.4"/>
		</g>
	</g>
	<g>
		<g>
			<circle class="st0" cx="65" cy="75.9" r="10.4"/>
		</g>
	</g>
	<g>
		<g>
			<path class="st0" d="M82.6,40.7c-4.4,0-8.2,2.8-9.7,6.7H62.7c-1.2-6.2-6.7-10.9-13.2-10.9c-1.5,0-2.9,0.3-4.3,0.7l-3.8-6
				c1.8-1.9,2.8-4.4,2.8-7.1c0-5.7-4.6-10.4-10.4-10.4c-5.7,0-10.4,4.6-10.4,10.4c0,5.7,4.6,10.4,10.4,10.4c1.1,0,2.1-0.2,3.1-0.5
				l3.6,5.8C37.8,42.3,36,45.9,36,50c0,4.2,1.9,7.9,4.9,10.4l-3.7,5.7c-1-0.4-2.1-0.5-3.3-0.5c-5.7,0-10.4,4.6-10.4,10.4
				c0,5.7,4.6,10.4,10.4,10.4s10.4-4.6,10.4-10.4c0-2.7-1-5.1-2.7-7l3.9-6c1.3,0.4,2.6,0.6,4,0.6c6.6,0,12-4.7,13.2-10.9h9.7
				c0.8,5,5,8.8,10.2,8.8C88.4,61.4,93,56.8,93,51C93,45.3,88.4,40.7,82.6,40.7z M49.5,58.3c-4.6,0-8.3-3.7-8.3-8.3s3.7-8.3,8.3-8.3
				s8.3,3.7,8.3,8.3S54.1,58.3,49.5,58.3z"/>
		</g>
	</g>
	<path class="st0" d="M53.1,49.9v0.6h1.4v0.9h-1.4v2.5c0,0.2-0.1,0.3-0.3,0.3h-2c-0.1,0-0.2-0.1-0.2-0.1l-3-5.1v5.3h-1.7v-2.7h-1.4
		v-0.9h1.4v-0.6h-1.4V49h1.4v-2.5c0-0.2,0.1-0.3,0.3-0.3h1.7c0.1,0,0.2,0.1,0.2,0.1l2.8,4.7c0.1,0.2,0.5,0.1,0.5-0.1v-4.7h1.7V49
		h1.4v0.9H53.1z"/>
	<path id="Rectangle" class="st1" d="M0,0h100v100H0V0z"/>
</g>
</svg>
