<?xml version="1.0" encoding="UTF-8" standalone="no"?>
<!-- Generator: Adobe Illustrator 18.1.0, SVG Export Plug-In . SVG Version: 6.00 Build 0)  -->

<svg
   xmlns:dc="http://purl.org/dc/elements/1.1/"
   xmlns:cc="http://creativecommons.org/ns#"
   xmlns:rdf="http://www.w3.org/1999/02/22-rdf-syntax-ns#"
   xmlns:svg="http://www.w3.org/2000/svg"
   xmlns="http://www.w3.org/2000/svg"
   xmlns:sodipodi="http://sodipodi.sourceforge.net/DTD/sodipodi-0.dtd"
   xmlns:inkscape="http://www.inkscape.org/namespaces/inkscape"
   version="1.1"
   id="Ebene_1"
   x="0px"
   y="0px"
   viewBox="0 0 841.9 841.9"
   enable-background="new 0 0 841.9 841.9"
   xml:space="preserve"
   sodipodi:docname="clock_1.svg"
   inkscape:version="0.92.3 (2405546, 2018-03-11)"><metadata
   id="metadata4038"><rdf:RDF><cc:Work
       rdf:about=""><dc:format>image/svg+xml</dc:format><dc:type
         rdf:resource="http://purl.org/dc/dcmitype/StillImage" /><dc:title></dc:title></cc:Work></rdf:RDF></metadata><defs
   id="defs4036" /><sodipodi:namedview
   pagecolor="#ffffff"
   bordercolor="#666666"
   borderopacity="1"
   objecttolerance="10"
   gridtolerance="10"
   guidetolerance="10"
   inkscape:pageopacity="0"
   inkscape:pageshadow="2"
   inkscape:window-width="1366"
   inkscape:window-height="682"
   id="namedview4034"
   showgrid="false"
   inkscape:zoom="0.59745811"
   inkscape:cx="420.95001"
   inkscape:cy="420.95001"
   inkscape:window-x="0"
   inkscape:window-y="28"
   inkscape:window-maximized="1"
   inkscape:current-layer="Ebene_1" />
<g
   id="g4030"
   style="fill:#0000ff">
	<path
   d="M297.6,677.3c-68.5,0-132.9-26.7-181.3-75.1S41.3,489.4,41.3,420.9s26.7-132.9,75.1-181.3c48.4-48.4,112.8-75.1,181.3-75.1   s132.9,26.7,181.3,75.1c48.4,48.4,75.1,112.8,75.1,181.3s-26.7,132.9-75.1,181.3S366.1,677.3,297.6,677.3z M297.6,204.6   c-57.8,0-112.1,22.5-153,63.4c-40.9,40.9-63.4,95.2-63.4,153c0,57.8,22.5,112.1,63.4,153c40.9,40.9,95.2,63.4,153,63.4   c57.8,0,112.1-22.5,153-63.4c40.9-40.9,63.4-95.2,63.4-153c0-57.8-22.5-112.1-63.4-153C409.8,227.1,355.4,204.6,297.6,204.6z"
   id="path4028"
   style="fill:#0000ff" />
</g>
<path
   d="M 478.3,253.4 297.6,184.6 c 0,0 0,78.8 0,118.2 0,117.5 -0.4,118.1 118.2,118.1 39.4,0 118.2,0 118.2,0 z"
   id="polygon7"
   style="fill:#0000ff" />
</svg>