<?xml version="1.0" encoding="UTF-8" standalone="no"?>
<!-- Generator: Adobe Illustrator 18.1.1, SVG Export Plug-In . SVG Version: 6.00 Build 0)  -->

<svg
   xmlns:dc="http://purl.org/dc/elements/1.1/"
   xmlns:cc="http://creativecommons.org/ns#"
   xmlns:rdf="http://www.w3.org/1999/02/22-rdf-syntax-ns#"
   xmlns:svg="http://www.w3.org/2000/svg"
   xmlns="http://www.w3.org/2000/svg"
   xmlns:sodipodi="http://sodipodi.sourceforge.net/DTD/sodipodi-0.dtd"
   xmlns:inkscape="http://www.inkscape.org/namespaces/inkscape"
   version="1.1"
   id="Ebene_1"
   x="0px"
   y="0px"
   viewBox="0 0 595.3 841.9"
   enable-background="new 0 0 595.3 841.9"
   xml:space="preserve"
   sodipodi:docname="hd_disabled.svg"
   inkscape:version="0.92.3 (2405546, 2018-03-11)"><metadata
   id="metadata5093"><rdf:RDF><cc:Work
       rdf:about=""><dc:format>image/svg+xml</dc:format><dc:type
         rdf:resource="http://purl.org/dc/dcmitype/StillImage" /><dc:title></dc:title></cc:Work></rdf:RDF></metadata><defs
   id="defs5091" /><sodipodi:namedview
   pagecolor="#ffffff"
   bordercolor="#666666"
   borderopacity="1"
   objecttolerance="10"
   gridtolerance="10"
   guidetolerance="10"
   inkscape:pageopacity="0"
   inkscape:pageshadow="2"
   inkscape:window-width="1366"
   inkscape:window-height="682"
   id="namedview5089"
   showgrid="false"
   inkscape:zoom="0.59745811"
   inkscape:cx="297.64999"
   inkscape:cy="420.95001"
   inkscape:window-x="0"
   inkscape:window-y="28"
   inkscape:window-maximized="1"
   inkscape:current-layer="Ebene_1" />
<g
   id="g5072"
   style="fill:#0000ff">
	<path
   d="M81.3,336.5v66.8h70.4v-66.8H190v174h-38.3v-75.1H81.3v75.1H43v-174H81.3z"
   id="path5068"
   style="fill:#0000ff" />
	<path
   d="M298.7,336.5c11.2,0,21.6,1.8,31.3,5.4c9.7,3.6,18,8.9,25.1,16.1c7.1,7.2,12.6,16.1,16.6,26.8c4,10.7,6,23.3,6,37.8   c0,12.7-1.6,24.4-4.9,35.1c-3.3,10.7-8.2,20-14.7,27.8c-6.6,7.8-14.8,13.9-24.6,18.4c-9.8,4.5-21.4,6.7-34.7,6.7h-75.1v-174H298.7z    M296,478.3c5.5,0,10.9-0.9,16.1-2.7c5.2-1.8,9.8-4.8,13.9-8.9c4.1-4.1,7.3-9.5,9.7-16.2c2.4-6.7,3.7-14.8,3.7-24.4   c0-8.8-0.9-16.7-2.6-23.8s-4.5-13.1-8.4-18.2c-3.9-5-9.1-8.9-15.5-11.6c-6.4-2.7-14.3-4-23.8-4h-27.3v109.7H296z"
   id="path5070"
   style="fill:#0000ff" />
</g>
<g
   id="g5086"
   style="fill:#ff0000">
	<g
   id="g5076"
   style="fill:#ff0000">
		<line
   x1="32"
   y1="555.9"
   x2="358"
   y2="293.9"
   id="line5074"
   style="fill:#ff0000" />
	</g>
	<g
   id="g5080"
   style="fill:#ff0000">
		<path
   fill="#FFFFFF"
   d="M32,580.9c-7.3,0-14.6-3.2-19.5-9.3c-8.6-10.8-6.9-26.5,3.8-35.1l326-262c10.8-8.6,26.5-6.9,35.1,3.8    c8.6,10.8,6.9,26.5-3.8,35.1l-326,262C43,579.1,37.5,580.9,32,580.9z"
   id="path5078"
   style="fill:#ff0000" />
	</g>
	<g
   id="g5084"
   style="fill:#ff0000">
		<path
   d="M32,573.9c-5.3,0-10.5-2.3-14-6.7c-6.2-7.7-5-19.1,2.8-25.3l326-262c7.8-6.2,19.1-5,25.3,2.8c6.2,7.7,5,19.1-2.8,25.3    l-326,262C40,572.6,36,573.9,32,573.9z"
   id="path5082"
   style="fill:#ff0000" />
	</g>
</g>
</svg>