<?xml version="1.0" encoding="UTF-8" standalone="no"?>
<!-- Generator: Adobe Illustrator 17.1.0, SVG Export Plug-In . SVG Version: 6.00 Build 0)  -->

<svg
   xmlns:dc="http://purl.org/dc/elements/1.1/"
   xmlns:cc="http://creativecommons.org/ns#"
   xmlns:rdf="http://www.w3.org/1999/02/22-rdf-syntax-ns#"
   xmlns:svg="http://www.w3.org/2000/svg"
   xmlns="http://www.w3.org/2000/svg"
   xmlns:sodipodi="http://sodipodi.sourceforge.net/DTD/sodipodi-0.dtd"
   xmlns:inkscape="http://www.inkscape.org/namespaces/inkscape"
   version="1.1"
   id="Ebene_1"
   x="0px"
   y="0px"
   viewBox="0 0 24 24"
   enable-background="new 0 0 24 24"
   xml:space="preserve"
   sodipodi:docname="tx_inout.svg"
   inkscape:version="0.92.3 (2405546, 2018-03-11)"><metadata
   id="metadata5655"><rdf:RDF><cc:Work
       rdf:about=""><dc:format>image/svg+xml</dc:format><dc:type
         rdf:resource="http://purl.org/dc/dcmitype/StillImage" /><dc:title></dc:title></cc:Work></rdf:RDF></metadata><defs
   id="defs5653" /><sodipodi:namedview
   pagecolor="#ffffff"
   bordercolor="#666666"
   borderopacity="1"
   objecttolerance="10"
   gridtolerance="10"
   guidetolerance="10"
   inkscape:pageopacity="0"
   inkscape:pageshadow="2"
   inkscape:window-width="1366"
   inkscape:window-height="682"
   id="namedview5651"
   showgrid="false"
   inkscape:zoom="20.958333"
   inkscape:cx="12"
   inkscape:cy="12"
   inkscape:window-x="0"
   inkscape:window-y="28"
   inkscape:window-maximized="1"
   inkscape:current-layer="Ebene_1" />
<path
   d="M14.7,19.5c-2.5,0-4.5-2-4.5-4.5c0-0.6-0.4-1-1-1c-0.6,0-1,0.4-1,1c0,3.6,2.9,6.5,6.5,6.5s6.5-2.9,6.5-6.5s-2.9-6.5-6.5-6.5  c-0.6,0-1,0.4-1,1s0.4,1,1,1c2.5,0,4.5,2,4.5,4.5S17.2,19.5,14.7,19.5z M5.9,12.5c-0.6,0-1-0.4-1-1s0.4-1,1-1h3.2L7.4,8.8L3.3,4.7  c-0.4-0.4-0.4-1,0-1.4C3.5,3.1,3.7,3,4,3s0.5,0.1,0.7,0.3l4.1,4.1l1.7,1.7V5.8c0-0.6,0.4-1,1-1s1,0.4,1,1v6.7L5.9,12.5 M7.5,0.8  c0.6,0,1,0.4,1,1s-0.4,1-1,1H4.3L6,4.5l4.1,4.1c0.4,0.4,0.4,1,0,1.4c-0.2,0.2-0.4,0.3-0.7,0.3S8.9,10.2,8.7,10L4.6,5.9L2.9,4.2v3.2  c0,0.6-0.4,1-1,1s-1-0.4-1-1V0.8L7.5,0.8"
   id="path5648"
   style="fill:#d40000" />
</svg>