<?xml version="1.0" encoding="UTF-8" standalone="no"?>
<!-- Generator: Adobe Illustrator 17.1.0, SVG Export Plug-In . SVG Version: 6.00 Build 0)  -->

<svg
   xmlns:dc="http://purl.org/dc/elements/1.1/"
   xmlns:cc="http://creativecommons.org/ns#"
   xmlns:rdf="http://www.w3.org/1999/02/22-rdf-syntax-ns#"
   xmlns:svg="http://www.w3.org/2000/svg"
   xmlns="http://www.w3.org/2000/svg"
   xmlns:sodipodi="http://sodipodi.sourceforge.net/DTD/sodipodi-0.dtd"
   xmlns:inkscape="http://www.inkscape.org/namespaces/inkscape"
   version="1.1"
   id="Ebene_1"
   x="0px"
   y="0px"
   viewBox="0 0 841.9 595.3"
   enable-background="new 0 0 841.9 595.3"
   xml:space="preserve"
   sodipodi:docname="verify.svg"
   inkscape:version="0.92.3 (2405546, 2018-03-11)"><metadata
   id="metadata5737"><rdf:RDF><cc:Work
       rdf:about=""><dc:format>image/svg+xml</dc:format><dc:type
         rdf:resource="http://purl.org/dc/dcmitype/StillImage" /><dc:title></dc:title></cc:Work></rdf:RDF></metadata><defs
   id="defs5735" /><sodipodi:namedview
   pagecolor="#ffffff"
   bordercolor="#666666"
   borderopacity="1"
   objecttolerance="10"
   gridtolerance="10"
   guidetolerance="10"
   inkscape:pageopacity="0"
   inkscape:pageshadow="2"
   inkscape:window-width="1366"
   inkscape:window-height="682"
   id="namedview5733"
   showgrid="false"
   inkscape:zoom="0.84495214"
   inkscape:cx="420.95001"
   inkscape:cy="297.64999"
   inkscape:window-x="0"
   inkscape:window-y="28"
   inkscape:window-maximized="1"
   inkscape:current-layer="Ebene_1" />
<path
   d="M654.1,317.5c-14.9-9.9-37.2-2.5-44.6,12.4l-62,111.6l-34.7-34.7c-12.4-12.4-34.7-12.4-47.1,0c-12.4,12.4-12.4,34.7,0,47.1  l67,67c7.4,7.4,14.9,9.9,22.3,9.9h5c9.9-2.5,19.8-7.4,24.8-17.4l81.9-148.8C676.4,347.2,671.5,327.4,654.1,317.5z"
   id="path5728"
   style="fill:#0000ff" />
<path
   d="M326.7,471.3H177.9V362.1l94.3-94.3c-5-14.9-7.4-29.8-7.4-44.6c0-81.9,67-148.8,148.8-148.8s148.8,67,148.8,148.8  s-67,148.8-148.8,148.8h-37.2v49.6h-49.6L326.7,471.3L326.7,471.3z M227.5,421.7h49.6v-49.6h49.6v-49.6h86.8  c54.6,0,99.2-44.6,99.2-99.2S468.1,124,413.5,124s-99.2,44.6-99.2,99.2c0,14.9,2.5,27.3,9.9,39.7l7.4,14.9L230,379.5v42.2H227.5z   M413.5,198.4c14.9,0,24.8,9.9,24.8,24.8c0,14.9-9.9,24.8-24.8,24.8c-14.9,0-24.8-9.9-24.8-24.8  C388.7,208.3,401.1,198.4,413.5,198.4 M413.5,173.6c-27.3,0-49.6,22.3-49.6,49.6c0,27.3,22.3,49.6,49.6,49.6  c27.3,0,49.6-22.3,49.6-49.6C463.1,195.9,443.3,173.6,413.5,173.6z"
   id="path5730"
   style="fill:#0000ff" />
</svg>