<?xml version="1.0" encoding="utf-8"?>
<!-- Generator: Adobe Illustrator 24.0.1, SVG Export Plug-In . SVG Version: 6.00 Build 0)  -->
<svg version="1.1" id="Layer_1" xmlns="http://www.w3.org/2000/svg" xmlns:xlink="http://www.w3.org/1999/xlink" x="0px" y="0px"
	 width="72.7px" height="72.7px" viewBox="0 0 72.7 72.7" style="enable-background:new 0 0 72.7 72.7;" xml:space="preserve">
<g id="layer102">
	<polygon points="71.3,51.3 71.3,58 68,58 68,61.3 64.7,61.3 64.7,58 58,58 58,51.3 64.7,51.3 64.7,54.7 68,54.7 68,51.3 	"/>
	<rect x="68" y="64.7" width="3.3" height="3.3"/>
	<rect x="61.3" y="68" width="3.3" height="3.3"/>
	<rect x="48" y="64.7" width="6.7" height="3.3"/>
	<rect x="44.7" y="58" width="3.3" height="6.7"/>
	<rect x="54.7" y="48" width="3.3" height="3.3"/>
	<polygon points="44.7,64.7 44.7,71.3 28,71.3 28,58 31.3,58 31.3,54.7 34.7,54.7 34.7,61.3 31.3,61.3 31.3,68 34.7,68 34.7,64.7 
		38,64.7 38,61.3 41.3,61.3 41.3,64.7 	"/>
	<path d="M1.3,48v23.3h23.3V48H1.3z M21.3,68H4.7V51.3h16.7V68z"/>
	<rect x="21.3" y="41.3" width="6.7" height="3.3"/>
	<polygon points="34.7,38 34.7,41.3 28,41.3 28,34.7 31.3,34.7 31.3,38 	"/>
	<rect x="34.7" y="34.7" width="3.3" height="3.3"/>
	<rect x="38" y="41.3" width="3.3" height="3.3"/>
	<polygon points="48,38 48,48 51.3,48 51.3,51.3 54.7,51.3 54.7,61.3 51.3,61.3 51.3,58 48,58 48,54.7 41.3,54.7 41.3,58 38,58 
		38,54.7 34.7,54.7 34.7,51.3 31.3,51.3 31.3,48 28,48 28,44.7 38,44.7 38,51.3 44.7,51.3 44.7,41.3 41.3,41.3 41.3,31.3 44.7,31.3 
		44.7,34.7 51.3,34.7 51.3,31.3 54.7,31.3 54.7,34.7 58,34.7 58,38 	"/>
	<polygon points="64.7,44.7 64.7,48 58,48 58,44.7 54.7,44.7 54.7,41.3 58,41.3 58,38 61.3,38 61.3,44.7 	"/>
	<polygon points="71.3,28 71.3,44.7 64.7,44.7 64.7,34.7 68,34.7 68,28 	"/>
	<polygon points="64.7,28 64.7,34.7 58,34.7 58,31.3 54.7,31.3 54.7,28 	"/>
	<rect x="44.7" y="28" width="3.3" height="3.3"/>
	<rect x="41.3" y="21.3" width="3.3" height="3.3"/>
	<rect x="21.3" y="28" width="3.3" height="3.3"/>
	<polygon points="24.7,34.7 24.7,38 18,38 18,31.3 21.3,31.3 21.3,34.7 	"/>
	<rect x="14.7" y="41.3" width="3.3" height="3.3"/>
	<rect x="8" y="41.3" width="3.3" height="3.3"/>
	<rect x="4.7" y="38" width="3.3" height="3.3"/>
	<polygon points="14.7,28 14.7,41.3 11.3,41.3 11.3,31.3 8,31.3 8,34.7 1.3,34.7 1.3,28 	"/>
	<rect x="28" y="28" width="3.3" height="3.3"/>
	<rect x="28" y="21.3" width="3.3" height="3.3"/>
	<polygon points="38,21.3 38,31.3 34.7,31.3 34.7,28 31.3,28 31.3,24.7 34.7,24.7 34.7,21.3 	"/>
	<path d="M48,1.3v23.3h23.3V1.3H48z M68,21.3H51.3V4.7H68V21.3z"/>
	<rect x="41.3" y="1.3" width="3.3" height="10"/>
	<rect x="38" y="11.3" width="3.3" height="3.3"/>
	<rect x="34.7" y="8" width="3.3" height="3.3"/>
	<polygon points="34.7,1.3 34.7,8 31.3,8 31.3,4.7 28,4.7 28,1.3 	"/>
	<polygon points="38,14.7 38,18 28,18 28,8 31.3,8 31.3,14.7 	"/>
	<path d="M1.3,1.3v23.3h23.3V1.3H1.3z M21.3,21.3H4.7V4.7h16.7V21.3z"/>
	<rect x="8" y="54.7" width="10" height="10"/>
	<rect x="8" y="8" width="10" height="10"/>
	<rect x="54.7" y="8" width="10" height="10"/>
</g>
</svg>
