<?xml version="1.0" encoding="utf-8"?>
<!-- Generator: Adobe Illustrator 24.0.1, SVG Export Plug-In . SVG Version: 6.00 Build 0)  -->
<svg version="1.1" id="ic-transaction-staked" xmlns="http://www.w3.org/2000/svg" xmlns:xlink="http://www.w3.org/1999/xlink"
	 x="0px" y="0px" width="24px" height="24px" viewBox="0 0 24 24" style="enable-background:new 0 0 24 24;" xml:space="preserve">
<style type="text/css">
	.st0{fill:#FFFFFF;}
</style>
<g>
	<g>
		<path class="st0" d="M20.6,5.9h-1.5c0.2-0.3,0.3-0.6,0.4-1C19.6,3.7,19,2.7,18,2.3s-2-0.2-2.8,0.4l-1.8,1.7
			C13,4,12.5,3.7,11.9,3.7s-1.1,0.2-1.4,0.6L8.6,2.7C7.8,2,6.8,1.8,5.8,2.2c-1,0.5-1.6,1.5-1.5,2.6c0,0.4,0.2,0.7,0.4,1H3.2
			C2.5,5.9,1.9,6.5,1.9,7.2v2c0,0.4,0.3,0.7,0.7,0.7h18.7c0.4,0,0.7-0.3,0.7-0.7v-2C21.9,6.5,21.3,5.9,20.6,5.9z M9.9,5.7v0.2h-3
			c-0.8,0-1.5-0.8-1.2-1.6c0.1-0.4,0.4-0.7,0.7-0.9c0.5-0.2,1-0.1,1.4,0.2L9.9,5.7L9.9,5.7z M18.2,4.7c0,0.7-0.7,1.2-1.3,1.2h-3V5.7
			l0,0c0.5-0.5,1.6-1.4,2.2-2c0.3-0.3,0.8-0.4,1.2-0.3C17.9,3.5,18.3,4.1,18.2,4.7z"/>
	</g>
</g>
<g>
	<g>
		<polygon class="st0" points="13.2,16.1 13.7,16.1 13.7,16.4 13.2,16.4 13.2,16.6 13.7,16.6 13.7,16.9 13.2,16.9 13.2,17.9 
			12.3,17.9 11.2,16 11.2,17.9 10.6,17.9 10.6,16.9 10.1,16.9 10.1,16.6 10.7,16.6 10.7,16.4 10.1,16.4 10.1,16.1 10.7,16.1 
			10.7,15.1 11.4,15.1 12.6,17.2 12.6,15.1 13.2,15.1 		"/>
		<path class="st0" d="M3.2,10.6v10c0,0.8,0.6,1.4,1.3,1.4h14.8c0.7,0,1.3-0.6,1.3-1.4v-10H3.2z M15.7,15c0.1,0,0.2,0.1,0.2,0.2
			c0,0.1-0.1,0.2-0.2,0.2h-1.4v0.8h1.4c0.1,0,0.2,0.1,0.2,0.2s-0.1,0.2-0.2,0.2h-1.4v0.8h1.4c0.1,0,0.2,0.1,0.2,0.2
			s-0.1,0.2-0.2,0.2h-0.5v0.5h0.5c0.1,0,0.2,0.1,0.2,0.2s-0.1,0.2-0.2,0.2H15c-0.1,0-0.2-0.1-0.2-0.2V18h-0.5v0.3
			c0,0.4-0.3,0.7-0.7,0.7h-0.2v0.5h0.6c0.1,0,0.2,0.1,0.2,0.2v0.7c0,0.1-0.1,0.2-0.2,0.2c-0.1,0-0.2-0.1-0.2-0.2v-0.5h-0.5v0.5
			c0,0.1-0.1,0.2-0.2,0.2c-0.1,0-0.2-0.1-0.2-0.2V19h-0.8v1.4c0,0.1-0.1,0.2-0.2,0.2c-0.1,0-0.2-0.1-0.2-0.2V19h-0.8v1.4
			c0,0.1-0.1,0.2-0.2,0.2c-0.1,0-0.2-0.1-0.2-0.3v-0.5H10v0.5c0,0.1-0.1,0.2-0.2,0.2c-0.1,0-0.2-0.1-0.2-0.2v-0.7
			c0-0.1,0.1-0.2,0.2-0.2h0.7v-0.5h-0.3c-0.4,0-0.7-0.3-0.7-0.7V18H9.1v0.7c0,0.1-0.1,0.2-0.2,0.2H8.1c-0.1,0-0.2-0.1-0.2-0.2
			s0.1-0.2,0.2-0.2h0.5V18H8.1c-0.1,0-0.2-0.2-0.2-0.3c0-0.1,0.1-0.2,0.2-0.3h1.4v-0.8H8.1c-0.1,0-0.2-0.1-0.2-0.2s0.1-0.2,0.2-0.3
			h1.4v-0.8H8.1c-0.1,0-0.2-0.1-0.2-0.2C7.9,15.2,8,15,8.1,15h0.5v-0.5H8.1c-0.1,0-0.2-0.1-0.2-0.2c0-0.1,0.1-0.3,0.2-0.2h0.8
			c0.1,0,0.2,0.1,0.2,0.2V15h0.4v-0.3c0-0.4,0.3-0.7,0.7-0.7h0.3v-0.5H9.7c-0.1,0-0.2-0.1-0.2-0.2v-0.7c0-0.1,0.1-0.2,0.3-0.2
			c0.1,0,0.2,0.1,0.2,0.2v0.5h0.5v-0.5c0-0.1,0.1-0.2,0.2-0.2c0.1,0,0.2,0.1,0.2,0.2V14h0.8v-1.4c0-0.1,0.1-0.2,0.2-0.2
			c0.1,0,0.2,0.1,0.3,0.2V14h0.7v-1.4c0-0.1,0.1-0.2,0.2-0.2c0.1,0,0.2,0.1,0.2,0.2v0.5h0.6v-0.5c0-0.1,0.1-0.2,0.2-0.2
			c0.1,0,0.2,0.1,0.2,0.2v0.7c0,0.1-0.1,0.2-0.2,0.2h-0.7v0.4h0.3c0.4,0,0.7,0.3,0.7,0.7V15h0.5v-0.7c0-0.1,0.1-0.2,0.2-0.2h0.7
			c0.1,0,0.2,0.1,0.2,0.2c0,0.1-0.1,0.2-0.2,0.2h-0.5V15H15.7z"/>
	</g>
</g>
</svg>
