<?xml version="1.0" encoding="utf-8"?>
<!-- Generator: Adobe Illustrator 24.0.1, SVG Export Plug-In . SVG Version: 6.00 Build 0)  -->
<svg version="1.1" id="Layer_1" xmlns="http://www.w3.org/2000/svg" xmlns:xlink="http://www.w3.org/1999/xlink" x="0px" y="0px"
	 width="24px" height="24px" viewBox="0 0 24 24" style="enable-background:new 0 0 24 24;" xml:space="preserve">
<style type="text/css">
	.st0{opacity:0.7;}
	.st1{fill:#B7B7B7;}
	.st2{fill:none;}
</style>
<g id="ic-transaction-sent" class="st0">
	<g>
		<g>
			<path class="st1" d="M21.9,2.2C21.7,2,21.4,1.9,21.1,2L4.6,8.7C4.3,8.8,4.1,9.1,4.1,9.4S4.4,9.9,4.6,10l7.3,2.2l2.2,7.2
				c0.1,0.3,0.3,0.5,0.6,0.5l0,0c0.3,0,0.5-0.2,0.6-0.4L22.1,3C22.2,2.7,22.1,2.4,21.9,2.2z"/>
		</g>
	</g>
	<g>
		<g>
			<rect x="3.6" y="17" transform="matrix(0.7071 -0.7071 0.7071 0.7071 -10.7453 9.5343)" class="st1" width="5.1" height="1.4"/>
		</g>
	</g>
	<g>
		<g>
			<rect x="1.6" y="13.2" transform="matrix(0.7071 -0.7071 0.7071 0.7071 -8.5791 6.9948)" class="st1" width="5.1" height="1.4"/>
		</g>
	</g>
	<g>
		<g>
			<rect x="7.5" y="19" transform="matrix(0.7071 -0.7071 0.7071 0.7071 -11.0024 12.8982)" class="st1" width="5.1" height="1.4"/>
		</g>
	</g>
	<path id="Rectangle_4412" class="st2" d="M0,0h24v24H0V0z"/>
</g>
</svg>
